<svg xmlns="http://www.w3.org/2000/svg" xmlns:xlink="http://www.w3.org/1999/xlink" id="Layer_1" data-name="Layer 1" viewBox="0 0 1654.22 1007.43"><defs><style> .cls-1 { fill: #00f3ef; } .cls-2 { fill: #0170cb; } .cls-3 { fill: #005eb8; } .cls-4 { fill: #0014dc; } .cls-5 { fill: #007eef; } .cls-6 { fill: #fff; } .cls-7 { fill: #ffcb24; } .cls-8 { fill: #ffc000; } .cls-9 { fill: #92c13d; } .cls-10 { fill: #e30613; } .cls-11 { fill: #224ec1; } .cls-12 { fill: #081b49; } .cls-13 { fill: #1c4e90; } .cls-14 { fill: #982402; } </style><clipPath id="clippath"><path class="cls-5" d="m1350.42,70.44c.9-.7,3.3-2.5,3.7-2.7.6-4,2-10.6,5.3-17.5,3.6-7.4,9.3-15.5,17.2-20.9,6.7-4.5,17.7-9.5,26.2-11.3,7-1.5,13.5-1.8,19.1-1.3,11.5,1,17.9,4.3,21.1,8.6,1.2,1.6,1.9,3.6,1.9,4.8.1,2.1-.9,4.9-3.9,7.6-3,2.6-9.2,5.9-17.8,8.8-8.9,3-21.1,6.1-33.2,8.9-10.2,2.3-18.4,5-23.2,6.8-1.4.5-2.4,1-3.6,1.5-.8,1.8-2.5,6.7-3,9.3,8.9,3.6,14.7,8.3,19.2,11.9,5.8,4.8,12.5,10.3,20.8,20.5,7.6,9.2,19.9,26.9,24.4,44.1,4.9,18.8,1.8,36.7-8.8,41.7-10.4,4.9-24.3-2.2-34.1-12.3-9.3-9.7-15.8-21-21.8-38.5-5.2-15.1-7.4-36.9-7.4-48.3,0-3.8,0-6.1.1-9.5-4.3-2.7-9.3-2.6-14.9.7-10.3,5.9-20.9,18.7-26.6,25.4-2.5,2.9-5.8,7.2-9.4,11.7-4.7,5.9-9.8,12.1-14.6,15.5-7.1,5.2-18.5,7.3-26.4,1.6-4.4-3.2-6.8-9.2-6.9-15.3-.1-4.3,1-8.2,3.2-12,2.7-4.7,7.1-9.8,14-15.6,7.2-6,18.7-12.7,30.3-17.3,17.6-6.9,36.5-9.2,49.1-6.9h0Z"></path></clipPath></defs><g><path class="cls-11" d="m1202.66,652.29c-9.39-28.89-40.31-44.55-69.1-33.74-18.18,6.87-30.91,22.53-34.04,42.33,0,.3-.3.51-.61.51h-9.6c-.3,0-.51-.2-.4-.51,5.56-42.33,48.79-68.49,88.7-51.22,17.48,7.58,31.72,23.34,36.27,42.53.1.4-.1.51-.4.51h-9.9c-.51.2-.81,0-.91-.4Z"></path><path class="cls-8" d="m1449.76,627.33c10.71-10.61,23.44-17.07,38.39-19.6,1.82-.3,1.92-.1.2.61-15.25,6.06-29.5,16.87-38.99,30.41-.2.3-.4.3-.51,0-3.94-6.97-8.89-13.13-14.65-18.69-.4-.3-.3-.51.2-.51,5.46.3,11.01,4.24,14.65,7.78.2.3.4.3.71,0Z"></path><path class="cls-11" d="m1182.56,643.7c-5.46-6.87-12.43-11.31-21.01-13.33-28.59-6.87-54.45,18.59-47.28,47.58,3.84,15.36,16.16,26.67,32.53,29.19.4.1.61.3.61.71v8.89c0,.3-.2.51-.51.51-29.09-3.13-47.98-29.7-43.14-57.88,5.15-30,37.48-47.58,65.76-36.87,13.84,5.25,23.54,15.15,29.19,29.9.2.4,0,.61-.4.61h-24.75c-.4,0-.71-.1-.91-.4-3.94-4.95-9.09-8.18-15.36-9.7-.3-.1-.4-.2-.4-.51v-8.18c0-.2.2-.4.4-.4h.1c7.68,1.21,14.24,4.65,19.7,10.1.3.3.71.51,1.11.4h4.24c.3,0,.4-.2.1-.61Z"></path><path class="cls-11" d="m1118.01,662.19c2.93-14.85,13.84-25.36,28.89-28.29.4-.1.61.1.61.51v7.88c0,.4-.2.61-.51.71-8.49,2.12-14.45,6.77-17.88,13.94-12.93,26.57,21.11,50.61,42.02,29.19.2-.2.4-.3.71-.3h10c.2,0,.4.2.4.4q0,.1-.1.2c-9.6,14.65-26.27,20.51-42.53,14.34-14.95-5.56-24.95-22.43-21.62-38.59Z"></path><path class="cls-11" d="m1341.16,670.67c0,15.46-12.53,27.88-27.88,27.88h0c-15.46,0-27.88-12.53-27.88-27.88s12.53-27.88,27.88-27.88,27.88,12.43,27.88,27.88h0Zm-13.13.2c0-8.08-6.57-14.65-14.65-14.65s-14.65,6.57-14.65,14.65,6.57,14.65,14.65,14.65,14.65-6.57,14.65-14.65Z"></path><path class="cls-11" d="m1503.2,679.46h-14.24c-.4,0-.61-.2-.61-.61v-10.91c0-.4.2-.61.51-.61h29.7c.4,0,.51.2.61.51.81,20.31-16.67,35.26-36.67,28.89-5.05-1.62-9.19-4.44-12.53-8.59-13.13-16.26-4.75-41.01,15.86-44.95,14.14-2.73,26.57,3.84,31.42,17.58.1.3,0,.51-.4.51h-13.23c-.3,0-.61-.1-.81-.4-9.29-12.93-28.59-2.83-25.66,12.22,1.41,7.37,7.07,12.32,14.65,12.73,5.05.3,8.99-1.62,11.72-5.86.3-.2.2-.51-.3-.51Z"></path><path class="cls-11" d="m1244.69,644.71c15.15-5.46,30.91,3.23,34.14,18.99.1.3-.1.4-.3.4h-12.63c-.3,0-.61-.2-.71-.51-2.53-5.25-6.67-7.68-12.32-7.17-15.86,1.21-17.98,24.85-1.72,28.39,6.06,1.31,10.71-.91,13.94-6.57.1-.2.4-.4.61-.4h13.03c.3,0,.51.2.4.51-3.13,11.92-10.71,18.59-22.53,19.9-4.65.51-9.19-.2-13.64-2.12-22.63-9.9-21.52-43.03,1.72-51.42Z"></path><path class="cls-11" d="m1381.27,675.01v-30.51c0-.4.2-.61.61-.61h10.91c.3,0,.61.2.61.61h0v52.33c0,.3-.2.51-.51.51h-10.41c-.4,0-.61-.2-.81-.51l-19.8-31.32c-.1-.1-.2-.1-.3-.1s-.1.1-.1.2l.1,31.22c0,.3-.2.51-.51.51h-11.52c-.3,0-.51-.2-.51-.51v-52.33c0-.4.2-.51.51-.51h9.8c.3,0,.51.1.71.4l20.81,30.91c.3.4.4.3.4-.3Z"></path><path class="cls-11" d="m1417.03,664.51h16.47c.2,0,.4.2.4.4h0v11.52c0,.2-.2.4-.4.4h-16.47c-.2,0-.4.2-.4.4v19.7c0,.2-.2.4-.4.4h-13.13c-.2,0-.4-.2-.4-.4h0v-52.63c0-.2.2-.4.4-.4h30.41c.2,0,.4.2.4.4h0v11.31c0,.2-.2.4-.4.4h-16.47c-.2,0-.4.2-.4.4l.1,7.68c-.1.2,0,.4.3.4h0Z"></path><path class="cls-11" d="m1442.28,643.9h12.53c.2,0,.3.1.3.3v52.83c0,.2-.1.3-.3.3h-12.53c-.2,0-.3-.1-.3-.3v-52.83c0-.2.1-.3.3-.3Z"></path><path class="cls-11" d="m1539.97,679.46c.2,7.17,10.71,9.09,13.23,2.83.4-1.01.61-2.73.61-5.25.1-10.91.1-21.82,0-32.73,0-.3.1-.4.4-.4h12.12c.3,0,.51.2.51.51.2,11.82.1,23.74-.2,35.56-.3,11.11-5.86,17.27-16.67,18.59-7.68.91-17.88-1.52-21.21-9.39-1.31-3.03-1.92-7.07-1.92-12.02v-32.73c0-.3.1-.4.4-.4h12.02c.4,0,.61.2.61.61,0,17.78,0,29.4.1,34.85Z"></path><path class="cls-11" d="m1588.96,680.47l.1,16.16c0,.4-.2.61-.61.61h-11.82c-.3,0-.51-.2-.51-.51v-52.43c0-.3.1-.4.4-.4,5.46-.1,10.81-.1,16.06,0,6.57.1,11.21.71,13.74,2.02,4.65,2.32,7.58,6.47,8.49,12.63,1.62,10.2-2.12,16.97-11.31,20.2-.3.1-.4.3-.2.61l13.74,17.38c.1.2.1.4-.1.51q-.1.1-.2.1h-15.25c-.3,0-.61-.1-.81-.4l-11.31-16.47c-.3-.51-.4-.4-.4,0Zm.2-24.24l-.1,13.94c0,.4.3.71.61.71h5.25c3.74,0,6.87-3.13,6.87-7.07v-1.11c0-3.94-3.03-7.17-6.77-7.17h0l-5.25-.1c-.3.1-.61.4-.61.81h0Z"></path><path class="cls-11" d="m1638.06,677.04v8.59c0,.2.1.3.3.3h15.56c.2,0,.3.1.3.3v10.81c0,.2-.1.3-.3.3h-28.79c-.2,0-.3-.1-.3-.3h0v-52.83c0-.2.1-.3.3-.3h28.79c.2,0,.3.1.3.3h0v11.21c0,.2-.1.3-.3.3h-15.56c-.2,0-.3.1-.3.3v8.18c0,.2.1.3.3.3h15.56c.2,0,.3.1.3.3h0v11.62c0,.2-.1.3-.3.3h-15.56c-.2,0-.3.2-.3.3h0Z"></path><path class="cls-8" d="m1154.78,669.26l3.13,13.84c0,.2-.1.4-.3.4h-12.32c-.4,0-.51-.2-.4-.61l3.13-14.04c.1-.3,0-.51-.3-.71-2.22-1.62-3.23-3.74-3.23-6.26.2-8.89,12.02-10.2,13.94-1.82.81,3.43-.3,6.26-3.43,8.38-.2.2-.3.51-.2.81Z"></path><path class="cls-11" d="m1197.71,694.31h-3.23c-.4,0-.71.2-.91.51-8.59,12.93-20.61,20.41-36.17,22.43-.4.1-.61-.1-.61-.51v-8.99c0-.4.2-.61.61-.71,13.33-2.12,23.13-9.09,29.5-20.91.2-.3.51-.51.81-.51h25.36c.2,0,.4.2.4.4v.1c-5.66,17.48-16.16,30.31-31.62,38.39-23.84,12.63-53.04,8.69-72.84-9.39-12.53-11.42-19.4-26.06-20.71-43.94,0-.3.2-.51.4-.51h9.6c.4,0,.61.2.61.51,1.92,17.98,9.8,31.62,23.64,40.91,25.36,16.97,60.21,9.39,75.46-17.58.2,0,.1-.2-.3-.2Z"></path></g><g><path class="cls-6" d="m10.6,73.26c1.77-.4,3.53-.96,5.3-.96h28.27c5.86,0,9.96.4,12.21,1.2,4.74,1.69,7.95,4.98,9.64,9.88.72,2.01,1.04,4.9,1.04,8.67v25.06c0,5.94-.4,10.04-1.2,12.37-1.69,4.82-4.98,8.03-9.88,9.72-2.17.72-5.54,1.04-10.12,1.04h-25.86c-3.94,0-6.91-.32-8.91-1.04-4.9-1.69-8.19-4.9-9.88-9.64-.8-2.25-1.2-6.02-1.2-11.48V38.72c0-.24.16-.4.4-.4h9.32c.32,0,.56.16.56.56v33.97c-.08.32.08.4.32.4Zm46.34,20.4c0-5.94-4.82-10.76-10.76-10.84l-25.38-.08c-5.94,0-10.76,4.82-10.84,10.76l-.08,25.54c0,5.94,4.82,10.76,10.76,10.84l25.38.08c5.94,0,10.76-4.82,10.84-10.76l.08-25.54Z"></path><path class="cls-6" d="m233.06,73.74c2.09-.72,3.94-1.12,5.54-1.12h30.76c4.1,0,7.23.32,9.32,1.04,4.82,1.69,8.11,4.9,9.8,9.64.8,2.25,1.2,5.94,1.12,11.16v45.62c0,.24-.16.4-.4.4h-9.4c-.32,0-.48-.16-.48-.48.08-12.77.08-25.54,0-38.23,0-8.11.8-14.46-6.34-17.51-1.69-.72-4.26-1.04-7.63-1.04-6.42.08-12.77.08-19.19,0-3.37,0-5.86.32-7.47,1.04-5.22,2.41-6.18,6.83-6.18,12.53.08,14.38.16,28.67.24,43.05,0,.24-.16.4-.4.4h-9.4c-.24,0-.4-.16-.4-.4V39.21c0-.24.16-.4.4-.4h9.4c.24,0,.4.16.4.4v34.29c0,.24.08.32.32.24Z"></path><path class="cls-6" d="m141.59,123.45c0,9.16-7.39,16.62-16.54,16.62l-33.97.08c-9.16,0-16.62-7.39-16.62-16.54l-.16-34.69c0-9.16,7.39-16.62,16.54-16.62l33.97-.08c9.16,0,16.62,7.39,16.62,16.54l.16,34.69Zm-10.28-30.04c0-5.94-4.9-10.76-10.84-10.76l-25.22.08c-5.94,0-10.76,4.9-10.76,10.84h0l.08,25.62c0,5.94,4.9,10.76,10.84,10.76l25.22-.08c5.94,0,10.76-4.9,10.76-10.84h0l-.08-25.62Z"></path><path class="cls-6" d="m215.63,123.61c0,9.16-7.47,16.54-16.62,16.54l-34.13-.08c-9.16,0-16.54-7.47-16.54-16.62h0l.08-34.77c0-9.16,7.47-16.54,16.62-16.54l34.13.08c9.16,0,16.54,7.47,16.54,16.62h0l-.08,34.77Zm-10.12-30.12c0-5.94-4.82-10.76-10.68-10.76h0l-25.22-.08c-5.94,0-10.76,4.82-10.76,10.68l-.08,25.78c0,5.94,4.82,10.76,10.68,10.76h0l25.22.08c5.94,0,10.76-4.82,10.76-10.68l.08-25.78Z"></path><path class="cls-6" d="m363.24,123.37c0,9.16-7.39,16.54-16.54,16.62h0l-34.21.08c-9.16,0-16.54-7.39-16.62-16.54h0l-.08-34.53c0-9.16,7.39-16.54,16.54-16.62h0l34.21-.08c9.16,0,16.54,7.39,16.62,16.54h0l.08,34.53Zm-10.2-30.04c0-5.94-4.82-10.68-10.76-10.68l-25.38.08c-5.94,0-10.68,4.82-10.68,10.76h0l.08,25.78c0,5.94,4.82,10.68,10.76,10.68l25.38-.08c5.94,0,10.68-4.82,10.68-10.76h0l-.08-25.78Z"></path><path class="cls-6" d="m437.05,123.69c0,9.08-7.39,16.38-16.38,16.3l-34.37-.08c-9.08,0-16.38-7.39-16.3-16.38l.08-34.94c0-9.08,7.39-16.38,16.38-16.3h0l34.37.08c9.08,0,16.38,7.39,16.3,16.38l-.08,34.94Zm-10.04-30.28c0-5.94-4.82-10.68-10.76-10.68l-25.38.08c-5.94,0-10.68,4.82-10.68,10.76h0l.08,25.78c0,5.94,4.82,10.68,10.76,10.68l25.38-.08c5.94,0,10.68-4.82,10.68-10.76h0l-.08-25.78Z"></path></g><g><path class="cls-6" d="m530.02,912.03l33.93,11.83c.31.08.55.08.86,0l33.85-11.75c.31-.16.47,0,.47.39-.63,4.07-2.9,5.02-6.97,7.37-9.17,5.41-18.34,10.74-27.5,15.99-.24.16-.47.16-.71,0-10.5-6.11-20.84-12.22-31.11-18.34-1.96-1.18-3.06-2.9-3.21-5.17,0-.16.08-.31.24-.31h.16Z"></path><path class="cls-6" d="m636.12,945.09c9.95.55,33.54,2.19,30.48,18.18-2.59,13.32-19.43,15.28-30.09,15.12-11.83-.16-21.86-3.37-31.74-10.11-.31-.24-.31-.47-.08-.71l4.54-4.94c.55-.63,1.57-.71,2.19-.16,5.96,4.7,12.85,7.37,20.69,7.99,5.8.47,23.59,1.33,25-7.84.55-3.92-2.59-5.64-6.03-6.5-5.8-1.49-11.83-2.43-18.18-2.82s-14.73-1.8-20.45-5.33c-6.03-3.84-7.99-9.8-4.15-16.3,2.51-4.31,8.23-6.82,12.93-8.07,13.24-3.45,30.4-2.59,41.69,6.11.55.39.63,1.18.24,1.65,0,.08-.08.08-.08.08l-4.07,4.07c-.47.47-1.18.55-1.72.24-11.68-7.05-23.98-8.31-36.91-3.84-3.76,1.25-6.35,6.43-2.43,9.17,4.54,3.21,12.77,3.68,18.18,4Z"></path><path class="cls-6" d="m685.73,935.53c-4.23,8.85,17.4,9.48,24.45,9.87,7.21.39,13.63,1.96,19.28,4.78,4.78,2.35,7.13,7.21,6.43,12.46-2.27,16.38-26.64,16.85-38.55,15.12-8.46-1.25-16.3-4.47-23.43-9.64-.24-.16-.24-.39-.08-.63l4.78-5.02c.47-.55,1.33-.63,1.88-.16,10.11,7.91,22.02,9.17,34.4,7.84,3.53-.39,7.99-1.72,10.19-4.7,2.35-3.21,1.49-6.9-2.19-8.62-1.25-.63-3.68-1.25-7.21-1.88-10.11-1.96-36.59-1.18-39.89-14.1-2.43-9.72,7.05-15.44,14.81-17.4,13.32-3.37,30.33-2.35,41.61,6.35.39.31.47.94.16,1.33l-.08.08-3.92,4.07c-.63.71-1.72.78-2.51.24-9.56-6.66-22.41-7.52-33.38-4.7-2.59.71-5.49,2.12-6.74,4.7Z"></path><path class="cls-6" d="m548.83,950.74l-25.62-26.88c-.16-.16-.16-.47,0-.63,0,0,.08-.08.16-.08,3.29-1.41,5.41-.24,8.38,1.8,9.17,6.58,18.26,13.09,27.43,19.67.24.16.31.39.31.63,0,12.3,0,24.61-.08,36.91,0,1.88-1.02,3.45-3.06,4.62-.24.08-.31.08-.39-.16l-6.74-35.18c-.08-.24-.16-.47-.39-.71Z"></path><path class="cls-6" d="m572.34,986.86c-2.04-1.18-3.06-3.6-3.06-5.88,0-11.83-.08-23.67-.08-35.5,0-.31.16-.63.39-.86,9.32-6.74,18.73-13.4,28.21-20.14,2.66-1.88,4.86-2.59,7.76-1.25.31.16.39.31.08.63l-25.7,26.96c-.16.16-.31.39-.31.71l-6.74,35.18c-.08.24-.24.31-.55.16Z"></path><path class="cls-6" d="m384.82,976.67c9.72-17.24,19.28-34.4,28.84-51.4,1.33-2.35,6.66-1.65,8.93-1.65,2.12,0,2.82.55,3.84,2.43,9.4,16.85,18.81,33.7,28.29,50.46.16.24.08.39-.24.39h-9.8c-.24,0-.39-.08-.47-.31l-5.96-11.44c-.47-.86-1.33-1.41-2.35-1.41h-32.44c-1.02,0-1.88.55-2.35,1.41l-6.03,11.36c-.16.24-.31.31-.55.31h-9.56c-.24.08-.24,0-.16-.16Zm23.66-24.84c-.63,1.1-1.18,2.19-1.72,3.37,0,.08-.08.16-.08.31,0,.71.47,1.02,1.57,1.02h23.59c.47,0,.71-.24.78-.71.08-.39-.08-.86-.47-1.57-4.07-7.37-8.07-14.81-12.15-22.33-.16-.24-.24-.24-.39,0-3.68,6.66-7.29,13.32-11.13,19.9Z"></path><path class="cls-6" d="m513.1,949.48c2.59.86,5.41,1.57,7.52,3.21,5.41,4.15,6.27,11.75,2.35,17.4-3.29,4.7-10.58,6.9-15.99,6.9-13.79.08-27.74.08-41.69,0-.63,0-.94-.31-.94-.94l-.08-50.7c0-1.1.55-1.57,1.57-1.65,13.71-.08,27.43,0,41.14.31,15.05.31,22.25,18.34,6.03,24.92-.47.24-.47.39.08.55Zm-39.57-17v12.15c0,.86.71,1.57,1.57,1.57h26.96c5.88,0,10.66-2.82,10.66-6.35h0v-2.51c0-3.53-4.78-6.35-10.66-6.35h-26.96c-.94,0-1.57.63-1.57,1.49Zm-.16,22.88l.08,12.46c0,1.02.86,1.8,1.8,1.8h0l28.92-.08c6.35,0,11.44-3.13,11.44-6.9h0v-2.43c0-3.76-5.17-6.82-11.44-6.82l-28.92.08c-1.1,0-1.88.86-1.88,1.88h0Z"></path></g><g><path class="cls-3" d="m729.88,431.74c0,.12-.12.37-.37.37h-338c-.12,0-.37-.12-.37-.37v-135.42c0-.12.12-.37.37-.37h338.12c.12,0,.37.12.37.37v135.42h-.12Zm-64.31-96.34c2.23-3.96,6.43-5.32,10.76-5.81,11.75-1.48,22.76-.12,33.14,4.08.37.12.62,0,.62-.37l6.68-20.53c.12-.49,0-.87-.49-.99-3.96-1.48-8.53-2.6-13.73-3.34-16.32-2.1-38.96-2.6-53.06,6.55-10.02,6.43-15.21,15.58-15.34,27.21-.12,10.88,4.08,19.05,13.73,23.99,5.94,3.09,12,5.81,18.3,8.16,8.29,3.22,15.83,11.63,6.93,19.66-1.86,1.61-3.59,2.6-5.19,3.09-14.22,3.34-27.83,2.1-41.06-3.83-.37-.12-.62,0-.74.37l-6.43,20.65c-.12.37,0,.62.37.74,18.92,6.31,37.97,7.3,57.01,3.09,12.24-2.72,23.37-10.39,28.07-22.26,2.6-6.43,3.09-13.11,1.61-19.79-4.08-18.55-21.64-20.78-35.62-28.2-5.07-2.72-8.53-7.05-5.57-12.49Zm-221.62,7.92c0-.12.12-.25.37-.25.12,0,.12.12.12.12l22.76,74.7c.12.49.49.74.99.74h35.25c.49,0,.74-.25.74-.62l23.13-108.34c0-.25-.12-.49-.37-.49h-26.59c-.37,0-.74.25-.87.62l-15.34,75.19c0,.12-.12.25-.25.12-.12,0-.12-.12-.12-.12l-22.38-75.32c-.12-.37-.37-.49-.74-.49h-35.49c-.49,0-.74.25-.87.62l-23.25,108.21c-.12.49.12.74.62.74h26.34c.49,0,.74-.25.87-.74l15.09-74.7Zm145.19,28.32c.25,0,.37.25.37.37v.12l-9.52,46.01c0,.25.12.49.37.49h28.82c.25,0,.37-.12.37-.37l22.76-108.71c0-.25-.12-.49-.37-.49h-.12l-28.69-.12c-.25,0-.37.12-.37.37l-8.53,41.43c0,.25-.25.37-.37.37h-34.13c-.25,0-.37-.12-.37-.37v-.12l8.41-41.06c0-.25-.12-.49-.37-.49h-.12l-28.69-.12c-.25,0-.37.12-.37.37l-22.76,108.83c0,.25.12.49.37.49h28.82c.25,0,.37-.12.37-.37l9.65-46.38c0-.25.25-.37.37-.37h34.13v.12h0Z"></path><path class="cls-6" d="m665.57,335.4c-2.97,5.44.49,9.77,5.44,12.37,13.98,7.42,31.54,9.65,35.62,28.2,1.48,6.8.99,13.36-1.61,19.79-4.7,11.87-15.83,19.42-28.07,22.26-19.05,4.2-38.09,3.22-57.01-3.09-.37-.12-.49-.37-.37-.74l6.43-20.65c.12-.37.37-.49.74-.37,13.23,5.94,26.96,7.3,41.06,3.83,1.61-.37,3.34-1.36,5.19-3.09,8.9-7.92,1.36-16.45-6.93-19.66-6.18-2.35-12.37-5.07-18.3-8.16-9.65-4.95-13.85-13.11-13.73-23.99.12-11.75,5.32-20.78,15.34-27.21,14.1-9.03,36.73-8.66,53.06-6.55,5.19.62,9.77,1.73,13.73,3.34.49.12.62.49.49.99l-6.68,20.53c-.12.37-.37.49-.62.37-10.39-4.2-21.52-5.57-33.14-4.08-4.2.62-8.53,1.98-10.64,5.94Z"></path><path class="cls-6" d="m443.95,343.32l-15.09,74.7c-.12.49-.37.74-.87.74h-26.34c-.49,0-.74-.25-.62-.74l23.25-108.21c.12-.49.37-.62.87-.62h35.49c.37,0,.62.12.74.49l22.38,75.32c0,.12.12.25.25.12.12,0,.12-.12.12-.12l15.34-75.19c.12-.37.37-.62.87-.62h26.47c.25,0,.49.25.49.49v.12l-23.13,108.34c-.12.37-.37.62-.74.62h-35.25c-.49,0-.87-.25-.99-.74l-22.76-74.7c0-.12-.25-.25-.37-.12q-.12,0-.12.12Z"></path><path class="cls-6" d="m589.14,371.64h-34.13c-.25,0-.37.12-.37.37l-9.65,46.38c0,.25-.25.37-.37.37h-28.69c-.25,0-.37-.25-.37-.37v-.12l22.76-108.83c0-.25.25-.37.37-.37l28.69.12c.25,0,.37.12.37.37v.12l-8.41,41.06c0,.25.12.49.37.49h34.13c.25,0,.37-.12.37-.37l8.53-41.43c0-.25.25-.37.37-.37l28.69.12c.25,0,.37.25.37.37v.12l-22.76,108.71c0,.25-.25.37-.37.37h-28.69c-.25,0-.37-.25-.37-.37v-.12l9.52-46.01c0-.37-.12-.49-.37-.62h0Z"></path></g><g><path class="cls-4" d="m1545.76,288.12h13.85c.32,0,.53.21.53.53v109.33c0,.32-.21.53-.53.53h-13.85c-.32,0-.53-.21-.53-.53v-109.23c-.11-.32.21-.64.53-.64Z"></path><path class="cls-4" d="m1586.57,334.05c13.85-17.05,43.9-16.94,57.97-.64,14.17,16.41,12.89,45.08-4.58,58.72-15.24,11.83-41.99,11.3-54.35-4.69-.11-.11-.32-.21-.53,0q-.11.11-.11.21l-1.39,10.44c0,.32-.21.43-.53.43h-11.4c-.32,0-.53-.21-.53-.53v-109.33c0-.32.21-.53.53-.53h13.96c.21,0,.43.21.43.43h0v45.29c.11.53.21.64.53.21Zm51.26,24.62c.11-12.79-10.23-23.34-23.02-23.34h-5.75c-12.79-.11-23.34,10.23-23.34,23.02v4.48c-.11,12.79,10.23,23.34,23.02,23.34h5.75c12.79.11,23.34-10.23,23.34-23.02h0v-4.48Z"></path><path class="cls-4" d="m1514.22,398.95c-16.94,3.84-37.51-.64-49.13-14.6-.21-.32-.21-.53,0-.75l8.95-8.74c.32-.21.53-.21.85,0,10.23,10.66,22.8,14.49,37.51,11.4,5.65-1.17,12.36-7.46,7.89-13.32-2.98-3.94-11.62-5.11-16.41-5.33-7.14-.32-13.85-.96-20.03-2.13-12.15-2.24-21.1-9.27-18.22-22.91,5.01-23.98,37.72-24.08,55.09-17.58,4.69,1.7,8.74,4.37,12.25,7.89.21.21.21.53,0,.75l-9.06,8.84c-.21.21-.53.21-.85,0-4.05-3.73-9.27-6.29-15.66-7.46-6.93-1.39-20.46-1.17-25.36,4.26-3.09,3.41-3.2,7.99.43,11.19,2.13,1.81,8.52,2.88,12.25,3.2,11.19.85,19.82,1.28,28.03,3.73,15.66,4.58,17.69,23.66,7.14,33.99-3.62,3.41-8.84,5.97-15.66,7.57Z"></path><path class="cls-4" d="m1464.99,413.55c7.14,6.71,14.39,12.79,21.85,19.07.11.11.21.32,0,.53-.11.11-.21.11-.32.11h-147.69c-.32,0-.64-.32-.64-.64h0v-109.12c0-.32.21-.53.53-.53,25.79,0,47.31,11.3,65.43,28.03,21.63,19.71,43.16,46.03,60.85,62.55Z"></path><path class="cls-4" d="m1651.9,477.27c-58.08.75-115.41-17.58-160.27-54.67-.32-.21-.21-.32.11-.32h160.06c.32,0,.53.21.53.53h0v54.03c.11.21,0,.43-.43.43Z"></path></g><g><path class="cls-14" d="m112.95,966.45l35.34-74.76c0-.08.16-.16.24-.16h13.09c.16,0,.24.08.24.24v.08l-42.86,88.39c0,.08-.16.16-.24.16h-12.3c-.08,0-.16-.08-.24-.16l-30.87-61.44c-.08-.08,0-.24.08-.31h13.09c.08,0,.16.08.24.16l23.59,47.8c.08.08.16.16.31.08q.24,0,.31-.08Z"></path><path class="cls-14" d="m61.23,918.49h12.93c.16,0,.24.08.24.24v.16l-30.87,61.44c-.08.08-.16.16-.24.16h-12.22c-.08,0-.16-.08-.24-.16L.03,918.88c-.08-.16,0-.31.08-.31h13.09c.08,0,.16.08.24.16l23.59,47.8c.08.16.24.16.31.16s.08-.08.16-.16l23.51-47.8c.08-.16.16-.24.24-.24Z"></path><path class="cls-14" d="m127.84,1007.43h-13.4l42.71-88.47c.16-.24.39-.39.63-.39h11.83c.24,0,.39.08.47.31l30.64,61.04c.24.39.08.63-.39.63h-12.46c-.31,0-.55-.16-.63-.39l-23.19-47.25c-.24-.47-.47-.47-.63,0l-35.58,74.52Z"></path><path class="cls-14" d="m215.76,940.36c1.41,6.35,9.01,6.27,14.58,6.19,7.99-.24,15.83-.71,23.27,2.66,7.84,3.53,9.95,11.28,8.07,19.12-2.59,10.74-13.71,11.99-22.8,11.91-9.17,0-18.41-.08-27.58-.08-.31,0-.47-.16-.63-.39l-4-8.07c-.16-.31-.08-.39.24-.39,11.6,0,23.12,0,34.64-.08,3.37,0,7.99-1.57,9.17-5.17,2.43-7.29-4.07-10.19-10.11-10.34-5.64-.16-11.36-.24-17-.39-6.35-.08-11.44-2.12-15.36-5.96-3.68-3.68-4.15-9.95-3.21-14.97,1.96-10.19,12.3-12.54,21.31-12.62,10.97-.08,21.94-.16,32.99-.16.24,0,.39.16.39.39v7.99c0,.24-.24.47-.47.47-11.6.08-23.12.16-34.71.39-5.56.16-10.03,3.6-8.78,9.48Z"></path><path class="cls-14" d="m295.3,930.72h-25.62c-.16,0-.31-.16-.31-.31v-8.38c0-.16.16-.31.31-.31h62.77c.16,0,.31.16.31.31v8.38c0,.16-.16.31-.31.31h-25.62c-.16,0-.31.16-.31.31v49.05c0,.16-.16.31-.31.31h-10.27c-.16,0-.31-.16-.31-.31v-49.05c0-.16-.16-.31-.31-.31Z"></path></g><g><g><path class="cls-6" d="m1451.32,84.64h-5.8c-.6,0-.6-1-.6-1.8s0-1.8.6-1.8h5.8v-10.2c0-.5,1.3-.5,2.2-.5,1,0,2.2,0,2.2.5v10.2h9.9c.5,0,.5.9.5,1.8,0,1,0,1.8-.5,1.8h-9.9v31.3c0,1.3.1,3.7,3.2,3.7h6.7c.5,0,.5,1,.5,1.7,0,.8,0,1.8-.5,1.8h-7.6c-5.2,0-6.6-3.1-6.6-7.6l-.1-30.9h0Z"></path><path class="cls-6" d="m1473.22,103.74v4.1c0,9,6,12.4,12.2,12.4s9.9-1.8,13-3.4c.5-.2,1,.8,1.4,1.5s1,1.8.4,2.1c-4.1,2.3-7.3,3.7-14.7,3.7-10.5,0-16.7-5.9-16.7-15.9v-13.2c0-10.3,5.3-15.7,15.8-15.7s16.2,5.3,16.2,15.5v9c.2-.1-21.6-.1-27.6-.1Zm23.5-8.3c0-9-5.7-12.3-12-12.3s-11.5,3.3-11.5,12.3v4.4h23.5v-4.4Z"></path><path class="cls-6" d="m1507.62,115.44v-50.4c0-.5,1.4-.5,2.2-.5s2.1,0,2.1.5v51c0,1.3.1,3.7,3.2,3.7h2.8c.5,0,.5,1,.5,1.7,0,.8,0,1.8-.5,1.8h-3.7c-5.1-.1-6.6-3.2-6.6-7.8Z"></path><path class="cls-6" d="m1525.42,103.74v4.1c0,9,6,12.4,12.2,12.4s9.9-1.8,13-3.4c.5-.2,1,.8,1.4,1.5s.9,1.8.4,2.1c-4.1,2.3-7.3,3.7-14.7,3.7-10.5,0-16.7-5.9-16.7-15.9v-13.2c0-10.3,5.3-15.7,15.8-15.7s16.3,5.3,16.3,15.5v9c.1-.1-21.7-.1-27.7-.1Zm23.5-8.3c0-9-5.7-12.3-12-12.3s-11.5,3.3-11.5,12.3v4.4h23.6l-.1-4.4h0Z"></path><path class="cls-6" d="m1588.02,123.44c-.8,0-2.1,0-2.1-.5v-28.2c0-9-3.3-11.6-9.5-11.6s-12.2,9.6-12.2,9.6v30.2c0,.5-1.4.5-2.1.5-.8,0-2.2,0-2.2-.5v-42.8c0-.5,1.4-.5,2.2-.5s2.1,0,2.1.5v7.6c1.6-2.1,5.3-8.6,13.3-8.6s12.8,5.2,12.8,13.3v30.5c-.2.5-1.5.5-2.3.5Z"></path><path class="cls-6" d="m1596.72,108.54v-13.8c0-10.3,6-15.5,16.5-15.5s16.6,5.3,16.6,15.5v13.8c0,10.3-6.1,15.5-16.6,15.5s-16.5-5.1-16.5-15.5Zm16.5-25.4c-6.1,0-12.3,3.3-12.3,12.3v12.4c0,9,6.1,12.4,12.3,12.4s12.4-3.3,12.4-12.4v-12.4c0-9-6.1-12.3-12.4-12.3Z"></path><path class="cls-6" d="m1644.12,89.14c-1.9,2.4-3.9,5.2-3.9,5.2v28.6c0,.5-1.4.5-2.1.5-.8,0-2.1,0-2.1-.5v-42.8c0-.5,1.3-.5,2.1-.5s2.1,0,2.1.5v9.6s2.2-3.2,3-4.3c3.1-4.2,5.1-5.6,8.9-5.6h1.6c.5,0,.5,1.5.5,2.3s0,2.3-.5,2.3c-4.8,0-6.2.4-9.6,4.7Z"></path></g><path class="cls-5" d="m1350.42,70.44c.9-.7,3.3-2.5,3.7-2.7.6-4,2-10.6,5.3-17.5,3.6-7.4,9.3-15.5,17.2-20.9,6.7-4.5,17.7-9.5,26.2-11.3,7-1.5,13.5-1.8,19.1-1.3,11.5,1,17.9,4.3,21.1,8.6,1.2,1.6,1.9,3.6,1.9,4.8.1,2.1-.9,4.9-3.9,7.6-3,2.6-9.2,5.9-17.8,8.8-8.9,3-21.1,6.1-33.2,8.9-10.2,2.3-18.4,5-23.2,6.8-1.4.5-2.4,1-3.6,1.5-.8,1.8-2.5,6.7-3,9.3,8.9,3.6,14.7,8.3,19.2,11.9,5.8,4.8,12.5,10.3,20.8,20.5,7.6,9.2,19.9,26.9,24.4,44.1,4.9,18.8,1.8,36.7-8.8,41.7-10.4,4.9-24.3-2.2-34.1-12.3-9.3-9.7-15.8-21-21.8-38.5-5.2-15.1-7.4-36.9-7.4-48.3,0-3.8,0-6.1.1-9.5-4.3-2.7-9.3-2.6-14.9.7-10.3,5.9-20.9,18.7-26.6,25.4-2.5,2.9-5.8,7.2-9.4,11.7-4.7,5.9-9.8,12.1-14.6,15.5-7.1,5.2-18.5,7.3-26.4,1.6-4.4-3.2-6.8-9.2-6.9-15.3-.1-4.3,1-8.2,3.2-12,2.7-4.7,7.1-9.8,14-15.6,7.2-6,18.7-12.7,30.3-17.3,17.6-6.9,36.5-9.2,49.1-6.9h0Z"></path></g><g><path class="cls-2" d="m810.54,945.01h91.21c.16,0,.31.16.31.31h0v8.38c0,.16-.16.31-.31.31h-91.21c-.16,0-.31.16-.31.31v15.28c0,.16.16.31.31.31h91.21c.16,0,.31.16.31.31h0v8.54c0,.16-.16.31-.31.31h-100.22c-.16,0-.31-.16-.31-.31h0v-58.54c0-.16.16-.31.31-.31h100.22c.16,0,.31.16.31.31h0v8.54c0,.16-.16.31-.31.31h-91.13c-.16,0-.31.16-.31.31l-.08,15.28c0,.24.16.31.31.31Z"></path><path class="cls-9" d="m971.57,948.54l24.84-28.52q.08-.08.16-.08h11.6c.16,0,.24.08.24.24,0,.08,0,.16-.08.16l-30.64,35.11c-.08.08-.08.24,0,.31l7.84,8.93c.08.08.24.16.39,0h0l39.18-44.74q.08-.08.16-.08h11.6c.16,0,.24.08.24.24,0,.08,0,.16-.08.16l-51.25,58.77c-.08.08-.24.16-.39,0h0l-13.79-16.22c-.08-.08-.24-.16-.39,0h0l-13.71,16.22c-.08.08-.24.16-.39,0h0l-51.33-58.69c-.08-.08-.08-.24,0-.39q.08-.08.16-.08h11.52c.08,0,.16,0,.16.08l39.18,44.74c.08.08.24.16.39,0h0l7.84-8.93c.08-.08.08-.24,0-.31l-30.64-35.11c-.08-.08-.08-.24,0-.39q.08-.08.16-.08h11.52c.08,0,.16,0,.24.08l24.84,28.52c.16.16.31.16.47.08h0Z"></path><path class="cls-2" d="m1118.26,969.7c7.84,0,10.19-10.81,3.29-14.42-1.33-.63-3.13-1.02-5.56-1.02h-64.1c-5.8,0-11.44-3.6-14.5-8.54-5.96-9.72-.63-22.49,10.34-25.31,1.49-.39,3.76-.55,6.9-.55h80.08c.24,0,.39.16.39.39v8.62c0,.24-.16.39-.39.39h-82.36c-2.74,0-4.94.94-6.43,2.9-2.9,3.76-1.8,9.48,2.43,11.75,1.33.71,3.37,1.1,6.19,1.1,21.08.24,42.16.24,63.16,0,11.6-.16,19.98,11.13,16.3,22.41-1.72,5.25-5.17,8.78-10.34,10.58-2.19.78-5.72,1.1-10.58,1.1h-77.89c-.24,0-.39-.16-.39-.39v-8.38c0-.39.16-.55.55-.55,27.74-.08,55.4-.08,82.91-.08Z"></path></g><path class="cls-10" d="m24.18,379.27c1.39,22.91,22.91,36.12,44.01,26.11,4.9-2.34,8.52-6.07,10.76-11.3.11-.32.43-.53.85-.53h24.19c.43,0,.75.21.96.64,7.25,17.26,29.41,18.12,43.48,9.7,18.75-11.19,27.81-36.87,28.88-57.86,0-.32.21-.53.53-.53h22.91c.21,0,.43.21.43.43h0c-1.6,15.34-6.07,29.62-13.43,43.16-.21.32-.21.75.11.96l32.5,35.7c.11.11.11.21,0,.21h-31.44c-.43,0-.75-.11-1.07-.43l-14.39-15.98c-.43-.43-.75-.43-1.17,0-15.13,14.49-32.93,20.67-53.39,18.33-11.3-1.28-20.46-5.33-28.45-12.89-.21-.21-.53-.21-.85,0-11.51,10.34-25.26,14.71-41.13,13.21-14.39-1.39-25.89-7.03-34.53-17.05-16.3-18.65-18.44-49.76-5.75-70.97,9.48-15.98,26.85-24.94,45.4-24.4,18.22.53,33.35,9.16,42.09,25.26,1.07,2.02,2.34,5.22,3.73,7.89.21.43.43.43.85.21,3.94-2.56,8.1-4.58,12.57-6.07.43-.11.53-.43.21-.75-8.1-10.23-15.98-21.53-14.71-35.27,2.02-22.16,24.94-30.8,44.65-28.77,7.57.75,14.07,2.77,19.71,5.97,10.12,5.75,14.81,17.16,13.85,28.35-1.39,16.09-13.75,28.67-28.45,35.06-10.23,4.37-18.33,7.67-24.4,9.91-8.95,3.3-17.48,11.08-20.14,20.89-.11.32-.21.43-.53.43H24.5c-.11-.11-.32,0-.32.43Zm117.11-83.12c-8.1-1.17-17.69,2.66-18.44,11.51-.75,8.84,7.35,19.71,13.85,25.79.21.21.53.21.75.11,8.74-3.73,17.26-12.36,16.94-22.48-.21-8.63-4.58-13.64-13.11-14.92Zm-116.79,65.54l55.2-.11c.11,0,.21-.11.21-.21h0v-.11c0-15.03-12.47-27.07-27.71-27.07h-.32c-15.24,0-27.6,12.15-27.6,27.17h0v.11c0,.11.11.21.21.21h0Z"></path><g><path class="cls-6" d="m22.46,632c-2.4,5.6-4.3,11.7-5.6,18.3-8,42.5,13.9,85,53.1,102.7,30.3,13.7,65.7,10,92.4-9.6,40-29.3,50.1-83.2,23.9-125.5-.2-.3-.2-.6.1-.8l10-10.2c.3-.3.5-.2.7.1,24.8,36.2,25.1,83.7,1.5,120.1-30.5,47-92.6,63.4-142.1,36.2-38.6-21.2-60.3-62.7-55.9-106.9,5-50.2,46.2-90.9,96.3-96.1,25.8-2.7,49.8,3.5,72.1,18.4.3.2.3.5.1.7l-10,10c-.3.3-.6.3-.9.1-49.9-30.7-112.5-10.8-135.7,42.5Z"></path><path class="cls-6" d="m196.16,595.5l-14.6,14.6c-.3.3-.6.3-.8,0-4.4-5.5-9.3-10.4-14.8-14.8-.2-.2-.2-.4-.1-.6h0l14.7-14.8c.2-.2.1-.4,0-.6h0c-5.5-4.5-11.4-8.5-17.6-12-.8-.5-1.1-1.5-.7-2.4.3-.6.9-.9,1.5-.9h47.5c.4,0,.6.2.6.6v48.3c0,.3-.2.5-.4.6-1.4.5-2.4.2-3-.9-3.9-6.7-7.8-12.4-11.6-17-.3-.3-.5-.3-.7-.1Z"></path><path class="cls-6" d="m92.26,666.9c0,5.6-6.1,10-13.6,10h0c-7.5,0-13.6-4.5-13.6-10.1h0c0-5.6,6.1-10,13.6-10h0c7.6.1,13.6,4.6,13.6,10.1h0Zm-13.7,7.1c2.6,0,4.7-3.1,4.8-7h0c.1-3.9-2-7.1-4.5-7.2h0c-2.6,0-4.7,3.1-4.8,7h0c-.1,3.9,2,7.1,4.5,7.2Z"></path><path class="cls-6" d="m189.16,667c0,5.6-6.1,10-13.6,10s-13.6-4.6-13.5-10.1c0-5.6,6.1-10,13.6-10s13.6,4.5,13.5,10.1Zm-13.7,7c2.6,0,4.7-3.1,4.8-7h0c.1-3.9-2-7.1-4.6-7.2h0c-2.6,0-4.7,3.1-4.8,7,0,4,2,7.2,4.6,7.2Z"></path><path class="cls-6" d="m52.76,660.2l-2.6.1c-.3,0-.5-.2-.5-.5h0v-2c0-.3.2-.5.5-.5h12.3c.3,0,.5.2.5.5h0v1.8c0,.3-.2.5-.5.5l-3.7.1c-.2,0-.3.1-.4.3l-8.4,15.6c-.1.2-.3.3-.4.3l-9.6-.1c-.2,0-.3-.1-.4-.2l-8.5-15.6c-.1-.2-.3-.2-.4-.2l-3.6.1c-.3,0-.5-.2-.5-.5v-.1l.1-2c0-.3.2-.4.5-.4h17.9c.3,0,.5.2.5.5h0v2c0,.3-.2.5-.5.5h0l-3.3-.1c-.3,0-.5.2-.5.5,0,.1,0,.2.1.3l5.7,10.3c.1.2.4.3.6.2.1,0,.1-.1.2-.2l5.6-10.3c.1-.2,0-.5-.2-.6-.4-.3-.5-.3-.5-.3Z"></path><path class="cls-6" d="m111.06,673.1c5.1,1.3,8.5-.3,10-5,.2-.7,1-1.1,1.7-.9.6.2,1,.7,1,1.3l.1,7.1c0,.4-.2.6-.6.6h-25c-.4,0-.6-.2-.6-.6v-1.7c0-.4.2-.6.6-.5l3.3.1c.4,0,.6-.2.6-.6v-12c0-.4-.2-.6-.6-.6l-3.2.1c-.4,0-.6-.2-.6-.6l-.1-1.9c0-.4.2-.5.5-.5l16.4.1c.3,0,.6.3.6.6v1.4c0,.3-.2.6-.6.6l-3.3.2c-.4,0-.5.2-.5.6v12s.1.2.3.2Z"></path><path class="cls-6" d="m137.86,660.9l5.7,10.4c.1.2.4.3.6.2.1,0,.1-.1.2-.2l5.6-10.3c.1-.2,0-.5-.2-.6-.1,0-.1-.1-.2-.1l-2.6.1c-.3,0-.5-.2-.5-.4h0v-2c0-.3.2-.5.5-.5h12.2c.3,0,.5.2.5.5v1.9c0,.3-.2.5-.5.5h-3.7c-.2,0-.3.1-.4.2l-8.4,15.6c-.1.2-.2.2-.4.2l-9.6-.1c-.2,0-.3-.1-.4-.2l-8.5-15.5c-.1-.1-.2-.2-.4-.2l-3.7-.2c-.2,0-.4-.2-.4-.4l-.1-1.8c0-.3.2-.5.4-.5h18.1c.3,0,.5.2.5.5h0v2c0,.3-.2.5-.5.5h0l-3.4-.1c-.3,0-.5.2-.5.4.1-.1.1,0,.1.1Z"></path></g><g><path class="cls-7" d="m922.5,225.04h47.74l47.42,81.52c.11.32.53.32.75.21.11,0,.11-.11.21-.21l47.53-81.52h47.21v1.07l-94.95,162.72c-.11.21-.32.21-.53.11-.11,0-.11-.11-.11-.11l-95.27-163.79Z"></path><path class="cls-6" d="m1039.4,445.62h-10.87c-6.82-3.41-10.87-10.12-8.95-17.69,1.81-7.03,9.48-12.15,16.73-10.87,15.13,2.77,16.84,21.85,3.09,28.56Zm7.14-13.96c0-6.93-5.65-12.68-12.68-12.68h0c-6.93,0-12.68,5.65-12.68,12.68h0c0,6.93,5.65,12.68,12.68,12.68s12.68-5.65,12.68-12.68Z"></path><path class="cls-6" d="m981.32,445.62h-.53l-15.88-27.17c-.32-.53-.11-.85.43-1.07.43-.11.85,0,1.28.21.32.21.64.43.85.85,4.26,7.57,8.74,15.13,13.21,22.59.32.43.53.43.75,0,4.58-7.57,8.95-15.24,13.32-22.8.53-.85,1.28-1.17,2.24-.85.43.11.43.32.32.75l-15.98,27.49Z"></path><path class="cls-6" d="m1016.6,445.62h-15.88v-27.49c0-.43.21-.64.64-.64l14.92-.11c.43,0,.75.32.75.75v.85c0,.53-.21.75-.75.75h-12.89c-.43,0-.53.21-.53.64v9.16c0,.43.21.53.53.53h10.76c.53,0,.85.32.85.85v.43c0,.75-.32,1.07-1.07,1.07h-10.66c-.32,0-.53.21-.53.53v10.12c0,.32.21.53.53.53h12.89c.43,0,.85.32.96.85-.11.43-.21.85-.53,1.17Z"></path><path class="cls-6" d="m1071.79,445.62h-2.66l-13.75-23.66c-.11-.21-.43-.32-.64-.21-.11.11-.21.21-.21.43l.11,23.44h-2.02v-26.75c0-.85.75-1.6,1.6-1.6.53,0,1.07.32,1.39.85l13.64,23.44c.11.11.21.21.32.11.11,0,.11-.11.11-.21l-.11-22.8c0-.53.21-.85.75-.96.53-.21.96-.11,1.28.11.21.21.32.53.43,1.07.11,8.95,0,17.8-.21,26.75Z"></path></g><g><path class="cls-6" d="m1092.87,112.87h-6.2c-.4,0-.5-.2-.5-.5v-6.8c0-.3.2-.5.5-.5h15.4c.4,0,.6.2.6.6v11.7c-.1,6.5-.2,10.3-.5,11.6-3.2,14.4-24.4,15.5-29.4,2.1-.9-2.4-1.3-6.3-1.3-11.8.1-8.7.1-17.4,0-26.1,0-1.6.3-3.6,1-6.1,5-18.1,32.2-13.8,30.5,6.7,0,.3-.2.5-.5.5h-8.4c-.4,0-.6-.2-.6-.6,0-4.5-.4-8.8-6.3-8.8s-6.3,3.7-6.3,8.7c0,10.5,0,21.1.1,31.6,0,4.1,2,6.2,6,6.4,4.5.2,6.3-2.5,6.5-6.8.2-3.8.2-7.6,0-11.3,0-.4-.2-.6-.6-.6Z"></path><path class="cls-6" d="m532.77,76.37c6.5,0,16.5-1,21.8,1.6,7.5,3.8,8.6,14.2,7.7,21.8-.9,7-4.2,13.4-11.1,15.1-1.2.3-4.1.4-8.6.4-.3,0-.5.2-.5.5v23.9c0,.3-.2.5-.5.5h-8.8v-63.8Zm9,9.1l.1,20.4c0,.4.3.7.7.7h4.8c3.6,0,6.5-3,6.5-6.7v-8.5c0-3.7-3-6.7-6.6-6.7h-4.8c-.4.1-.7.4-.7.8Z"></path><path class="cls-6" d="m592.77,110.47c-.3.1-.4.4-.3.7l9.7,28.4c.1.4,0,.6-.4.6h-8.5c-.4,0-.6-.2-.7-.5l-8.4-26.4c-.1-.3-.4-.5-.7-.5h-4.3c-.4,0-.6.2-.6.6v26.2c0,.3-.3.6-.6.6h-8.1c-.4,0-.5-.2-.5-.6v-62.6c0-.3.1-.5.4-.5,9-.4,14.9-.4,17.9,0,6.4,1,10.3,4.7,11.8,10.9,1.9,8.2,1.4,18.5-6.7,23.1Zm-14.6-25.2v18.6c0,.4.4.8.8.8h5.5c3.6,0,6.6-3.2,6.6-7.1v-6c0-3.9-2.9-7.1-6.6-7.1h-5.5c-.5,0-.8.4-.8.8h0Z"></path><path class="cls-6" d="m617.77,130.97l17.6-.2c.2,0,.4.2.4.4h0v8.6c0,.2-.2.4-.4.4h-26.6c-.2,0-.4-.2-.4-.4h0v-63c0-.2.2-.4.4-.4h26.6c.2,0,.4.2.4.4v7.9c0,.2-.2.4-.4.4l-17.6-.2c-.2,0-.4.2-.4.4h0v18c0,.2.2.4.4.4h15.1c.2,0,.4.2.4.4v7.8c0,.2-.2.4-.4.4h-15.2c-.2,0-.4.2-.4.4v18c.1.1.3.3.5.3h0Z"></path><path class="cls-6" d="m651.37,84.87h-9.7c-.2,0-.4-.2-.4-.4v-7.8c0-.2.2-.4.4-.4h29.7c.2,0,.4.2.4.4v7.8c0,.2-.2.4-.4.4l-10-.1c-.2,0-.4.2-.4.4v54.4c0,.2-.2.4-.4.4h-8.4c-.2,0-.4-.2-.4-.4v-54.4c0-.1-.2-.3-.4-.3Z"></path><path class="cls-6" d="m687.77,84.87l-9.8.1c-.2,0-.4-.2-.4-.4h0v-7.7c0-.2.2-.4.4-.4h29.6c.2,0,.4.2.4.4v7.7c0,.2-.2.4-.4.4h0l-9.7-.1c-.2,0-.5.2-.5.4h0v54.4c0,.2-.2.4-.4.4h-8.2c-.2,0-.4-.2-.4-.4h0v-54.3c-.1-.3-.3-.5-.6-.5h0Z"></path><path class="cls-6" d="m729.47,101.07l7.1-24.2c.1-.3.3-.5.6-.5h8.8c.2,0,.3.1.2.3-3.6,10.9-7.3,21.8-11.1,32.7-.7,2.1-1.1,4.2-1.1,6.3-.2,7.9-.2,15.9-.1,23.8,0,.4-.2.6-.6.6h-8.2c-.4,0-.6-.2-.6-.6,0-7.8.1-15.5.1-23.2,0-2-.3-3.9-.9-5.7-3.9-11.2-7.8-22.5-11.8-33.7-.1-.4,0-.5.4-.5h8.5c.4,0,.7.2.8.6l6.8,24.1c.5,1.1.8,1.1,1.1,0Z"></path><path class="cls-6" d="m762.77,130.87l17.5-.1c.2,0,.3.1.3.3h0l.1,8.7c0,.2-.1.3-.3.3h-26.7c-.2,0-.3-.1-.3-.3h0v-63.1c0-.2.1-.3.3-.3h8.5c.2,0,.3.1.3.3v53.8c0,.2.1.4.3.4h0Z"></path><path class="cls-6" d="m786.77,76.37h8.4c.2,0,.4.2.4.4v62.9c0,.2-.2.4-.4.4h-8.4c-.2,0-.4-.2-.4-.4v-62.9c0-.2.2-.4.4-.4Z"></path><path class="cls-6" d="m819.77,85.27v54.4c0,.2-.2.4-.4.4h0l-8.6.1c-.2,0-.4-.2-.4-.4v-54.5c0-.2-.2-.4-.4-.4h0l-9.6.2c-.2,0-.4-.2-.4-.4h0v-7.8c0-.2.2-.4.4-.4h29.6c.2,0,.4.2.4.4l.1,7.8c0,.2-.2.4-.4.4h0l-10-.1c-.1-.1-.3.1-.3.3Z"></path><path class="cls-6" d="m855.17,85.27v54.4c0,.2-.2.4-.4.4h-8.5c-.2,0-.4-.2-.4-.4v-54.4c0-.2-.2-.4-.4-.4h0l-9.6.1c-.2,0-.4-.2-.4-.4h0v-7.8c0-.2.2-.4.4-.4h29.6c.2,0,.4.2.4.4h0v7.8c0,.2-.2.4-.4.4h0l-9.9-.1c-.3,0-.4.2-.4.4h0Z"></path><path class="cls-6" d="m880.57,130.77l17.3-.1c.3,0,.5.2.5.5h0l.1,8.4c0,.3-.2.5-.5.5h-26.4c-.3,0-.5-.2-.5-.5h0v-62.7c0-.3.2-.5.5-.5h8.1c.3,0,.5.2.5.5h0v53.5c-.1.2.1.4.4.4h0Z"></path><path class="cls-6" d="m913.37,112.57v18.1c0,.2.2.4.4.4l17.6-.1c.2,0,.4.2.4.4v8.6c0,.2-.2.4-.4.4h-26.6c-.2,0-.4-.2-.4-.4h0v-63.3c0-.2.2-.4.4-.4h26.6c.2,0,.4.2.4.4v7.9c0,.2-.2.4-.4.4h-17.6c-.2,0-.4.2-.4.4v18c0,.2.2.4.4.4h15.2c.2,0,.4.2.4.4v7.8c0,.2-.2.4-.4.4h-15.2c-.3-.2-.4,0-.4.2Z"></path><path class="cls-6" d="m957.57,85.27v54.4c0,.2-.2.4-.4.4h-8.4c-.2,0-.4-.2-.4-.4h0v-54.4c0-.2-.2-.4-.4-.4l-9.6.1c-.2,0-.4-.2-.4-.4v-7.8c0-.2.2-.4.4-.4h29.7c.2,0,.4.2.4.4v7.8c0,.2-.2.4-.4.4h-10c-.3-.1-.5.1-.5.3Z"></path><path class="cls-6" d="m983.17,103.67h10.8c.2,0,.3-.1.3-.3h0v-26.6c0-.2.1-.3.3-.3h8.7c.2,0,.3.1.3.3h0v63.1c0,.2-.1.3-.3.3h-8.7c-.2,0-.3-.1-.3-.3h0v-28.1c0-.2-.1-.3-.3-.3h-11.2c-.2,0-.3.1-.3.3h0v28c0,.2-.1.3-.3.3h-8.7c-.2,0-.3-.1-.3-.3v-63.1c0-.2.1-.3.3-.3h9c.2,0,.3.1.3.3h0v26.6c.1.2.2.4.4.4Z"></path><path class="cls-6" d="m1012.77,76.37h8.5c.2,0,.4.2.4.4v63c0,.2-.2.4-.4.4h-8.5c-.2,0-.4-.2-.4-.4v-63c-.1-.2.1-.4.4-.4Z"></path><path class="cls-6" d="m1054.67,114.27v-37.6c0-.2.1-.3.3-.3h8.7c.2,0,.3.1.3.3h0v63.1c0,.2-.1.3-.3.3h-8.1c-.1,0-.3-.1-.3-.2l-13.9-37.6c-.1-.2-.3-.3-.4-.2-.1,0-.2.2-.2.3v37.3c0,.2-.1.3-.3.3h-8.6c-.2,0-.3-.1-.3-.3h0v-63c0-.2.1-.3.3-.3h8.4c.1,0,.3.1.3.2l13.6,37.8c.1.2.3.3.4.2,0-.1.1-.2.1-.3Z"></path></g><g><path class="cls-13" d="m428.42,668.07c0,23.84-19.38,43.22-43.22,43.22s-43.22-19.38-43.22-43.22,19.38-43.22,43.22-43.22,43.22,19.38,43.22,43.22Zm-4.11.18c0-21.61-17.5-39.21-39.21-39.21s-39.21,17.5-39.21,39.21h0c0,21.61,17.5,39.21,39.21,39.21h0c21.7,0,39.21-17.59,39.21-39.21Z"></path><path class="cls-13" d="m421.54,668.07c0,20-16.25,36.26-36.26,36.26s-36.26-16.25-36.26-36.26h0c0-20,16.25-36.26,36.26-36.26h0c20,0,36.26,16.25,36.26,36.26Zm-35.19-31.44c-.54-.54-1.43-.54-1.96,0h0l-30.81,30.81c-.54.54-.54,1.43,0,1.96h0l30.63,30.63c.54.54,1.43.54,1.96,0h0l30.81-30.81c.54-.54.54-1.43,0-1.96h0l-30.63-30.63Z"></path><path class="cls-13" d="m357.15,667.35l26.7-26.35c.89-.89,2.41-.89,3.3,0l26.17,26.17c.63.63.63,1.25,0,1.88l-27.06,26.88c-.71.71-1.96.71-2.68,0l-26.43-26.08c-.63-.71-.63-1.79,0-2.5h0Zm25.54,14.65c11.07-1.16,21.97-9.47,16.43-21.88-3.48-7.77-9.82-12.15-19.11-13.13-.18,0-.36.09-.36.27h0v41.88c0,.45.18.63.63.63l1.43-.09c.36,0,.54-.18.54-.54v-6.61c-.09-.27.09-.54.45-.54Z"></path><path class="cls-13" d="m454.67,681.47l.09,6.79c0,.36-.18.45-.45.45h-1.52c-.36,0-.54-.18-.54-.45v-41.88c0-.18.18-.36.36-.36h.09c10.72,1.25,17.5,6.97,20.45,17.15.27.98.27,2.32,0,4.02-1.34,8.75-10.18,13.04-18.13,13.93-.18-.09-.36.09-.36.36Zm15.81-17.5c-.89-7.77-8.13-13.49-15.18-15-.45-.09-.63.09-.63.54v28.58c0,.36.18.54.54.54,7.86-.54,16.34-5.63,15.27-14.65Z"></path><path class="cls-13" d="m498.17,648.96v10.72c0,.18.18.36.36.36l12.68.09c.18,0,.36.18.36.36v1.52c0,.18-.18.36-.36.36l-12.68.09c-.18,0-.36.18-.36.36v24.02c0,.18.18.36.36.36h19.2c.18,0,.36.18.36.36h0v1.79c0,.18-.18.36-.36.36h-21.79c-.18,0-.36-.18-.36-.36h0v-43.31c0-.18.18-.36.36-.36l21.79.18c.18,0,.36.18.36.36h0l-.09,1.52c0,.18-.18.36-.36.36h-19.2c-.09.54-.27.71-.27.89Z"></path><path class="cls-13" d="m775.55,689.77c-11.79-.54-20.99-10.72-20.45-22.77h0c.54-12.06,10.54-21.34,22.42-20.81,11.79.54,20.99,10.72,20.45,22.77h0c-.63,12.06-10.63,21.34-22.42,20.81Zm.98-2.41c10.45,0,19.02-8.57,19.02-19.29h0c0-10.63-8.39-19.38-18.93-19.38h0c-10.45,0-19.02,8.57-19.02,19.29h0c0,10.63,8.48,19.38,18.93,19.38h0Z"></path><path class="cls-13" d="m823.77,681.64v6.7c0,.27-.09.45-.45.45h-1.61c-.36,0-.54-.18-.54-.54v-41.88c0-.27.18-.45.45-.36,7.86.8,13.75,4.29,17.59,10.45,5.36,8.57,3.3,16.34-5.18,21.52-.27.18-.27.36-.09.63l7.59,9.02c.27.27.18.54-.09.8l-1.07.98c-.18.18-.54.18-.71-.09h0l-7.86-9.47c-.18-.18-.45-.27-.71-.27l-7.06,1.52c-.18.09-.27.27-.27.54Zm15.9-15.72c-.09-8.66-7.41-15.27-15.54-16.97-.18,0-.36.09-.36.27v29.11c0,.27.09.36.36.36,6.79-.63,15.63-5,15.54-12.77Z"></path><path class="cls-13" d="m879.23,648.87v39.74c0,.18-.09.27-.27.27h-1.79c-.18,0-.27-.09-.27-.27h0v-39.74c0-.18-.09-.27-.27-.27h-9.91c-.18,0-.27-.09-.27-.27v-1.96c0-.18.09-.27.27-.27h22.42c.18,0,.27.09.27.27v1.96c0,.18-.09.27-.27.27h-9.47c-.36,0-.45.09-.45.27Z"></path><path class="cls-13" d="m660.43,658.34l12.41-11.52c.18-.18.45-.18.63,0l1.16.98c.18.18.27.45.09.71v.09l-13.13,12.32c-.09.09-.18.18-.18.36v27.15c0,.27-.18.45-.45.45h-1.61c-.27,0-.54-.18-.54-.45h0v-27.24c0-.18-.09-.27-.18-.36l-13.31-12.23c-.18-.18-.18-.54,0-.71h0l1.07-1.07c.18-.18.45-.18.71,0l12.59,11.52c.27.18.54.18.71,0Z"></path><path class="cls-13" d="m597.3,653.16v35.36c0,.18-.09.27-.27.27h-1.96c-.18,0-.27-.09-.27-.27h0v-39.29c0-.18.09-.27.27-.27h.09l23.84,10.98c.18.09.36,0,.36-.18v-.09l-.09-11.97c0-.18.09-.27.27-.27h1.96c.18,0,.27.09.27.27v40.81c0,.18-.09.27-.27.27l-1.96.09c-.18,0-.27-.09-.27-.27h0v-25.63c0-.09-.09-.18-.18-.27l-21.52-9.82c-.18-.09-.36,0-.27.27,0-.09,0,0,0,0Z"></path><path class="cls-13" d="m701.87,685.57l12.77-11.52c.09-.09.27-.09.36,0l13.57,11.7c.09.09.27.09.45,0q.09-.09.09-.18v-37.87c0-.18.09-.27.27-.27h0l1.79.09c.18,0,.27.09.27.27v43.22c0,.18-.09.27-.27.27-.09,0-.18,0-.18-.09l-15.99-13.84c-.09-.09-.27-.09-.36,0l-15.27,13.93c-.09.09-.27.09-.45,0q-.09-.09-.09-.18v-43.49c0-.18.09-.27.27-.27h1.96c.18,0,.27.09.27.27v37.69c0,.18.09.27.27.27.09.09.18.09.27,0Z"></path><path class="cls-13" d="m941.39,647.53v41.44l-1.96-.09c-.36,0-.54-.18-.54-.54v-25.36c0-.27-.09-.36-.36-.36h-20.99c-.36,0-.45.18-.45.45v25.36c0,.36-.18.45-.45.45h-1.52c-.36,0-.54-.18-.54-.54v-40.37c0-.27.18-.45.45-.45h1.61c.27,0,.45.18.45.45v11.7c0,.27.18.45.45.45h20.9c.36,0,.54-.18.54-.54v-11.52c0-.27.18-.45.45-.54.71-.27,1.43-.18,1.96,0Z"></path><path class="cls-13" d="m545.23,653.16v35.36c0,.18-.09.27-.27.27l-1.96.09c-.18,0-.27-.09-.27-.27h0v-39.38c0-.18.09-.27.27-.27h.09l23.93,10.98c.18.09.36,0,.36-.18v-.09l-.09-11.88c0-.18.09-.27.27-.27h1.96c.18,0,.27.09.27.27h0v40.81c0,.18-.09.27-.27.27l-1.88.09c-.18,0-.27-.09-.36-.27h0v-25.54c0-.09-.09-.18-.18-.27l-21.61-9.82c-.18-.09-.36,0-.36.18.09-.18.09-.09.09-.09Z"></path><path class="cls-13" d="m382.61,649.94c8.04,1.43,16.43,9.38,15.27,18.04-.98,7.06-8.84,10.98-15.27,11.43-.36,0-.54-.18-.54-.45v-28.58c.09-.45.27-.54.54-.45Z"></path></g><g><path class="cls-1" d="m1323.83,942.94c1.64,14.13-1.81,26.52-10.35,37.18-15.42,19.22-43,23.76-63.92,10.73-21.52-13.41-29.04-41.22-17.46-63.81,4.28-8.34,10.64-14.97,19.08-19.89,18.64-10.61,42.07-7.91,57.68,6.79,8.26,7.78,13.26,17.45,14.98,29Zm-29.86,2.63l-24.1-.02c-.23,0-.42.19-.42.42l.03,7.66c0,.13.07.19.19.19h33.19c.15,0,.28-.12.3-.28,1.09-10.05-2.3-19.37-10.01-25.7-12.92-10.61-32.39-7.4-41.32,6.63-5.87,9.22-5.8,21.56.45,30.7,8.18,11.96,23.85,15.75,36.61,8.83.11-.06.15-.2.09-.31-.01-.02-.02-.04-.04-.05l-5.73-5.73c-.28-.28-.69-.38-1.07-.25-10.16,3.46-20.92-1.26-24.81-11.37-3.48-9.02.5-19.03,8.71-23.69,10.58-6.01,23.63-.6,27.67,10.46.27.73.45,1.46.55,2.19.02.16-.09.31-.25.33-.01,0-.02,0-.04,0Z"></path><path class="cls-12" d="m1293.98,945.57c.16,0,.29-.13.29-.29,0-.01,0-.02,0-.04-.1-.73-.28-1.46-.55-2.19-4.04-11.05-17.1-16.46-27.67-10.46-8.21,4.66-12.18,14.68-8.71,23.69,3.9,10.12,14.65,14.83,24.81,11.37.37-.13.79-.03,1.07.25l5.73,5.73c.09.09.09.23,0,.32-.02.02-.03.03-.05.04-12.77,6.92-28.43,3.13-36.61-8.83-6.24-9.14-6.31-21.48-.45-30.7,8.93-14.03,28.4-17.24,41.32-6.63,7.71,6.33,11.09,15.65,10.01,25.7-.02.15-.15.27-.3.27h-33.19c-.12,0-.19-.06-.19-.18l-.03-7.66c0-.23.19-.42.42-.42l24.1.02Z"></path><path class="cls-6" d="m1404.93,941.25c4.64-8.94,17.57-9.27,22.26-.21,1.1,2.12,1.65,4.65,1.66,7.59.02,6.78.02,13.56,0,20.34,0,.05-.04.08-.08.08h-6.79c-.08.01-.12-.03-.12-.11.01-6.16.01-12.33,0-18.51,0-4.35-1.35-8.42-5.93-9.58-4.68-1.19-9.3,1.84-10.88,6.2-.32.89-.48,2.09-.48,3.6,0,6.08,0,12.15,0,18.2,0,.13-.07.2-.2.2l-6.52.03c-.17,0-.31-.14-.31-.31h0s0-45.27,0-45.27c0-.13.07-.2.2-.2l6.69-.04c.07,0,.13.06.13.13h0s0,17.79,0,17.79c0,.49.11.52.34.08Z"></path><path class="cls-1" d="m1525.8,969.23c-5.32,1.57-13.09.39-15.9-5.13-.35-.69-.53-.65-.53.12l-.03,4.64c0,.11-.09.2-.21.2h-6.61c-.1,0-.19-.09-.19-.19v-17.9s-.03-27.52-.03-27.52c0-.14.11-.25.24-.25h6.57c.12,0,.22.09.22.22h0s.02,16.4.02,16.4c0,.9.22.96.67.18.9-1.58,2.25-2.87,4.06-3.86,4.45-2.45,9.94-2.25,14.4.05,7.52,3.86,10.57,11.87,8.96,19.99-1.29,6.47-5.17,10.82-11.65,13.04Zm-5.73-5.53c6.06,0,10.98-5.16,10.98-11.53s-4.91-11.53-10.98-11.53c-6.06,0-10.98,5.16-10.98,11.53h0c0,6.37,4.92,11.53,10.98,11.53h0Z"></path><path class="cls-1" d="m1629.14,949.29c0,.44.15.49.44.17,4.16-4.51,8.29-8.96,12.37-13.35.6-.64.95-.91,1.89-.89,2.38.05,4.77.04,7.16-.02.09,0,.17.07.18.16,0,.05-.02.09-.05.12l-13.68,14.43c-.06.06-.06.12,0,.18l16.74,18.75c.05.05.04.13,0,.18-.02.02-.06.03-.09.03h-7.79c-.14,0-.26-.06-.35-.16l-12.85-14.03c-.07-.07-.18-.08-.26,0,0,0,0,0,0,0l-3.48,3.57c-.13.14-.21.32-.21.51v10.01c0,.06-.05.11-.12.11h0l-6.86.05s-.06-.03-.06-.06v-45.65c0-.1.09-.18.19-.18h0l6.63.03c.11,0,.2.09.2.2h0s.01,25.82.01,25.82Z"></path><path class="cls-6" d="m1384.84,935.19h6.79c.13,0,.2.07.2.2l-.02,5.56c0,.1-.08.17-.17.17h-6.79c-.13-.01-.19.05-.19.18-.01,5.74-.01,11.47,0,17.19,0,1.58.11,2.61.33,3.1.99,2.27,4.69,1.53,6.6.78.09-.04.19,0,.23.1,0,.02.01.04.01.07v5.28c0,.29-.13.49-.41.59-3.54,1.27-8.98,1.72-11.86-1.05-1.25-1.19-1.87-2.74-1.88-4.65-.04-7.12-.04-14.24-.02-21.36,0-.12-.1-.22-.22-.22h0l-4.33.02c-.12,0-.18-.06-.18-.18l.02-5.52c0-.14.11-.25.25-.25l4.17.02c.16,0,.29-.13.29-.29v-8.13c0-.1.07-.19.18-.19h6.53c.17-.01.3.12.31.29,0,0,0,0,0,0v8.13c0,.11.06.16.17.16Z"></path><path class="cls-6" d="m1491.4,936.61c1.96,1.47,3.37,3.38,4.22,5.74.03.07,0,.14-.08.17,0,0,0,0-.01,0l-5.48,1.55c-.15.04-.27,0-.34-.14-1.36-2.53-3.03-4.03-6.07-3.78-4.91.41-5.34,5.9-.84,7.66,4.64,1.82,10.88,3.16,13.35,7.88,2.16,5.77-.35,11.24-6.1,13.25-7.58,2.64-16.17.33-18.49-8.11-.03-.12.03-.25.16-.28l5.21-1.62c.18-.06.3,0,.37.18,3.25,9.05,16.68,4.37,11.74-1.88-.49-.61-1.43-1.18-2.82-1.69-3.69-1.37-6.57-2.24-9.39-4.25-3.68-2.63-5-7.05-3.15-11.17,2.89-6.44,12.45-7.19,17.74-3.5Z"></path><path class="cls-6" d="m1368.36,964.64c-4.92,5.29-12.83,6.41-19.44,4.31-11.9-3.79-15.01-17.25-8.83-27.19,7.41-9.94,22.75-9.94,28.69,1.33,1.85,3.5,2.31,7.68,1.83,11.64-.01.1-.1.18-.2.18h-26.15c-.13,0-.23.11-.23.23,0,.02,0,.03,0,.05,1.27,6.3,6.28,9.08,12.42,8.75,3-.16,5.41-1.31,7.71-3.04.12-.09.22-.08.33.02l3.85,3.74Zm-10.48-23.37c-6.39-2.64-12.62,1.78-13.76,8.24-.02.13.03.2.17.2l19.65.02c.21,0,.29-.1.26-.31-.56-3.93-2.66-6.64-6.32-8.15Z"></path><path class="cls-6" d="m1451.32,969.98c-9.72,0-17.59-7.96-17.59-17.78h0c0-9.82,7.88-17.78,17.59-17.78h0c9.72,0,17.59,7.96,17.59,17.78h0c0,9.82-7.88,17.78-17.59,17.78h0Zm-.02-6.29c5.9.01,10.7-5.14,10.71-11.49h0c.01-6.36-4.76-11.52-10.67-11.53h0c-5.9-.01-10.7,5.14-10.71,11.49h0c-.01,6.36,4.76,11.52,10.67,11.53h0Z"></path><path class="cls-1" d="m1569.98,940.21l-.06-4.73c0-.11.09-.21.21-.21,0,0,0,0,0,0l6.34-.02c.36,0,.53.18.53.54v33.19c0,.05-.04.09-.09.09h-6.79c-.11,0-.17-.06-.17-.17-.04-1.63.16-3.23-.04-4.83-.05-.39-.17-.41-.36-.07-2.82,5.03-9.38,6.83-14.74,5.54-5.95-1.43-9.99-4.93-12.1-10.49-1.64-4.33-1.54-10.09.3-14.46,3.42-8.15,13.45-12.74,21.71-8.71,2.07,1.01,3.7,2.49,4.89,4.45.05.09.17.13.27.07.06-.04.1-.1.1-.18Zm-10.59,23.49c6.04-.04,10.91-5.24,10.86-11.61h0c-.04-6.37-4.98-11.5-11.02-11.46h0c-6.04.04-10.91,5.24-10.86,11.61h0c.04,6.37,4.98,11.5,11.02,11.46h0Z"></path><path class="cls-1" d="m1590.93,941.25c0,.07.06.13.13.13.05,0,.09-.03.11-.07,4.54-8.55,17.32-9.68,22.08-.66,1.22,2.31,1.84,4.78,1.87,7.41.07,6.96.1,13.9.11,20.81,0,.1-.08.19-.19.19h-6.65c-.16.01-.24-.07-.24-.23.02-6.23.04-12.43.05-18.59,0-3.32-.84-6.7-3.76-8.46-5.06-3.06-11.48.14-13.14,5.62-.25.83-.38,2.17-.39,4.03-.01,5.85,0,11.7.01,17.55,0,.06-.05.1-.1.1h0l-6.66.02c-.18,0-.28-.09-.28-.28l.02-33.45c0-.08.06-.14.14-.14h0l6.77.05c.08,0,.14.06.14.14h0s-.02,5.84-.02,5.84Z"></path></g></svg>