<?xml version="1.0" encoding="UTF-8"?> <svg xmlns="http://www.w3.org/2000/svg" xmlns:xlink="http://www.w3.org/1999/xlink" version="1.1" id="Layer_1" x="0px" y="0px" viewBox="0 0 500 690.4" style="enable-background:new 0 0 500 690.4;" xml:space="preserve"> <style type="text/css"> .st0{fill:#01411C;} </style> <g> <g> <path class="st0" d="M172.3,574.8c-2.5-1.6-2.9-4.1-2.9-6.8c0-5.8-0.3-11.6,0-17.4c0.2-3.5-1.2-5-4.4-5.8 c-10.1-2.7-20.4-4.4-30.8-5.8c-16.2-2.3-32.5-2.9-48.7-5c-10-1.3-20.2-2.6-29.7-6.6c-6-2.5-11.4-5.7-15.2-11.1 c-2.1-3-2.7-6.1-2.1-9.6c1.8-9.9,3.7-19.8,5.3-29.7c2.1-12.9,17.1-13.8,24.7-7.4c5.3,4.4,6.4,8.7,3.8,15.1 c-1.2,2.9-2.2,5.8-3.5,8.6c-1.1,2.3-0.4,3.3,2,3.5c5.9,0.6,11.9,1.5,17.8,1.8c12.1,0.6,23.9,2.8,35.9,4.4 c17,2.2,33.5,6.2,49.2,13.1c4.6,2,9.1,4.1,13.1,7.2c1.4,1.1,2.7,1.4,4.4,0.7c12.1-5,25-5.2,37.9-6.1c12-0.8,24.1-0.9,36.2-0.4 c14.6,0.6,29.3,1.6,43.1,7.2c1.1,0.5,2.1,0.4,3.1-0.3c11.9-8.6,25.6-12.9,39.5-16.5c12.5-3.3,25.4-4.8,38.2-6.8 c13.2-2.1,26.6-2.4,39.8-4c3.1-0.4,3.4-0.8,2.3-3.8c-1-2.5-2-5-3.1-7.4c-3.4-7.8-1.4-13.7,6.1-17.7c8-4.3,20.2-2.8,22.2,10.3 c1.5,10,3.4,20,5.1,30.1c0.4,2.6-0.3,4.9-1.6,7.1c-4,6.7-10.3,10.1-17.2,12.8c-9.7,3.8-19.9,4.8-30.1,6.1 c-14.7,1.9-29.6,2.4-44.3,4.5c-10.6,1.5-21,3.3-31.4,5.8c-5.2,1.2-5.2,1.3-5.1,6.5c0,6.1,0,12.2,0,18.3c0,2.2-0.2,4.2-2.4,5.3 c-1.2,0.4-2.9,0.9-4.8,1.1c-2.6,0.3-4.8-0.1-6.3-0.4c-11.9-3.5-21-10.7-26.7-21.8c-0.9-1.7-2.1-2.4-4.1-2.4 c-4.8,0.2-9.6,0.4-14.3,0.4c-18.9-0.1-37.9,0.6-56.8-0.4c-4.5-0.2-7.5,0.7-8.8,5.2c-0.2,0.8-0.9,1.6-1.4,2.3 c-6.3,8.2-14.4,13.9-24.4,17.1c-1.2,0.4-3.7,1.1-6.6,0.4C173.9,575.6,173,575.2,172.3,574.8z M155.1,538.7c5,0.1,7.4-1.9,8.4-6.9 c0.3-1.3,0.3-2.9,2.1-3.3c2.4-0.5,3.1-2.1,2.5-4.3c-0.6-2.1-2-3.5-4.4-3.2c-2.4,0.3-3,2.1-3,4.1c0,2.2-0.2,4.4-0.7,6.5 c-0.5,2.4-1.9,3.9-4.4,4.2c-1.8,0.2-3.1-0.2-2.3-2.4c0.7-2,0-3.5-1-5c-3.4-5-8.4-5.5-13.8-4.7c-1,0.1-2.1,0.5-2.8-0.4 c-0.7-1-0.3-2.1,0.3-3.1c0.2-0.4,0.5-0.8,0.8-1.3c1-1.5,0.5-2.2-1.2-2.2c-0.8,0-1.6,0-2.4,0c-2.2,0-2.8,0.8-1.4,2.7 c0.9,1.2,0.6,2.4,0.1,3.7c-1.4,3.2-7,5.5-11.6,4.8c-7.7-1.3-15.1-3.5-22.5-5.9c-10.5-3.4-20.4-8-28.7-15.4 c-2.1-1.8-4.3-1.6-6.7-0.4c-2.3,1.1-4.7,2.3-7,3.3c-1.7,0.8-5,0.6-4.4,2.8c0.4,1.7,3.4,0.2,5.1-0.3c2.1-0.6,3.8-0.6,5.3,1.3 c2.6,3.2,5.3,3.5,8.9,1.2c1.5-1,2.7-0.9,4.1,0c10.6,7,22.5,10.9,34.7,14c12.8,3.1,25.8,4.8,38.4,8.8 C149.7,538,152.3,538.7,155.1,538.7z M323.3,573.9c1.9,0,3.4,0.1,4.2-1.3c1-1.6-0.1-2.9-1.1-4c-7.7-9.5-17.8-15-29.8-17.1 c-0.8-0.1-1.7-0.5-2.2,0.3c-0.7,0.9,0.1,1.7,0.5,2.4c2.9,5.4,7.3,9.3,12.3,12.7C312.3,570.2,317.6,573.1,323.3,573.9z M177,573.9 c0.4-0.1,1-0.2,1.6-0.4c9.5-2.1,17-7.5,23.4-14.6c1.3-1.4,2.3-3,3.3-4.6c0.5-0.8,1.5-1.7,0.8-2.7c-0.6-0.9-1.7-0.2-2.5-0.2 c-0.5,0-1,0.1-1.5,0.2c-10.9,2.7-20.2,8.1-27.6,16.7c-0.8,0.9-1.6,1.9-0.9,3.2C174.3,572.8,175.2,573.8,177,573.9z M272.3,532.5 c5,0.4,8.5-1.6,11.7-4.5c0.9-0.8,1.9-0.7,2.3,0.6c0.5,1.6,1.5,2.8,3,1.8c1.8-1.2,1.1-3.3,0.7-5c-0.4-1.6-1.8-1.7-3.1-1 c-1.6,0.9-3.1,1.8-4.5,2.9c-3.1,2.4-6.1,4.6-10.2,1.9c-1.3-0.9-2.7-0.3-3.7,1c-1.2,1.5-0.2,2.7,0.8,3.7c1.8,1.8,3.8,3.5,5.7,5.3 c0.6,0.6,1.8,1,1.2,2.1c-0.4,0.9-1.4,0.4-2.2,0.3c-9-1.5-18.1-0.9-27.1-0.4c-6.7,0.3-13.5,1.6-20.2,0.2c-5.8-1.2-9.1-4.6-9.9-10.4 c-0.2-1.1,0.1-2.7-1.6-2.6c-1.8,0.1-1.8,1.6-1.8,2.9c-0.1,5.7,3.3,9.9,8.9,11.6c7.7,2.3,15.4,0.5,23.1,0.3 c5.1-0.1,10.1-0.9,15.2-0.4c4.8,0.4,9.5,0.9,14.3,1.1c2.1,0.1,4.6,0.1,5.6-2c1.1-2.4-1.3-3.7-2.8-5 C275.9,535.5,273.9,534.7,272.3,532.5z M442.2,468.7c-5.3-0.3-9.1,2.2-12.1,6.3c-1.6,2.2-1.6,4.4-0.1,6.7c1.3,1.9,3.2,2.5,5.5,2.2 c2.7-0.4,5.3-1,7.8-2c1.6-0.6,2.7-0.2,3.3,1.4c0.4,1,0,2.8,1.5,2.9c1.4,0.1,2-1.5,2.6-2.6c0.6-1,1.2-2.1,1.6-3.2 c2.1-5.9-1-10.9-7.2-11.6C444.2,468.8,443.2,468.8,442.2,468.7z M55.3,468.8c-7.4-0.1-11.1,6.1-6.4,14.5c0.2,0.3,0.4,0.7,0.6,1 c0.6,0.9,1,2.3,2.2,2.1c1.2-0.2,1.4-1.6,1.6-2.6c0.5-2.4,1.7-2.8,3.9-1.9c2.1,0.9,4.3,1.5,6.6,1.6c2.3,0.1,4.8,0.6,6.1-2 c1.3-2.6,0.9-5.2-0.8-7.6C66.2,469.8,62,468.8,55.3,468.8z M389.8,522.6c2.4,0.6,4.6-0.1,6.5-1.4c1.8-1.1,3.4-1.3,5.3-0.2 c3.7,2.1,7.6,2.1,10.9-0.5c2.7-2.1,5.5-3,8.9-3.1c3.2-0.1,6.3-1.8,7.3-5.2c0.8-2.7-0.6-5.1-2.6-6.9c-1.2-1-2.8-1.9-4-0.6 c-1.1,1.3,0.8,1.9,1.5,2.6c2.1,2,2.1,4.2,0.9,6.5c-1.2,2.4-3.2,3-5.8,2.2c-3.2-1-6-2.6-8.7-4.6c-2.3-1.7-4.4-1.7-6.4,0.4 c-0.8,0.9-1.8,1.6-2.5,2.6C398.5,518.6,394.8,521.4,389.8,522.6z M353.8,535.1c4.3,0.2,8.1-0.8,11.6-3.2 c6.3-4.3,6.7-13.3,0.7-18.1c-1-0.8-2.2-2-3.3-0.6c-0.9,1.2,0.5,2.1,1.4,2.9c3.3,3.2,3.9,7.2,1.5,11.1c-2.3,3.8-8.7,6.4-13.6,5.5 c-4.3-0.8-8-2.8-11.4-5.5c-0.9-0.7-2-2-3.1-0.9c-1.2,1.4,0.2,2.6,1.3,3.4C343.2,533.2,348,535.7,353.8,535.1z M194.5,548.9 c7.5,0,12.2-6.4,9.7-13.5c-0.5-1.4-1-2.8-0.1-4.3c0.6-1,1.9-2.2,0.6-3.1c-1.4-1-2.5,0.6-3.5,1.5c-1.4,1.2-1.2,2.9-0.9,4.5 c0.3,1.4,0.8,2.7,1.2,4c1.1,3.8-1.4,7.3-5.6,8.2c-2.9,0.6-4.4-1-5-5.4c0-0.2,0-0.4-0.1-0.6c-0.3-1-0.3-2.5-1.8-2.3 c-1.4,0.1-1.8,1.4-1.9,2.7C186.5,545.4,189.7,548.9,194.5,548.9z M298.9,545.6c0,1-0.1,2,0.9,2.2c1,0.3,1.7-0.3,2.2-1.2 c0.8-1.6,0.6-3.3,0.8-5c0.5-3.9-0.9-7.9,0.3-11.8c0.5-1.6-3.6-4.4-5.2-3.8c-1.1,0.5-1.1,1.3-0.7,2.2c0.7,1.8,1.4,3.5,1.8,5.4 C299.8,537.8,299.6,541.8,298.9,545.6z M444.9,498.9c-1.4-0.7-2.2,0-3.1,0.4c-4.3,1.9-4.6,3-1.3,6.3c2.5,2.5,2.9,5.5,2.5,8.8 c-0.1,0.8-0.9,2,0.4,2.3c1.1,0.3,2.1-0.4,2.6-1.5c1.2-2.4,0.1-8.4-1.8-10.3C441.2,501.6,441.2,501.4,444.9,498.9z M378.4,510.3 c-2.3,1.1-3.3,2.5-3,4.7c0.5,3.5,5.3,7.8,8.8,8c0.7,0,1.5,0.1,1.8-0.7c0.2-0.7-0.3-1.2-0.8-1.4C381,518.7,378.4,515.5,378.4,510.3 z"></path> <path class="st0" d="M335.8,418.4c1.5-4.9,5.3-7.3,9.6-9.2c1.9-0.8,2.6-1.3,1.1-3.3c-2.2-2.7-3.6-6-4.9-9.2 c-1-2.3-0.3-3.1,2.2-2.8c3.9,0.4,7.3,2.1,10.2,4.6c1.8,1.6,2.9,1.9,3.9-0.9c1.4-3.6,3.8-6.7,6.7-9.4c1.5-1.4,2.4-0.9,3.1,0.8 c1.4,3.6,2.4,7.2,0.8,11c-0.4,1-1.3,2.3-0.3,3.3c0.9,0.9,2.1,0,3.1-0.3c3.9-1.1,7.7-0.2,11.5,0.8c1.9,0.5,2,1.6,0.6,3 c-3.1,3.1-6.7,5.4-10.8,6.7c-2.5,0.8-2.2,1.7-0.7,3.2c0.2,0.2,0.4,0.4,0.6,0.6c3.9,4.2,5.7,4,9-0.9c4.6-6.8,7.9-14.3,11.5-21.6 c1-2,0.7-3.6-0.8-5.5c-3.2-3.9-4.6-8.3-3.4-13.4c0.5-2.1,1.3-2.2,2.8-1.1c2.1,1.5,4.1,3.2,5.5,5.5c1.2,1.9,2.3,2,3.2-0.4 c1-2.8,2.7-5.1,4.2-7.5c1.2-1.9,0.9-3.1-1.3-3.9c-3.5-1.3-6.3-3.7-8.8-6.5c-1.5-1.7-1-2.2,1-2.6c3.1-0.7,6.2-1.1,9.5-0.4 c2.5,0.6,3.2-0.2,2.2-2.6c-2.3-5.9-2.3-12.1-2.7-18.2c-0.1-2.4,0.6-2.6,2.5-1.7c4.5,2,7.4,5.6,9.5,9.9c1.7,3.4,2.1,3.4,4.8,0.9 c1.1-1,2.3-2.3,3.9-1.7c1.7,0.7,1.7,2.5,1.8,4.1c0.2,6.6-2.8,12.1-6.2,17.5c-0.7,1-1.8,2-0.7,3.5c1,1.3,1.7,3.7,3.4,3.3 c2.2-0.5,4.8-1.6,5.2-4.3c1.3-7.9,1.7-15.7-1.1-23.5c-2.2-6.3-5.6-11.9-8.4-17.8c-1.8-3.9-1.9-7.9-1.4-12c0.1-0.8,0.4-1.4,1.2-1.4 c0.8-0.1,1.3,0.4,1.4,1.2c1.2,5.6,5.1,9.6,8.5,13.9c2.8,3.6,5.6,7.3,7.5,11.5c0.3,0.7,0.6,1.7,1.6,1.5c1-0.2,0.8-1.3,0.8-2.1 c0-5-0.1-10-0.1-15c0-1.7-0.9-2.7-2.3-3.5c-3.5-2-5.7-4.9-6.6-8.8c-0.2-1-0.7-2,0.2-2.8c0.9-0.8,2.1-0.6,3.1-0.2 c0.8,0.3,1.5,1,2.3,1.3c1.1,0.4,2,0,1.4-1.3c-0.8-2,0-5.1-2-6c-1.8-0.8-2.8,2-4.3,3.1c-3.7,2.6-7.6,4.6-12.4,4.5 c-0.6,0-1.2,0.2-1.6-0.5c-0.3-0.6-0.1-1.2,0.3-1.7c1.2-1.4,2.3-2.8,3.6-4c2-1.8,1.2-2.6-0.9-3.1c-4.7-1.1-8.7-3.4-12.2-6.6 c-1.4-1.3-1.4-1.9,0.4-3c3.8-2.3,7.8-3.3,12.2-2.9c2.4,0.2,2.9-0.9,1.9-2.9c-2.4-4.5-2.8-9.3-2.9-14.2c-0.1-3.8,1.1-4.4,4.6-2.7 c3.9,1.9,6.8,4.8,8.9,8.5c1,1.8,1.8,1.5,2.8,0.1c1.5-2.1,2.9-4.3,4.5-6.3c0.8-1,2-2,3.3-1.6c1.5,0.4,0.4,1.9,0.6,2.9 c1.2,6,0.9,11.9-1.8,17.5c-0.6,1.3,0,1.8,1.3,1.8c2.4,0,4.2-1,5.5-3c0.4-0.7,1-1.4,1.9-1.2c1.2,0.3,0.8,1.5,0.8,2.3 c0.2,6.3-4.1,10.9-11.2,11.5c-3.2,0.3-3.5,1.4-2.5,3.9c0.2,0.5,0.4,0.9,0.4,1.4c0.3,2.6,1.5,2.8,3.4,1.3c0.2-0.1,0.3-0.2,0.5-0.4 c1.4-1.1,2.9-3.1,4.6-2.1c1.5,0.9,1.2,3.5,1,5.2c-0.4,4.2-1.9,8-6.1,10c-0.9,0.4-1.6,1.1-1.4,2.1c0.7,3.7,0.4,7.5,0.8,11.7 c1.9-1.5,2.3-3.2,3-4.8c1.8-4.8,4-9.4,6.5-13.8c1.7-2.9,2.8-5.9,3-9.3c0.4-6.6,0.7-13.2,0.1-19.7c-0.5-5-2.9-9.3-5.7-13.4 c-3.2-4.8-6.6-9.5-9.7-14.4c-3.2-5-5.4-10.4-6.4-16.3c-0.2-1.5-0.5-3,0.3-5.3c5.9,10.1,15.5,16.1,22,25.1c0.3-6.2-0.1-12.2-3-17.7 c-2.1-3.9-3.9-7.9-6.8-11.3c-0.4-0.5-0.8-1.4-1.6-1c-0.9,0.4-0.4,1.2-0.3,1.9c0.4,2.1,0.1,4.2-0.4,6.2c-0.5,2.1-1.6,2.3-3.2,1.2 c-2.6-1.8-4.6-4.2-5.9-7c-1.1-2.3-2.1-3.2-4.1-0.7c-1.6,2-3.9,3-6.1,4.2c-2.2,1.2-3.2,0.2-3.5-1.8c-0.4-2.8,0.5-5.3,1.8-7.7 c1.7-3.1,1.5-3.4-2-4.2c-2.9-0.7-5.3-2.2-7.8-3.8c-1.8-1.1-1.4-2.6,0.3-3.4c2.8-1.3,5.4-3,8.7-3c2.1,0,2.5-1.1,1.8-3 c-1-2.7-2-5.4-2-8.4c0-2.5,0.8-3.2,3-2c2.3,1.2,4.7,2.3,6.4,4.3c0.8,1,1.7,2.6,3.3,1c1.5-1.5,1.7-3.2,0.2-4.8 c-2.9-3.2-5.7-6.4-8.8-9.4c-3.9-3.9-5.9-8.4-6-13.9c0-0.7-0.2-1.5,0.6-1.9c0.8-0.4,1.3,0.3,1.6,0.9c4.2,7.2,10.7,12,16.9,17.2 c2.2,1.9,4.3,3.9,6.7,5.6c-1.3-3.7-3.2-7-5.9-9.9c-3.5-3.8-7.9-6.4-11.6-9.9c-6.2-5.8-10.7-12.5-12.8-20.8 c-0.2-0.6-0.6-1.5,0.2-1.9c0.9-0.4,1.3,0.6,1.8,1.2c4.6,6,10.9,10,16.7,14.6c-5.3-7.6-12.9-13.5-16.8-23c3.6,2.4,6.6,4.3,10,6.5 c0-1.6-0.9-2.5-1.5-3.3c-2.4-3.4-6-5.5-8.8-8.5c-0.4-0.5-1-1.2-1.7-0.6c-0.6,0.4-0.2,1.1-0.1,1.7c1.1,3.2,0.2,6.1-1.7,8.7 c-1.7,2.3-2.3,2.3-3.9,0c-0.1-0.2-0.2-0.3-0.3-0.5c-0.9-1.3-1.5-3.1-2.7-3.8c-1.5-0.9-2.4,1.4-3.8,1.7c-1.1,0.2-2.3,1.1-3.4,0.2 c-1.2-1-0.9-2.4-0.5-3.6c1-2.8,0.6-4.7-2.8-5c-0.8-0.1-1.7-0.7-2.4-1.1c-3.1-1.9-3-3.2,0.1-4.9c0.3-0.2,0.7-0.5,1-0.6 c3-1.1,5.1-2,3.2-6.2c-1.5-3.2,0.3-4.5,3.9-3.3c1.7,0.6,3.5,1.2,4.6,2.7c2.3,3.4,5.4,6,7.8,9.3c2.7,3.9,7.2,5.9,10.7,9.2 c-0.4-0.7-0.8-1.4-1.2-2.1c-4.7-7.1-10.3-13.4-16.1-19.6c-1.6-1.8-3.5-2.7-5.9-3c-5.3-0.6-10.2-2.6-14.7-5.5 c-2.5-1.6-5-3.3-7.5-4.9c-1-0.6-2.4-1.2-2-2.7c0.4-1.6,2-1.3,3.3-1.4c3.5-0.4,6.9,0.2,10.6,1.4c-0.7-2.9-2.7-4-4.2-5.5 c-0.6-0.7-1.5-0.3-2.2,0.2c-3.9,3.1-8.3,2.8-12.8,1.6c-2-0.5-2.3-1.8-0.8-3.3c0.9-0.8,1.8-1.6,2.8-2.2c2.3-1.4,2.2-2.7,0.2-4.3 c-2.3-2-3.6-4.7-4.2-7.7c-0.5-2.4,0.6-3.2,2.8-2.8c2.9,0.5,5.5,1.5,7.8,3.4c2.4,2.1,2.9,1.9,4.3-1c0.9-1.9,2.1-3.4,3.8-4.5 c0.6-0.4,1.6-0.9,1.6,0.2c0,4.6,1,9.4-1,13.9c-0.1,0.2-0.4,0.3-0.9,0.6c-0.7-2.4-0.2-4.6-0.5-6.8c-0.1-0.8,0.2-2.2-1-2.2 c-1.4,0-1.1,1.4-1.2,2.3c-0.4,4.6,1.1,8.6,3.8,12.3c0.6,0.8,1.2,2.3,2.4,2c1.3-0.4,0.6-1.9,0.7-2.9c0.1-3.7,1.2-7.1,3.5-10 c0.4-0.5,0.8-1,1.4-0.9c0.7,0.2,0.7,0.9,0.8,1.5c0.2,4.3,2.2,8,3.9,11.9c1.8,4.2,3.7,8.4,3.1,13.2c-0.1,0.6,0,1.3,0.3,1.7 c1.8,3,4,5.6,7.2,7.5c-1.2-5.7-0.8-11.4-1.1-17.1c-0.1-1.5-1.4-2-2.5-2.8c-4.2-2.7-6.6-6.6-6.9-11.6c-0.1-3,1.1-3.7,3.9-2.2 c3.6,1.9,3.6,1.9,4.8-2.1c0.1-0.5,0.2-1,0.4-1.4c0.5-1.2-0.1-3.3,1.7-3.5c1.9-0.2,2.3,1.9,3.1,3.2c0.4,0.6,0.7,1.5,0.8,2.2 c0.3,2.2,1.3,3.3,3.7,3.2c2.3-0.1,3,1.2,2.1,3.3c-1.8,4.1-2.8,8.8-7.5,11c-0.4,0.2-0.7,0.8-0.7,1.2c0,5.3,0,10.6,0.3,16 c1.8-2.1,1.9-4.7,2.3-7.2c0.2-1.6,0.1-3.2,0.2-4.8c0-0.8,0.1-1.9,1-2c1.2-0.2,0.8,1.1,1.1,1.7c0.5,0.9,1,1.7,1.4,2.6 c2.8,6.1,4.8,12.3,3.9,19.1c-0.5,4.2,0,8.1,2.7,11.5c1.2,1.4,1.9,3.2,3.3,5.4c0-6.2-1.6-11.3-2.4-16.6c-1.4-8.7-3.1-17.3-6.1-25.5 c-0.2-0.7-1-1.6,0-2.1c0.9-0.5,1.3,0.6,1.8,1.2c2.8,4,5.3,8.2,7.3,12.7c0.9,1.9,5.1,4.1,7.1,4c1.4-0.1,1.4-1.1,1.5-2.1 c0.2-2.1,0.6-4.1,0.9-6.2c0.3-2.2,1.4-2.3,3.1-1.2c2.5,1.6,3.8,4,4.7,6.7c0.7,2.2,1.7,2.8,3.5,1c1.6-1.5,3.4-2.8,5.5-3.6 c0.9-0.3,1.8-1.2,2.8-0.5c1,0.8,1.5,2,1.1,3.2c-0.8,2.6-1,5.5-2.8,7.8c-1.7,2.1-0.8,3.2,1.4,3.9c2.8,0.9,5.1,2.7,7.1,4.8 c2,2,1.8,2.7-0.8,3.6c-2.8,0.9-5.5,1.8-8.5,1c-2-0.5-2.7,0.5-2.6,2.4c0,2.9,0,5.8-0.2,8.7c-0.2,2.6-1.6,3.2-3.6,1.5 c-1.6-1.3-3.4-2.4-4.2-4.5c-0.5-1.3-1.5-2.1-2.9-2.4c-0.8-1.1-1.7-2-3.2-1.5c-1.1,0.4-2.4,1-2.4,2.4c-0.1,3.1,0.3,6.2,1.2,9.6 c1.8-2.6,1.8-5.2,2.2-7.6c0.2-1.3,0.1-3,2.2-2.9c0.2,13.3-2.7,26.8,3.5,39.6c1,2.1,1.3,4.5,2,6.9c1.3-0.3,1.1-1.3,1.2-1.9 c1.7-12.2,5.6-23.9,7.1-36.1c0.2-1.9,0.5-3.7,0.2-5.6c-0.1-0.6-0.4-1.3,0.3-1.6c0.9-0.4,1.2,0.5,1.5,1.1c2.2,4.6,3.1,9.4,3.6,14.4 c1,11.3-2,22-4.5,32.7c-1.3,5.6-2.6,11.3-2.9,17.1c-0.1,1-0.3,2,0.4,3.2c3-5.5,5.4-11.2,9-16.1c0.6-0.9,0.3-1.9,0.1-2.9 c-1-7.5-1.2-14.9,1-22.2c0.1-0.4,0.1-0.8,0.3-1.2c0.5-1.2,0.8-2.8,2.2-3c1.7-0.2,1.7,1.7,2.1,2.8c1.3,3.7,2.1,7.5,2.7,11.3 c0.5,3,0.9,3.2,3.3,1.4c4.4-3.2,9.3-5.3,14.4-7.1c2.3-0.8,2.3,0,1.8,1.9c-1.2,4.3-3.8,7.7-7.2,10.4c-1.7,1.3-1.8,2.2-0.4,3.8 c1.5,1.6,2.6,3.5,3.9,5.3c1,1.5,0.3,2.1-1.2,1.9c-6.5-0.9-13.1,1.3-19.6-0.6c-0.7-0.2-1.5-0.2-2,0.4c-3.3,3.8-5.7,8.2-7.1,13.3 c4.6-4.8,9.6-8.4,17.4-9c-10.5,8.7-13.7,19.9-15.1,32c7.3-11.2,19.1-19.4,21.7-34.4c2,2.7,2.3,4.8,2.5,6.9 c0.7,7.6-1.7,14.3-5.6,20.7c-3.4,5.6-8,10.2-12.1,15.2c-5.6,7-9.6,14.4-7.6,23.9c0.5,2.4,0.2,5,0.4,7.5c0,0.6,0.1,1.3,0.7,1.5 c0.7,0.3,1.1-0.4,1.3-0.9c1.7-3.6,4.3-6.4,6.6-9.6c1.2-1.7,1.3-3-1.4-3.1c-0.2,0-0.4,0-0.6,0c-1.1-0.2-2.7-0.4-2.5-1.6 c0.3-1.6,1.8-0.4,2.7-0.3c1.8,0.3,3.4,1.1,5.3,0.9c1.3-0.2,2.7-0.5,2.8-2.2c0.1-1.6-1-2.3-2.3-2.6c-3.5-1-6.5,0-9.2,2.2 c-0.9,0.8-2.1,1.9-3,0.5c-0.8-1.3,0.8-1.7,1.7-2.3c2.2-1.5,4.4-2.8,7.1-2.7c2.2,0.1,2.1-1.4,1.7-2.9c-0.9-3.8,0-7.5,0.9-11.2 c0.5-2.2,1.7-2.2,3.2-0.9c1.8,1.5,3.2,3.3,4.2,5.4c0.9,1.9,1.6,2.8,3.4,0.6c1.4-1.8,3.5-2.9,5.5-4c1.7-0.9,2.6-0.3,2.9,1.5 c0.5,2.6-0.3,5-1.2,7.3c-0.9,2.3-0.8,3.8,2.3,3.9c1.9,0.1,3.7,0.7,5.6,1.1c2,0.4,2.5,1.5,1.4,3.3c-1.6,2.6-3.8,4.3-6.8,4.9 c-2.8,0.6-3.5,2.2-2.6,4.8c0.9,2.6,1.3,5.2,1.7,7.9c0.3,2-0.5,2.3-2.1,2.1c-2.8-0.4-5-1.9-6.8-4c-0.6-0.8-1.3-1.5-1.9-2.3 c-1.1-1.5-2-1.3-2.9,0.2c-1.7,2.8-4,5-6.8,6.6c-2.2,1.3-3.1,0.7-3.3-1.8c-0.1-1.9,0-3.8,0-6.1c-2.2,0.9-2.4,2.7-3.4,4 c-3.5,4.5-4.7,9.6-4.2,15.2c0.2,2.1,0.6,2,2.2,1.1c3.9-2.3,8.1-3.5,12.6-2.8c1.7,0.2,2.9-0.3,4.1-1.3c3.9-3,8.2-5.3,12.8-7 c0.8-0.3,1.8-1.1,2.3,0.1c0.3,0.8-0.7,1.3-1.4,1.6c-4.3,2-7.2,5.6-10.2,9c-0.8,0.9-0.9,1.9-0.4,3c1.5,3.7,1.3,7.4,0.2,11.1 c-0.5,1.9-1.5,3.7-1.3,5.8c0,0.6-0.2,1.3-0.9,1.3c-0.3,0-0.8-0.6-1-1c-1.3-2.3-1.8-4.8-1.9-7.5c-0.1-1.3,0.4-2.8-0.5-4 c-1.4,0.4-1.8,1.6-2.4,2.6c-5.4,7.7-9.6,16.1-15.4,23.5c-2,2.5-4.1,4.9-6.8,6.7c-1.3,0.9-2.7,1.9-3.1,3.5c-0.3,1-1.1,1.3-1.9,1.6 c-6.8,2.7-10.9,7.7-12.4,14.9c-0.1,0.7-0.6,1.7,0.3,2.2c0.9,0.4,1.4-0.5,2-1c2.6-2.2,4.8-4.8,6.6-7.7c0.5-0.8,0.8-1.9,2.4-2.1 c-0.5,4.9-1,9.6-3.9,13.7c-2.6,3.8-6,6.7-9.5,9.5c-2,1.6-3.1,3.6-3.7,5.9c-0.2,0.7-0.6,1.4,0,2c0.7,0.6,1.3-0.1,1.9-0.4 c3.6-2,7-4.2,10.9-5.5c4.4-1.4,8.7-2.7,13.5-2c5.1,0.8,9.1,3.1,10.2,8.3c1.1,5.2-1,9.6-5.1,13c-3,2.5-6.6,3.7-10.4,4.3 c-3,0.5-5.9,1.2-8.1,3.4c-0.4,0.4-0.9,1-1.5,0.3c-0.5-0.5-0.2-1.2,0.1-1.7c1.4-2.2,3-4.2,5-5.9c4.1-3.4,8.9-5.6,13.4-8.4 c1.5-0.9,3.5-1.7,2.8-4c-0.7-2.3-2.7-2.7-4.8-2.6c-3,0.2-5.7,1.2-8.2,2.7c-14.5,8.4-29,16.7-43.3,25.5 c-13.2,8.1-26.8,15.4-40.7,22c-0.5,0.2-1.2,0.3-1.3,1.3c2.2,0.2,4.3-0.6,6.3-1c5.6-1.1,11.1-2.3,16.7-3.4c1.4-0.3,2.3-0.9,2.9-2.2 c3.3-7,9.8-8.5,16.5-9.6c2.5-0.4,3,0.8,1.6,3.1c-1,1.7-2.3,3.2-3.8,4.6c-0.3,0.3-0.8,0.8-0.5,1.3c0.3,0.5,0.8,0.5,1.3,0.4 c4-0.5,7.9-0.9,11.9-1.5c2.2-0.3,2-1.5,0.8-2.9c-1.9-2.2-3.2-4.9-4.1-7.6c-1-2.8-0.3-3.4,2.7-3.2c2.6,0.2,4.9,1,6.9,2.7 c1.9,1.6,3,1.5,3.6-1.1c0.8-3.6,3.1-6.4,5.4-9.2c1.4-1.7,2.5-1.3,3.1,0.4c1.2,3.2,2.6,6.3,1.6,9.9c-0.8,2.8,0.5,3.1,2.8,2.6 c2.8-0.6,5.5-0.5,8.3,0.1c2.4,0.5,2.5,1.6,1.4,3.4c-1.7,2.7-3.8,4.8-6.8,6.1c-1.9,0.8-2.2,1.6-0.5,3.1c2.3,2.1,4.3,4.5,5.5,7.4 c1.2,2.7,0.7,3.3-2.2,3.3c-2.8-0.1-5.6-0.6-8.1-1.8c-2.5-1.2-3.5-0.2-3.7,2.2c-0.2,2.6-1.4,4.9-2.7,7.2c-1.1,2.1-1.9,2.3-3.3,0.2 c-1.8-2.7-3.2-5.5-3.8-8.7c-0.4-1.9-0.9-2.3-2.7-1.1c-2.6,1.8-5.4,3.4-8.8,3.1c-1.4-0.1-2.3,0.6-2.8,1.8c-1.7,3.8-4.6,6.4-8.1,8.5 c-2.5,1.5-2.4,2.2,0.2,3.6c5.8,3.1,10.6,7.4,15.2,12c2.4,2.4,2.1,3.3-1,4.2c-6.1,1.8-11.6-0.4-16.9-2.8c-1.8-0.8-3.3-2.1-5.9-2.7 c1.5,5,1.4,9.8,1.3,14.6c-0.1,2.5-0.4,5-0.6,7.4c-0.1,0.8,0.2,1.8-0.8,2c-0.8,0.2-1.5-0.4-2.1-1c-2.4-2.7-4.5-5.6-6-8.9 c-3.3-7.3-4.9-15-4.6-23c0.1-2.8-0.7-3.7-3.6-3.9c-8.3-0.7-16.6-1.8-24.9-2.7c-2.1-0.2-4.3-0.5-6.4,0c0.1,0.4,0.1,0.7,0.1,0.7 c7.9,3.2,15.4,7.6,23.8,9.5c1.6,0.4,3.1,0.8,4.7,0.4c0.8-0.2,2-0.5,2.3,0.6c0.3,1-0.9,1.1-1.5,1.5c-6.6,4.5-13.6,4.7-20.8,2.1 c-2.6-0.9-4-0.7-4.9,2.2c-1.1,3.3-3.8,5.3-6.9,6.7c-2.2,1-2.4,2.2-0.7,3.8c2.5,2.5,3.8,5.8,5.4,8.9c0.9,1.8,0.5,2.8-1.8,2.7 c-3.6-0.2-6.9-1.1-9.8-3.2c-2.2-1.6-3.2-0.8-3.7,1.5c-0.6,3-2,5.6-3.7,8.1c-1.3,2.1-2.5,2-3.7,0c-1.8-2.9-3-6-3-9.6 c0-4.7,0-4.7-4.7-3.5c-2.3,0.6-4.5,0.5-6.8,0c-1.9-0.4-2.2-1.3-1.4-3c1.9-3.9,5.1-6.3,9.1-7.8c2.9-1,3-1.3,0.6-3.3 c-3-2.5-6.9-3.4-10.4-5.7c0.1,1.7-0.1,3.1,0.2,4.4c1,3.8-1.3,5.5-4.2,6.8c-6.6,2.8-13.5,3.9-20.7,3.3c-6.2-0.5-12.4-1.9-18.7-1.6 c-0.9,0-2-0.3-2.4,0.7c-0.3,1,0.8,1.5,1.4,2.1c5.6,4.5,11,9.3,15.9,14.5c2.4,2.5,2.2,3-1,4.1c-4.9,1.6-5.7,1.4-8.9-2.7 c-4.1-5.1-8.7-9.6-13.9-13.5c-2.4-1.8-4.5-1.8-7,0c-5.6,4.1-10.3,9-14.7,14.4c-2.4,3-7,3.4-10,1c-1.4-1.1-0.4-1.9,0.3-2.7 c3-3.7,6.7-6.8,10.3-9.9c2.2-1.9,4.4-3.7,6.6-5.6c0.5-0.4,1.2-0.9,0.9-1.7c-0.3-0.8-1.2-0.5-1.9-0.6c-6.4-0.4-12.7,1.1-19,1.6 c-7.8,0.5-15.2-0.5-22.4-3.9c-3-1.4-3.3-3.5-2.9-6.3c0.2-1.1,1.1-2.5-0.1-3.3c-1.2-0.8-2.2,0.5-3.2,1c-2.4,1.1-4.8,2.4-7,4 c-2.3,1.7-2,2.2,0.6,3.1c3.9,1.4,7,3.7,8.9,7.5c1.2,2.4,0.7,3.2-1.9,3.5c-2.5,0.3-5,0-7.4-0.7c-2.3-0.7-3.5-0.1-3.2,2.5 c0.4,3.8-1.1,7.1-2.5,10.4c-1.2,2.7-2.9,2.9-4.6,0.5c-1.7-2.4-2.7-5.1-3.6-7.9c-0.7-2.1-1.8-2.7-3.8-1.4c-2.9,1.9-6,3.1-9.6,2.9 c-2.2-0.1-2.7-1-1.8-2.8c1.6-3,2.7-6.2,5.2-8.7c1.5-1.6,1.3-2.7-0.6-3.7c-3.5-1.8-6.5-3.9-7.3-8.1c-0.4-2-1.6-1.4-3-1 c-5,1.5-10,2.8-15.3,1.5c-2.8-0.7-5.1-2.2-7.5-3.6c-0.5-0.2-0.9-0.6-0.8-1.1c0.1-0.6,0.7-0.6,1.2-0.6c7,0.2,13.2-2.8,19.4-5.4 c3.4-1.5,6.8-3.1,10.1-4.9c-4.9-0.8-9.7-0.1-14.5,0.4c-6,0.6-12,2.1-18.1,2.1c-2.4,0-2.4,1.4-2.4,3.1c0.1,7.9-1.2,15.5-4.3,22.7 c-1.4,3.3-3.3,6.3-5.6,9.2c-0.6,0.8-1.3,1.7-2.4,1.5c-1.2-0.2-0.8-1.4-1.1-2.2c-2.5-6.4-1.1-12.8,0-19.1c0.1-0.7,1-1.5,0.2-2.2 c-0.9-0.7-1.7,0.1-2.4,0.6c-4,2.7-8.5,4.2-13.3,5.3c-2.4,0.5-4.8,0.4-7.1-0.4c-2.6-0.9-3-2.1-1-4.1c4.9-4.8,9.9-9.6,16.2-12.7 c2-1,1.8-1.8,0.2-2.8c-3-1.9-6-4-7.8-7.2c-0.6-1-1.5-2.1-0.7-3.3c0.7-1.1,1.8-0.5,2.8-0.5c8.3,0,15.6,3.1,22,8 c2.1,1.6,4.3,2.1,7,1.8c5.6-0.6,11.3-0.5,16.9-1.6c0.8-0.2,1.8,0.1,2.9-1.6c-12.9,1-23.9-2-31.7-12.6c5.1,2.3,10.2,4.3,15.8,4.5 c5.5,0.2,10.9,0.1,16.8-1.1c-1.6-1.4-3.2-1.7-4.6-2c-8.6-1.6-17-4-25.7-5.2c-2.9-0.4-4,0.5-5.6,2.2c-4.1,4.4-9.6,5.3-15.2,5.9 c-1.2,0.1-1.1-0.7-1.1-1.5c-0.1-2.6,0.9-4.7,2.7-6.4c1.9-1.8,1.1-2.8-1-3.1c-3.6-0.6-7.2-1.1-11.4-1.1c2.9,3.2,5.4,6.2,6.2,10 c0.3,1.2,1.3,2.6,0,3.6c-1.1,0.8-2.5,0.4-3.7-0.2c-1.7-0.8-3.5-1.5-5.1-2.5c-2.1-1.4-2.6-0.7-3,1.4c-0.6,3.1-1.9,5.8-3.7,8.4 c-1.1,1.6-2.1,1.8-3-0.1c-1.4-2.7-2.8-5.3-3-8.4c-0.2-2.6-1.3-2.7-3.3-1.5c-2.6,1.5-5.6,2.1-8.6,2c-2.8-0.1-3.3-0.8-2.1-3.3 c1.3-2.6,2.7-5.2,5.1-6.9c2.3-1.7,1.6-2.8-0.5-3.8c-2.7-1.3-4.9-3.1-6.3-5.7c-1-1.8-1.1-3.1,1.6-3.5c2.8-0.4,5.5-0.6,8.3-0.1 c3,0.6,3.4,0.2,2.7-2.7c-0.8-3.6,0.4-6.9,1.5-10.2c0.7-1.8,2.1-1.1,3,0c2.2,2.7,4.5,5.4,5.2,8.9c0.5,2.4,1.7,3,3.8,1.4 c1.9-1.5,4.2-2.3,6.5-2.8c2.6-0.5,3.7,0.5,2.9,3.1c-0.7,2.5-1.9,4.8-3.6,6.8c-2.1,2.6-1.8,3.4,1.5,3.9c3.4,0.5,6.9,0.9,10.4,1.4 c0.5,0.1,1.1,0.1,1.4-0.2c0.5-0.5,0-1.1-0.3-1.6c-1.2-1.6-2.6-3.1-3.8-4.6c-0.6-0.7-1.1-1.5-0.4-2.5c0.5-0.8,1.4-0.7,2.2-0.6 c6.9,1,13.3,2.9,16.6,9.9c0.4,0.9,1,1.7,2.1,1.8c7.8,0.7,15.2,3.2,22.8,4.6c0.6,0.1,1.1,0.4,1.8-0.3c-3.8-1.9-7.5-3.7-11.2-5.5 c-18.2-8.4-34.5-19.9-51.9-29.7c-8.9-5-17.5-10.8-26.9-14.9c-1.9-0.8-3.7-1.3-5.8-1.2c-1.8,0.1-3.1,1-3.6,2.7 c-0.5,1.6,0.6,2.7,1.9,3.4c2.8,1.7,5.7,3.3,8.5,5c4.2,2.4,8.2,5,10.5,9.5c0.4,0.8,1.2,1.7,0.4,2.4c-1,0.9-1.6-0.3-2.2-0.8 c-2.8-2.3-6.2-3.1-9.7-3.6c-3.9-0.7-7.2-2.4-9.8-5.3c-3.7-3.9-5-9.9-3-13.8c2-4,7.7-6.6,13.1-6.2c6.9,0.5,12.9,3.2,18.8,6.5 c1.1,0.6,2.4,2,3.4,1.2c1.3-1-0.2-2.5-0.4-3.8c-0.3-1.8-1.7-2.9-3-4c-3.3-2.8-6.5-5.6-8.9-9.2c-2.3-3.4-3.6-7.1-3.8-11.2 c0-0.9-0.8-2.3,0.5-2.6c1-0.3,1.2,1.2,1.6,1.9c2.1,3.9,5.3,6.6,8.8,9.3c0.2-6.3-4.9-14.8-10.2-17.1c-2.9-1.3-4.8-0.3-5.4,2.9 c-1.1,6-3.5,11.4-7.9,15.8c-1.7,1.7-3.9,4.2-5.9,3.3c-1.8-0.8-0.3-3.9-0.1-6c0.2-1.6,0.5-3.1,0.9-4.7c0.4-1.5,0.1-2.6-1.7-1.8 c-4.6,2-9.5,1.1-14.2,1.7c-0.9,0.1-2.2,0.2-2.7-0.8c-0.5-1,0.1-1.9,0.7-2.8c2.7-4.2,5.6-8.1,10.6-9.7c1.9-0.6,1.9-1.7,0.8-3.2 c-1.2-1.6-2-3.4-2.8-5.2c-1.1-2.4-0.2-2.9,2.1-3c7.8-0.3,13.1,4,18,9.1c0.9,0.9,1.5,2.3,3,2.6c0.4-1.4-0.5-2.1-1.2-2.7 c-8.6-6.7-13.8-16.1-19.4-25.2c-1.5-2.5-3.1-4.9-4.7-7.3c-0.4-0.6-0.6-1.5-1.4-1.4c-1,0.1-1,1.2-1.1,1.9c-0.5,2.4,0.2,5-0.9,7.4 c-0.5,1.1-1,2.1-1.8,3.2c-1.2-5.9-4.9-11.5-2.2-17.8c0.9-2,0.5-3.4-1.1-4.7c-3.3-2.8-5.6-6.9-10.1-8.2c-0.5-0.1-0.9-0.7-0.5-1.2 c0.6-0.7,1.5-0.6,2.2-0.3c3.4,1.5,6.9,2.7,9.9,4.9c0.7,0.5,1.5,1.1,2.2,1.6c2,1.6,4,2.2,6.6,1.9c4-0.5,7.6,1.1,11.1,3 c1.7,1,1.9,0.7,2.1-1.3c1-7.7-2.8-13.4-7.6-19c0,2.1,0.1,4.1,0,6.2c-0.2,2.2-1.4,2.7-3.3,1.5c-2.4-1.6-4.7-3.3-6.3-5.9 c-1.4-2.2-2.6-2-4.2-0.1c-1.8,2.3-3.9,4.3-6.8,5.2c-3,1-3.8,0.5-3.2-2.6c0.4-2.4,1-4.7,1.6-7c1.1-3.7,1.2-3.8-2.7-4.9 c-2.9-0.9-5.1-2.6-6.9-5c-1.5-2-1.2-2.9,1.3-3.5c1.9-0.5,3.9-0.9,5.9-1.1c2.7-0.2,3-1.4,2.1-3.6c-0.9-2.2-1.6-4.5-1.7-6.9 c0-3,0.9-3.6,3.6-2.1c2.2,1.2,4.1,2.8,5.9,4.6c1,1,1.5,0.9,2.1-0.4c1.2-2.5,2.6-4.7,4.9-6.3c1.6-1.1,2.7-0.9,3.1,1 c0.7,3.8,2.2,7.6,0.9,11.5c-0.6,1.8,0.3,2.3,1.8,2.5c2.8,0.4,5.3,1.2,7.5,3.2c1.5,1.4,1.3,1.8-0.4,2.6c-2,0.9-3.8,2.1-6,2.5 c-1.1,0.2-2.1,0.9-1.1,2.1c2.9,3.6,5.8,7.2,8.1,11.5c0.4-0.6,0.7-0.8,0.8-1.1c1.9-11.5,2-22.5-6.7-32c-5-5.5-10-11.1-13.5-17.9 c-3.7-7.2-5.7-14.7-3.2-22.8c0.1-0.4,0.2-0.8,0.4-1.1c0.1-0.2,0.3-0.3,1.1-0.9c2.7,14.7,14.8,23.1,22,34.7 c-1.4-11.1-3.7-21.7-12.4-29.7c-0.6-0.6-2-0.9-1.5-1.9c0.6-1.2,1.8-0.4,2.7-0.2c3.8,0.9,7.1,2.7,9.9,5.3c1,0.9,2.1,1.7,3.4,2.4 c-1.8-4.6-3.9-9.1-7.3-12.7c-0.6-0.6-1.4-0.8-2.2-0.5c-3.9,1.4-7.8,0.9-11.8,0.5c-2.4-0.3-4.8-0.5-7.1,0.2 c-0.6,0.2-1.2,0.2-1.6-0.3c-0.4-0.6,0-1.1,0.3-1.6c1.2-1.7,2.4-3.5,3.8-5c1.6-1.7,1.7-2.8-0.4-4.2c-3.5-2.3-5.4-5.8-7.1-9.4 c-0.4-0.8-0.9-1.8-0.3-2.6c0.7-0.9,1.7-0.1,2.5,0.1c5.3,1.7,10.2,4,14.7,7.3c1.7,1.3,2.6,1.2,2.6-1.2c0-4.8,1.6-9.2,3.1-13.6 c0.2-0.7,0.3-1.8,1.4-1.7c0.9,0,1.2,1,1.5,1.7c2.4,5.4,3.5,11,3,16.9c-0.2,2.8-0.6,5.5-1,8.3c-0.2,1.5,0.1,2.9,1,4.2 c2.4,3.5,4.7,7.2,6.5,11.1c0.4,0.9,0.7,2.1,2.2,2.6c0.3-1.7,0.1-3.4-0.2-5c-1.2-9.6-4.1-18.9-6.1-28.3 c-2.2-10.7-2.6-21.4,1.7-31.7c0.4-0.9,0.4-2,1.9-2.6c0.5,15.6,5.8,30.2,8.2,46.2c2.6-6.5,4.8-12.3,5.8-18.5 c1.2-7.1,1.2-14.2,0-21.4c-0.5-2.9,0.8-6-1.6-8.6c-0.6-0.6,0-2.3-0.1-3.5c-0.1-1.8-1-3.1-2.8-3.3c-1.8-0.3-2.3,1-2.9,2.4 c-1,2.5-1.4,5-1.2,7.6c0.1,1.3,0.5,2.3,1.8,2.8c0.6,0.2,1.6,0.3,1.2,1.3c-0.4,1.3-1.6,1.7-2.8,1.9c-0.9,0.2-1.5-0.3-1.7-1.2 c-0.6-3-0.9-6.1-0.6-9.2c0.2-2.3-0.2-3.4-2.9-2.7c-2.8,0.7-5.4-0.2-8.1-1.3c-2.6-1.1-2.2-2.1-0.6-3.5c2.1-2,4.2-4,7.1-4.8 c2.2-0.7,2.6-1.8,1.2-3.7c-1.8-2.5-2.4-5.5-3-8.4c-0.5-2.4,0.4-3.2,2.8-2.7c2.4,0.5,4.4,1.8,6.1,3.5c2.7,2.6,2.8,2.6,4.3-1 c0.9-2.4,2.4-4.4,4.2-6.1c1.3-1.3,2.4-1.3,3,0.7c0.6,2.1,1.3,4.2,1.2,6.4c-0.1,1.9,1,2.4,2.6,2.2c2.9-0.5,5.4-1.3,6.5-4.7 c1.8-5.1,5.4-9.2,8.7-13.6c-4.1,14.3-6.5,28.8-8.4,43.5c2.4-4.6,7.2-7.8,6-14.3c-1.6-8.7,1.3-16.7,5.8-24.2 c0.1-0.2,0.5-0.3,0.7-0.5c1.1,0.7,0.7,1.8,0.7,2.8c-0.1,2.9,0.5,5.8,0.8,8.6c0.1,0.6,0.1,1.3,0.9,1.3c0.7,0,0.9-0.7,1-1.3 c0.5-4.2,0.9-8.3,0.7-12.5c-0.1-1.5-1-2.4-2.2-3c-4.6-2.4-5.5-7.1-7.1-11.3c-0.6-1.6,0.7-2.7,2.1-2.2c3.1,0.9,3.6-1,4.1-3.2 c0.4-1.7,0.8-3.3,2.1-4.6c1-1.1,2-1.4,2.6,0.4c0.6,1.6,1.3,3.1,1.7,4.8c0.5,2,1.5,2.5,3.2,1.5c1.3-0.7,2.8-2,4-0.8 c1.3,1.3,1.3,3.3,0.7,5.1c-1.4,3.9-3.5,7.4-7.3,9.5c-1.6,0.8-2.4,1.9-2.1,3.8c0.7,4.2-0.1,8.3-0.6,12.5c-0.1,1-0.7,2.1-0.5,2.4 c2.6-2.1,5.2-4.2,7.8-6.4c0.6-0.5,0.5-1.3,0.4-2c-0.9-4.4,0.4-8.5,2.1-12.5c2-4.4,4.3-8.6,4.5-13.5c0-0.5,0.2-1,0.8-1.1 c0.6-0.1,0.9,0.4,1.2,0.8c2.4,2.6,3.2,5.9,3.6,9.3c0.2,1.3-0.6,2.9,0.8,3.9c0.5,0.4,1.2-0.1,1.5-0.6c1.1-1.7,3.4-2.8,2.2-5.4 c-0.6-1.4-1.2-2.7-1.6-4.2c-0.9-3.5-0.5-7.1-0.2-10.7c0.1-0.7,0.2-1.5,1.1-1.4c1.7,0.1,2.2,1.6,2.6,2.9c0.4,1.1,1.5,2.2-0.2,3.4 c-1.6,1.1-1.7,7.3-0.4,8.7c0.5,0.6,1,0.5,1.4-0.2c0.1-0.3,0.1-0.6,0.1-0.9c0.3-2.1-1-5,1-6.3c3.5-2.3,7-5,11.4-5.6 c2.1-0.3,3,0.7,2.8,2.7c-0.4,3.1-1.5,5.9-4.1,7.7c-2.4,1.6-1.6,2.8,0,4.1c0.2,0.2,0.5,0.3,0.7,0.6c1.3,1.2,3.7,2.2,3,4.4 c-0.7,1.9-3.2,1.9-5,2c-3,0.2-5.9-0.5-8.5-2.2c-0.9-0.6-1.9-1.5-3-0.6c-1.4,1.2-3.2,2.5-3.5,4.3c-0.2,1.4,1.3,0.8,2,0.6 c3.2-1.2,6.4-1.1,9.7-0.3c0.8,0.2,1.7,0.2,1.8,1.2c0.1,0.8-0.4,1.3-1.1,1.7c-6,3.7-11.5,8.3-18.5,10.2c-1.2,0.3-2.6,1-3.8,0.9 c-3.9-0.5-6.2,1.8-8.6,4.4c-5.1,5.6-9.8,11.5-14.1,17.8c-0.3,0.4-0.4,0.9-0.4,1.6c3.1-2.8,6.6-4.8,9.4-8.1 c3.7-4.3,6.4-9.7,12.1-11.9c1.3-0.5,2.6-1.4,3.9-0.2c1.3,1.3,0.6,2.8,0.2,4.2c-0.2,0.6-0.5,1.1-0.8,1.6c-0.8,1.3-0.6,2.1,1,2.6 c1.9,0.6,3.7,1.5,5.5,2.4c1.6,0.8,2.4,1.9,0.2,3.2c-1.4,0.8-2.4,2.2-4.1,2.4c-2.8,0.3-3.1,1.9-2.5,4.2c0.4,1.3,1.3,2.8-0.3,3.8 c-1.3,0.8-3.1,0.6-4.2-0.3c-2.4-2-3.8-0.9-5.3,1.2c-0.8,1.2-1.2,3.4-3.3,3c-2.4-0.5-3-2.8-3.5-4.8c-0.6-2.2,0.2-4.5,0.3-7.5 c-4.8,4.1-9.4,7.5-12.3,12.6c3.4-1.1,6.2-3.2,9-5.4c0.2,2.5-2.6,7-6.7,11.6c-3.1,3.4-6.5,6.4-8.6,10.7c6.9-4.7,13.3-9.9,18.8-16.3 c-2.2,10.4-6.8,19.1-15.4,25.5c-5.1,3.7-10.1,7.5-13.3,13.2c-0.4,0.7-0.8,1.4-1.1,2.1c-0.3,0.5-0.7,1.2-0.2,1.7 c0.7,0.7,1.3-0.1,1.7-0.6c7.2-7.1,16.2-12.4,21.4-21.6c0.2-0.4,0.6-0.9,1.1-0.7c0.8,0.3,0.7,1.1,0.7,1.8c0.2,5.3-1.7,9.8-5.2,13.6 c-2.7,2.9-5.6,5.7-8.4,8.5c-1,1-1.9,2.1-1.9,3.6c0,1.4,0.6,2.3,1.7,2.9c1.2,0.7,1.9-0.2,2.5-0.9c2-2.2,4.3-3.8,7-5 c1.9-0.8,3-0.3,3,2c0,3-1.3,5.6-2,8.4c-0.8,3.3-0.7,3.6,2.5,3.4c3.3-0.2,5.7,1.5,8.1,3.3c1.7,1.2,1.5,2.5-0.3,3.5 c-2.6,1.5-5.2,3.1-8.3,3.1c-2.6,0-2.6,1.3-1.7,3c1.4,2.7,2.5,5.4,2.3,8.5c-0.2,3.2-1,3.6-3.9,2c-2.4-1.3-4.7-2.8-6.4-4.8 c-1.3-1.5-2.1-1.1-2.8,0.5c-1.4,3.5-3.7,6.1-6.9,7.9c-2.5,1.4-2.8,1.2-3-1.6c-0.3-2.6,0.3-5.3-0.4-8.2c-3.4,3-5,6.7-7.1,10.2 c-3.3,5.6-4.9,11.7-4.8,18.3c0,0.6-0.2,1.3,0.4,1.6c0.6,0.3,0.9-0.1,1.2-0.5c4.7-6.7,11.2-11.6,16.4-17.8c1-1.2,1.8-2.6,2.8-3.9 c0.4-0.6,0.5-1.8,1.6-1.3c0.9,0.4,0.6,1.3,0.5,2.1c-0.6,6.3-2.6,12-5.8,17.4c-3.6,6.1-8.2,11.5-11.9,17.6 c-2.9,4.9-4.4,10-4.7,15.6c-0.3,6.1,0,12.2,0.8,18.2c0.1,1,0.3,2,0.8,2.9c3.9,6.6,6.7,13.6,9.8,20.5c0.2,0.5,0.4,0.9,1.5,1.1 c0-4.1,0-8.1,0-12.1c0-0.7-0.7-1.1-1.3-1.5c-5-3-5.5-7.9-5.6-13c0-1.6,0.8-2.1,2.3-1.7c1.5,0.4,2.7,1.3,3.9,2.2 c0.5,0.4,1.3,1.3,1.6,1.1c2.3-1,1.8-3.5,2.5-5.3c0.5-1.2,0.1-2.2-1.4-2.3c-2.4-0.2-4.7-0.8-6.9-1.8c-3.9-1.7-6.2-6.2-5.3-10.3 c0.1-0.5,0.2-1.1,0.7-1.2c0.9-0.2,1.6,0.4,2,1.1c1.1,1.8,2.7,2.7,4.6,2.9c2.1,0.3,3-0.7,2-2.6c-3.2-5.7-1.9-11.9-2-17.9 c0-0.9,0-1.9,1.1-2.2c0.9-0.3,1.5,0.4,2.1,0.9c2.1,1.9,3.7,4.1,5.1,6.6c1.1,1.9,2,2.2,3.3,0.1c2.3-3.6,5.3-6.4,9.2-8.3 c3.1-1.6,4-1.1,4.1,2.5c0.2,5-0.6,9.8-2.7,14.3c-1.1,2.4-0.6,3.3,2,3.1c4.1-0.2,7.9,0.5,11.5,2.6c2.3,1.4,2.2,2.4,0.3,4 c-3.4,2.9-7.3,4.8-11.6,6c-2.9,0.9-2.9,1-0.8,3.3c1.1,1.2,2.2,2.3,3.3,3.4c0.6,0.6,1.1,1.3,0.5,2.1c-0.5,0.8-1.2,0.2-1.9,0.2 c-5.7-0.1-10.2-2.9-14.2-6.5c-1.9-1.8-3-1.7-3.4,1.1c-0.1,0.5-0.4,0.9-0.4,1.4c-0.1,1.1-1.3,2.4-0.2,3.4c1.1,1,2.2-0.3,3.3-0.6 c1.1-0.4,2.4-1.1,3.4-0.2c1.1,1,0.6,2.4,0.2,3.7c-1.1,3.7-3.3,6.6-6.9,8.2c-1.1,0.5-1.8,1.1-1.9,2.4c-0.5,5.3-0.6,10.5-0.4,15.8 c0,0.8-0.1,1.8,0.8,2.1c1.2,0.4,1.5-0.7,1.9-1.5c2.3-5,5.8-9.3,9.3-13.6c2.7-3.3,4.8-6.9,6.6-10.6c0.5-0.9,0.9-2.3,2.3-2 c1.2,0.3,0.6,1.7,0.7,2.6c0.6,4.8-1,9-3.1,13.2c-2.6,5-5.6,9.9-7.3,15.4c-2.4,7.7-2.4,15.5-1,23.3c0.5,2.7,3,3.6,4.9,4.9 c0.9,0.6,1.4-0.4,1.9-1c1.2-1.6,2.5-3.2,1.5-5.4c-0.3-0.8-0.9-1.6-1.4-2.3c-2.4-3.7-4.1-7.7-5-12.1c-0.2-0.9-0.4-1.8-0.3-2.7 c0.1-1.9-0.3-4.5,1.6-5.4c1.7-0.8,3.5,1,4.9,2.3c1.8,1.9,2.6,1.2,3.6-0.8c2-4.2,4.9-7.8,8.9-10.2c0.8-0.5,1.7-1.3,2.7-0.8 c1,0.5,0.7,1.6,0.7,2.4c-0.4,5.9-0.3,11.8-2.4,17.4c-1,2.6-0.2,3.6,2.6,3.1c2.7-0.4,5.4-0.4,8.1-0.2c2.6,0.1,3,1.1,1.6,3.2 c-2,3-4.9,5-8.1,6.4c-2.3,1-2.6,2.3-1.4,4.4c1.4,2.6,3.3,4.9,4.1,7.9c0.5,1.8,1.8,0.6,2.5-0.1c1.6-1.6,3-3.5,4.6-5 c2.3-2.2,3.2-1.9,3.9,1.2c1,4.5,0.1,8.6-3,12c-1.5,1.7-1.9,3.3-1,5.4c3.5,8.2,7.7,16,12.4,23.5c1.1,1.8,3,3.1,5,2.5 c2.5-0.6,3.4-3.2,4.6-5.2c0.7-1.1-0.8-1.3-1.6-1.5c-4.2-1.4-7.7-3.6-10.8-6.8c-0.6-0.6-1.4-1.3-1-2.3c0.3-0.9,1.3-0.7,2.1-0.9 c4.1-0.8,8.2-1.5,12.4-0.4c2.2,0.6,2.8-0.3,1.7-2.3c-2.2-4.3-1.1-8.3,0.7-12.3c0.9-1.9,2-1.7,3.1-0.3c2.6,3.1,5.4,6.2,6.8,10.1 c0.9,2.4,1.7,2,3.3,0.5c3-2.7,6.3-4.8,10.6-5.1c2.2-0.2,2.3,0.5,1.8,2.4c-0.8,3.4-2.4,6.3-4.5,9c-1.3,1.8-1.6,2.8,0.9,3.7 c4,1.4,7,4.2,9.2,7.7c1.1,1.7,2.5,2.8,4.2,3.7c9,4.9,16.1,11.5,21,20.7c2.7,5.2,7.2,9,12.5,11.7c0.4,0.2,0.9,0.4,1.4,0.5 c0.3,0.1,0.6-0.1,0.9-0.1c-0.4-1.6-1.9-2-2.9-3c-0.7-0.7-1.6-1.4-1.1-2.6c0.5-1.2,1.6-1,2.6-0.7c0.6,0.1,1.1,0.6,1.6,0 c0.5-0.7,0-1.3-0.3-1.9c-1.4-2.6-3.2-4.3-6.2-5.2c-8.7-2.7-14.6-8.7-18.4-16.8c-0.9-1.9,0.2-2.6,2-2.3c2,0.4,4,1.1,6.1,1.6 c0.7,0.2,1.6,0.7,2.3,0.1c0.8-0.8,0-1.7-0.3-2.5c-2-5.2-3.6-10.6-4.3-16.1c-0.1-0.8-0.6-1.6,0.1-2.3c0.8-0.7,1.7-0.1,2.5,0.2 c7.5,3.1,11.9,9,15,16.2c1.6,3.6,1.6,3.6,4.2,0.6c1.8-2.1,3.8-4.1,6.4-5.2c2-0.9,3.3-0.5,3.2,2c-0.1,5.3-2.1,10.1-4.6,14.7 c-1.9,3.5-4.6,6.3-7.1,9.2c-1.3,1.4-0.4,4.5,1.4,4.9c1.2,0.3,1.2-0.8,1.6-1.4c0.6-1,1.2-2.4,2.5-2.3c1.4,0.1,1.2,1.8,1.7,2.8 c1,2,1.2,3.8,0.2,6c-0.8,1.9,2.5,6.6,4.6,6.9c1.3,0.2,1.3-0.8,1.2-1.5c-0.5-7,2.9-12.5,7-17.6c3.7-4.7,4.8-9.7,2.8-15.4 c-0.2-0.6-0.8-1.3,0-1.8c0.6-0.4,1.1,0.1,1.7,0.4c7.2,3.7,9.3,10.1,5.8,17.4c-1.3,2.8-3.2,5.3-4.8,7.9c-3.9,6.1-3.6,14.5,0.5,20.3 c0.5,0.7,1,1.8,2,1.5c0.9-0.3,0.5-1.4,0.5-2.1c-0.1-5.5,1.1-10.7,3.3-15.7c0.3-0.8,0.7-2,1.7-1.8c1.2,0.2,0.7,1.5,0.8,2.3 c0.7,7.7,3.9,14.3,9,20.1c1.3,1.5,2.3,1.6,3.6,0.1c5.2-6,8.6-12.7,8.9-20.7c0-0.7-0.1-1.6,0.7-1.8c1.2-0.3,1.1,0.9,1.5,1.5 c2.6,5.1,3.6,10.5,3.4,16.2c0,0.8-0.5,2,0.7,2.3c0.9,0.2,1.4-0.7,1.8-1.4c4.1-6.2,5.1-12.7,1.5-19.5c-1.4-2.7-3.2-5.3-4.7-8 c-4.4-8.1-2.3-14.8,5.8-19c0.4-0.2,0.8-0.7,1.3-0.3c0.5,0.4,0.3,0.9,0.1,1.4c-3.5,7.6,0.2,13.4,4.5,19.2c3.1,4.2,5,8.8,5,14.1 c0,0.9-0.3,2,0.8,2.3c1,0.3,1.2-0.8,1.8-1.3c0.8-0.8,1.5-1.6,2.3-2.3c1.1-1,1.6-2.1,0.9-3.5c-1.4-2.8-0.3-5.5,0.6-8.1 c0.5-1.5,1.4-1.6,2.5-0.6c0.7,0.7,1.3,1.5,2,2.2c0.6,0.6,1.3,1.5,2.3,0.9c0.9-0.6,1.1-1.7,0.9-2.7c-0.2-1.5-1.2-2.5-2.1-3.5 c-5.1-5.6-8.7-11.9-10.1-19.4c-0.3-1.7-1.2-4,0.4-5c1.7-1.1,3.5,0.5,5.1,1.5c1.6,1.1,2.8,2.5,4.1,4c2,2.4,2.7,2.3,3.8-0.5 c2.9-7.1,7.5-12.6,14.4-16.1c1-0.5,2-1.2,3.1-0.6c1.4,0.7,0.4,2,0.2,3c-0.8,5.3-2.2,10.5-4.1,15.6c-0.3,0.8-1.1,1.7-0.2,2.5 c0.8,0.7,1.7,0,2.5-0.2c1.7-0.4,3.4-1,5.2-1.3c2.3-0.4,3,0.6,2,2.7c-3.7,8.3-10,13.6-18.5,16.1c-3.2,0.9-4.2,3.5-5.7,5.7 c-0.8,1.2,0.2,2,1.7,1.5c0.9-0.3,2-0.9,2.6,0.4c0.4,1.1-0.4,1.8-1.2,2.5c-1.1,0.8-2.2,1.7-3,3.2c1.7,0.4,2.8-0.4,3.9-1.1 c4.8-3.2,8.9-7.1,11.6-12.3c4-7.8,10.1-13.5,17.6-17.8C331.5,420.9,333.6,419.6,335.8,418.4c0.1,1.6-0.7,2.8-1.4,4.2 c-2.2,4.2-4.4,8.5-5.7,13.1c-0.2,0.8-0.9,1.8-0.1,2.5c1,0.8,1.9-0.3,2.6-0.8c6-4.6,11.5-9.7,17.1-14.8c0.5-0.5,0.9-1,1.3-1.6 c0.6-0.9,0.4-1.8-0.7-1.5C344.3,420.4,340.1,418.7,335.8,418.4z M111.3,463.4c-1.1,3.2-1.1,6.5-1.6,9.6c-0.7,4-1.2,8.1-1.1,12.2 c0,1.5-0.2,3.9,1.3,4.2c1.5,0.4,2.3-1.9,3.1-3.2c5.1-8.5,6.2-18,6.1-27.6c0-1.2-0.5-2.2-1.4-2.8c-5.6-3.9-11.1-7.8-18.1-8.6 c-1.5-0.2-3.5-1.5-4.3,0.3c-0.7,1.7,1.4,2.6,2.5,3.6c2.6,2.3,5.8,3.5,8.6,5.3c0.5,0.3,1.1,0.6,1,1.3c0,0.6-0.6,0.7-1.1,0.8 c-8,1.9-13.5,7.7-19.5,12.8c-0.4,0.3-0.8,0.7-0.6,1.3c0.2,0.7,0.9,0.7,1.5,0.7c3.7,0.3,7.3-0.2,10.8-1.6 C103.3,469.9,107.3,466.9,111.3,463.4z M388.4,462.9c0.6,0.1,0.8,0.1,0.9,0.2c0.8,0.8,1.5,1.6,2.3,2.3c5.8,5.3,12.5,8.4,20.5,8 c0.7,0,1.5,0.1,1.9-0.6c0.3-0.5-0.1-1-0.5-1.3c-5.7-5-11.2-10.5-18.7-12.9c-0.7-0.2-1.8-0.2-1.8-1.2c0-1,1.1-1,1.7-1.3 c3.7-1.8,7.2-3.8,9.9-7.1c0.4-0.5,1-1.1,0.5-1.8c-0.4-0.6-1.1-0.5-1.6-0.4c-3.1,0.5-6.3,0.8-9.3,2.1c-4.3,1.9-8,4.9-12.1,7.1 c-0.7,0.4-1.2,1-1.1,1.9c0.3,8.4,0.6,16.8,4.2,24.5c1.2,2.6,2.4,5.4,5.5,7.4C391.8,480.4,391,471.7,388.4,462.9z M357,441.8 c0.8,0.5,1.1,0.8,1.5,0.8c6,0.9,12.1,1.1,18.2,0.3c3.3-0.4,6.4-1.3,9.2-3.2c0.7-0.4,1.4-1.7,2.2-0.6c0.6,0.8-0.5,1.6-1,2.2 c-4.4,5.1-10,8.1-16.5,9.5c-4.1,0.9-8.3,1-12.5,1.4c4.1,1.4,8.5,1.1,12.6,1.9c6.6,1.3,12.3,0,17.8-4.1c5-3.8,11.1-5.7,17.7-5.2 c1.6,0.1,4.2-0.2,4.7-2.4c0.7-3.7,2.7-6.6,5-9.4c0.4-0.4,1.1-0.8,0.8-1.5c-0.4-0.8-1.2-0.5-1.9-0.5c-2.9,0.1-5.7,0.7-8.6,1.3 c-1.9,0.4-2.8,1-0.9,2.8c1.6,1.5,2.9,3.3,3.2,5.6c0.2,1.6-0.4,2.5-2.1,2.3c-5.6-0.6-10.9-2-14.6-6.5c-1.5-1.9-3.1-1.9-5.2-1.7 c-6,0.6-11.7,2.3-17.5,3.6C365.1,439.4,361,439.4,357,441.8z M202.9,429.1c-0.9-0.8-0.7-1.5-0.7-2.2c0.1-9.4-5.2-15.7-12-21.1 c-0.7-0.5-1.5-1.4-2.4-0.8c-0.9,0.6-0.3,1.7-0.1,2.5c1.2,5.8,2.4,11.7,5.5,17c0.3,0.6,1.1,1.2,0.5,1.9c-0.7,0.8-1.4,0-2.1-0.3 c-2.5-0.8-4.9-1.6-7.4-2.4c-0.7-0.2-1.6-0.6-2.2,0.2c-0.5,0.7,0.2,1.3,0.6,1.9c3.7,7.3,10.6,10.5,17.6,13.4 c1.1,0.4,1.9,0.1,2.7-0.7c4.9-5.2,8.9-11,10.9-17.9c0.4-1.4,1.4-3.2-0.3-4.1c-1.6-0.8-2.8,0.8-3.7,1.9 C207,421.5,204.7,425.1,202.9,429.1z M286.2,419c0.1,0.6,0.3,1.6,0.5,2.6c1.5,5.3,4.2,9.9,8,13.8c1.3,1.4,2.3,3.5,4.3,4.1 c1.7,0.5,2.7-1.4,4.3-1.8c0.3-0.1,0.6-0.1,0.9-0.2c5.8-2,10-6,13.3-11c0.4-0.5,0.9-1.2,0.5-1.9c-0.5-0.9-1.4-0.7-2.1-0.5 c-2.5,0.7-4.9,1.6-7.4,2.3c-0.6,0.2-1.4,0.7-1.9,0c-0.5-0.8,0.3-1.2,0.6-1.8c2.9-5.5,4.2-11.6,5.4-17.6c0.1-0.6,0.2-1.2-0.4-1.6 c-0.6-0.5-1.1,0.1-1.6,0.4c-7.3,5-12.3,11.5-12.5,20.9c0,0.8,0.5,2.1-0.5,2.3c-1.2,0.2-1.5-1.2-1.7-2.1c-1.1-3.9-3.7-6.8-6.5-9.5 c-0.6-0.6-1.3-1.4-2.3-0.9C286.1,416.9,286.3,417.9,286.2,419z M384.7,416.3c7.6-2.5,11.9-7.9,15.7-14.1 c5.5-8.9,10-18.7,19.2-24.9c0.7-0.4,1.5-1,1-2.2c-1.3-3.2-10-6.2-12.4-3.8c-2.9,2.9-4.9,6.6-6.1,11c1.2-0.4,1.9-0.6,2.5-0.8 c1.8-0.4,4-0.6,5.1,0.8c1.3,1.6-0.9,2.8-1.7,4c-1,1.6-2.4,2.9-3.7,4.3c-1.4,1.5-3.3,2.3-5.1,2c-2.4-0.4-3.2,0.8-4,2.6 c-2.2,4.7-4.6,9.3-6.8,14C387.1,411.3,385.3,413.3,384.7,416.3z M90.2,370.7c-2.2,0.5-4.3,0.5-6.4,0.7c-2.2,0.2-3,2.1-3.7,3.9 c-0.8,1.9,0.9,2.4,1.9,3.2c3,2.3,5.8,4.9,7.9,8.1c4.3,6.6,8.6,13.2,12.7,19.9c2.7,4.4,6.7,7,11,9.3c0.4,0.2,1.1,0.4,1.4,0.3 c0.7-0.4,0.3-1.1,0-1.6c-3.7-6.4-7.1-12.9-10.1-19.6c-0.5-1.1-1.3-2.3-2.6-2.2c-6,0.4-8.3-4.3-11.2-8.1c-1.2-1.6-0.3-2.6,1.3-3.1 c1-0.3,2,0.2,2.9,0.2c1.1,0.1,2.3,0,1.9-1.5c-0.9-3.4-3-6.3-5.1-9C91.7,370.7,90.8,370.8,90.2,370.7z M40.2,354.6 c0.6,1.8-0.2,2.8-0.6,3.9c-0.9,2.5-1.7,4.9-1.8,7.5c0,0.9-0.7,2,0.2,2.5c1.1,0.6,1.8-0.6,2.4-1.2c4.5-4.4,6.1-10.1,7.6-15.9 c0.2-0.8-0.1-1.4-0.6-1.9c-3.9-4.8-8.1-9.1-14.5-10.3c-0.9-0.2-2-1.1-2.7,0.2c-0.5,0.9-0.1,2,0.4,2.8c1.2,2.1,2.9,3.5,4.9,4.8 c0.6,0.4,1.3,0.8,1.1,1.6c-0.2,0.7-1,0.6-1.5,0.6c-5.8-0.1-9.6,3.3-13.1,7.3c-0.6,0.7-1.4,1.4-1,2.4c0.5,1.2,1.7,0.8,2.7,0.7 C29.4,358.8,35.4,358.7,40.2,354.6z M417.4,356.9c-0.3-6.1-3.1-11.1-7-15.5c-0.7-0.8-1.7-1.6-2.9-1.1c-1.3,0.6-0.9,1.8-0.8,2.9 c1,6.3,1.1,12.8,5,18.2c0.3,0.4,0.4,0.9,0.1,1.4c-0.4,0.5-0.9,0.3-1.4,0.1c-3.4-1.8-7.1-1.5-10.8-1.7c-0.7-0.1-1.8-0.3-2.1,0.6 c-0.3,0.9,0.6,1.4,1.2,1.9c4.7,4,10.5,4.9,16.4,5.4c0.9,0.1,1.9-0.2,2.4-1c3.6-5,7.2-10.1,7.2-16.7c0-0.9,0.4-2.2-0.9-2.6 c-1.1-0.3-1.8,0.6-2.5,1.3C419.6,352,418.9,354.6,417.4,356.9z M83.3,356.9c-1.6-1.4-2.2-2.6-2.6-3.9c-0.5-1.3-1.3-2.2-2.3-3.1 c-0.6-0.5-1.2-1.2-2.1-0.8c-0.9,0.4-0.7,1.3-0.8,2.1c-0.2,3.7,0.7,7.1,2.6,10.2c5.8,9.2,3.6,8.4,14.7,6.5c3-0.5,5.5-2.2,7.8-4.1 c0.6-0.5,1.4-1,1.1-1.9c-0.3-1-1.2-0.8-2-0.9c-3,0-6,0.1-8.8,1c-0.8,0.2-1.7,1.1-2.4,0c-0.6-0.8,0.3-1.4,0.7-2.1 c3.2-5.7,3.4-12.2,4-18.5c0.1-0.6-0.1-1.2-0.7-1.6c-0.8-0.4-1.3,0-1.8,0.5c-2.1,2-4.1,4-5.3,6.8C84.3,350.2,83.2,353.1,83.3,356.9 z M469.9,202.2c0.8-5.4,0.7-10.7-0.7-15.8c-0.2-0.9-0.2-2.3-1.6-2.1c-1.1,0.2-1.1,1.5-1.2,2.5c-0.7,5.6-1,11.3-0.2,17 c0.5,3.8,1.7,5.1,5.5,5.5c3.1,0.3,6.2,0.1,9.2-0.4c1.2-0.2,2.9,0.5,3.3-1.2c0.3-1.5-1.2-2.1-2.2-2.9c-0.4-0.3-0.8-0.5-1.3-0.8 c-0.7-0.4-1.9-0.5-1.8-1.7c0.1-1.2,1-1.5,2-1.9c3.4-1.4,5.6-4,7.6-6.9c0.4-0.6,0.8-1.3,0.2-1.9c-0.5-0.5-1.1-0.4-1.7-0.2 c-0.7,0.3-1.4,0.6-2.2,1C479.7,195.1,474.4,198,469.9,202.2z M34.7,195.6c0.2-3.2-0.4-6.2-0.9-9.3c-0.1-0.8-0.2-2-1.3-2.1 c-1.3-0.1-1.4,1.2-1.6,2.1c-0.7,4.7-1.4,9.5,0,14.2c0.1,0.3,0.1,0.9-0.1,1.1c-0.4,0.5-0.9,0.1-1.3-0.2c-0.6-0.5-1.3-0.9-1.9-1.5 c-4.1-3.8-9-6.1-14-8.5c-0.7-0.3-1.6-0.7-2.2,0c-0.5,0.6,0,1.4,0.4,1.9c2.1,2.9,4.4,5.7,7.9,6.9c0.8,0.3,1.5,0.6,1.6,1.5 c0.1,0.9-0.7,1.2-1.3,1.5c-1.3,0.7-2.6,1.5-3.5,2.7c-0.8,1-1.1,2.3,0.6,2.5c4.6,0.4,9.3,1.6,13.9-0.2c1.5-0.6,3-1.3,3-3.2 C34.1,201.9,35,198.8,34.7,195.6z M367.3,425c-0.7-1.6-2.5-2.2-3.9-3.1c-1.4-0.9-2.3-0.7-3,0.9c-0.9,2-1.8,4.1-3.5,5.5 c-1.3,1.1-2.1,3.6-4.1,2.7c-1.9-0.8-1.8-3.1-2-5c-0.1-0.7,0.4-1.5-0.5-1.8c-0.8-0.2-1.2,0.5-1.7,1c-4.5,4.5-9.4,8.6-14.6,12.3 c-0.8,0.6-2.4,1.1-1.7,2.4c0.5,1,1.8,0.2,2.7,0c11-2.7,21-8,30.9-13.2C366.6,426.5,367.2,426.1,367.3,425z M168.3,440.2 c0-1-0.4-1.3-0.8-1.6c-4.9-3.2-9.1-7.3-13.5-11.3c-3.4-3.1-3.4-3.1-4.8,1c-0.2,0.5-0.4,0.9-0.6,1.4c-0.9,1.7-1.8,2.1-3.3,0.5 c-2-2.1-4-4.2-5-7c-0.8-2.2-2.1-2.4-3.9-1.1c-0.6,0.4-1.1,0.8-1.7,1.2c-2.1,1.2-2.3,2.2,0,3.4c7.7,4.2,15.5,8.1,23.8,11 C161.6,438.8,164.8,440,168.3,440.2z M170.4,438.7c0.9-1.6,0.7-2.9,0.3-4.1c-1.6-5.2-4.6-9.7-6.7-14.6c-0.6-1.6-1.9-1.3-3.3-1.1 c-2.7,0.5-5.4,1.4-8.2,0.7c-0.8-0.2-2-0.8-2.5,0c-0.6,1,0.5,1.9,1.1,2.5C157.2,427.9,163.4,433.5,170.4,438.7z M79,276.7 c0-0.8,0.1-1.6,0-2.4c-0.2-1.4-0.9-2-2.2-1.1c-5.8,4.2-11.1,8.6-9.4,17c0.3,1.3,0,3.1,1.5,3.7c1.5,0.6,2.8-0.6,3.9-1.6 C77.4,288.2,78.3,282.5,79,276.7z M433.1,287.7c0.1-4.8-5.8-13.1-9.6-14.3c-2.1-0.7-2.8,0.4-2.6,2.3c0.4,4.1,1.3,8.1,3,11.8 c1.1,2.4,2.6,4.5,4.9,5.9c2.1,1.2,3.4,0.6,3.8-1.7C432.9,290,433.1,288.4,433.1,287.7z M223.3,470.5c-5.1-4.1-10.6-6.8-17.3-5.8 c-1.6,0.2-2.6,1-3.4,2.5c-1,1.9-2.2,3.8-4.7,4.1c-1.1,0.1-2.1,0.5-1.7,1.8c0.3,1.2,1.3,1.3,2.4,1.2 C206.8,473.4,214.8,470.3,223.3,470.5z M290.7,464.8c-4.8-0.4-8.3,2.7-12.3,4.6c-0.4,0.2-0.6,0.6-0.4,1c0.3,0.5,0.8,0.5,1.3,0.5 c3.5-0.1,6.9,0.5,10.3,1.1c4.4,0.8,8.7,2.2,13.2,2.1c0.7,0,1.8,0.1,1.9-1c0.1-0.8-0.6-1.2-1.3-1.5c-2.6-0.9-4.1-3-5.5-5.2 c-0.5-0.9-1.1-1.7-2.3-1.7C294,464.8,292.4,464.8,290.7,464.8z M424.1,302.2c0.9-0.2,1.9-0.3,2.8-0.6c1.2-0.4,3-0.2,3.1-2.2 c0.1-1.8-0.5-3.3-2.1-4.3c-0.5-0.3-1-0.6-1.6-0.8c-5.1-2.6-10.2-1.8-15.3,0c-1.6,0.6-1.5,1.5-0.3,2.4 C414.6,299.6,419,301.5,424.1,302.2z M75.6,302.2c4.8-0.7,9.2-2,13.1-4.8c0.7-0.5,1.3-1,1.2-1.9c-0.1-0.9-0.9-1.2-1.7-1.4 c-4.7-1.6-9.3-1.8-13.9,0.1c-2.8,1.2-4.6,3.6-3.9,5.6C71.3,302.2,73.8,301.6,75.6,302.2z M196.6,458.3c-4.2-0.5-7.6-1-10.9-1.2 c-3.4-0.2-6.8-0.2-10.1,0.5c-0.9,0.2-2.6,0.1-2.5,1.1c0.2,1.7,0.8,3.6,2.3,4.7c1.2,0.8,2-0.2,2.8-0.9c1.6-1.4,3.4-3.8,5.5-2.8 c2.4,1.1,1.2,4.1,1.2,6.3c0,0.9-0.7,2.3,0,2.5c2.8,1.1,4.4-2,6.9-2.4c1.2-0.2,1.2-1.2,0.8-2.1c0-0.1-0.1-0.2-0.1-0.3 c-1.3-3.4-1.3-3.4,2.3-4.6C195.3,459,195.6,458.8,196.6,458.3z M306.4,458.4c2.7,1.3,2.5,3,1.8,4.8c-0.4,1-1,2.4,0.4,2.8 c2,0.7,3.5,2.9,5.9,2.3c1-0.2,0.7-1.3,0.7-2.1c0-1.5-0.2-3-0.1-4.5c0.3-2.6,1.4-3.1,3.6-1.8c1.4,0.9,2.7,2,4,3.1 c0.7,0.5,1.5,1.4,2.3,0.5c1.2-1.3,2-3,1.8-4.6c-0.2-1.6-2-1.2-3.2-1.4c-1.4-0.2-2.8-0.5-4.2-0.4 C315.4,457.3,311.2,457.1,306.4,458.4z M367.4,395.9c0-1.1-0.1-2-0.1-2.9c-0.1-0.9-0.2-1.9-1.2-2.2c-0.9-0.2-1.3,0.7-1.9,1.2 c-2.4,2.3-3.9,5.2-5,8.3c-1,2.6-0.3,4.8,1.2,7c0.8,1.2,1.3,0.9,2.3,0C366,404.2,367.2,400.2,367.4,395.9z M65.3,289.4 c0.3-5.2-2.4-9.3-5.2-13.3c-0.9-1.2-2.1-1.2-2.2,0.4c-0.3,5.6-0.1,11.1,2.9,16.1c0.6,1.1,1.6,1.4,2.8,1.1c1.3-0.3,1.6-1.4,1.6-2.5 C65.4,290.6,65.3,290,65.3,289.4z M442.1,281.1c0-1.4,0-2.8,0-4.2c0-0.6-0.1-1.2-0.8-1.4c-0.7-0.2-1.1,0.3-1.5,0.8 c-3.1,4.4-5,9.2-5,14.6c0,1.4,0.5,2.5,2.1,2.8c1.5,0.2,2.3-0.3,3-1.7C441.6,288.6,442.3,285,442.1,281.1z M133.3,395.4 c-0.6,5.2,1.5,8.8,4.6,12c0.5,0.5,1.3,1.4,1.9,0.5c1-1.6,2.5-3.4,1.8-5.5c-0.9-2.7-1.6-5.6-3.5-7.8c-1.1-1.3-2.1-3.6-4-3.1 C132.2,392,133.6,394.4,133.3,395.4z M124.9,405.2c-1.5,0.1-3,0.1-4.4,0.2c-1,0.1-1.8,0.5-0.9,1.7c1.9,2.5,12.8,6.4,15.8,5.7 c0.9-0.2,1.7-0.7,1.9-1.6c0.3-1-0.1-1.7-0.9-2.3C133.2,406,129.2,405.2,124.9,405.2z M329.3,481.8c0,0.1,0.1,0.9,0.4,1.5 c2.7,4.3,6.7,6.7,11.5,7.8c1.2,0.3,1.6-0.4,1.5-1.5c-0.4-4.3-6.7-10.2-11.1-10.5C330,479,329.2,479.5,329.3,481.8z M367.7,413 c3.6-0.9,8-2.2,11.7-5.1c0.5-0.4,1.1-1,0.9-1.8c-0.1-0.7-0.8-0.7-1.4-0.9c-4.9-1.1-9.4,0.2-13.7,2.6c-1.3,0.7-2.8,1.5-2.1,3.4 C363.7,413.2,365.4,413,367.7,413z M155.1,417.8c1.1-0.2,2.3-0.4,3.6-0.7c1.4-0.3,1.4-1.1,0.7-2.2c-2.1-3.2-9.1-5.3-12.5-3.6 c-1.6,0.8-2.7,0.8-3.9-0.5c-0.6-0.7-1.4-1.7-2.4-0.4c-0.6,0.9-1.7,1.9-1,3.2c0.7,1.3,1.8,0.8,2.8,0.2c1.3-0.7,2.4-1.2,3.6,0.3 C148.3,416.9,151.6,417.4,155.1,417.8z M159,490.8c3.9,0,10.7-4.7,11.9-8.4c0.8-2.4-0.2-3.4-2.8-3.1c-6,0.7-8,5.6-10.6,9.8 C156.7,490.4,157.9,490.8,159,490.8z M434.4,414.2c-0.1-0.6-0.2-1.8-0.5-3c-0.4-1.3-1.1-1.8-2.4-0.7c-2.4,2-5,8.8-3.8,11.5 c1,2.3,1,4.1-0.6,5.9c-0.5,0.6-1,1.4-0.1,2.1c0.7,0.5,1.6,0.9,2.5,0.5c1-0.4,0.9-1.2,0.5-2c-0.8-1.6-0.2-2.8,0.9-4 C433.5,421.7,434.2,418.4,434.4,414.2z M335.3,477.5c3.3-0.3,6.9-1.9,9.6-5c0.8-0.9,1.8-2.1,1-3.5c-0.7-1.3-2-0.4-3-0.3 c-1.2,0.1-2.4,0.2-3.6,0.3c-3.3,0.4-5.7,1.8-7.1,5.1C331.3,476.7,331.6,477.5,335.3,477.5z M178.2,489.5c0.3-2.5-0.3-4.9-1.9-7.2 c-1.4-1.9-2.3-1.6-3.5,0.3c-2.9,4.7-1.1,9,1.1,13.3c0.4,0.8,0.6,1.9,1.8,1.7c1.1-0.1,1.7-1.1,1.9-2.1 C178.1,493.6,178.4,491.7,178.2,489.5z M322.2,489.6c0,1.2-0.1,2.2,0,3.2c0.3,1.9,0.5,4.3,2.5,4.7c2.1,0.4,2-2.3,2.8-3.6 c0.6-1.1,1-2.4,1.2-3.7c0.6-3.1,0-5.9-2-8.4c-1-1.1-1.6-1.6-2.5,0.2C322.9,484.4,321.7,486.9,322.2,489.6z M145.7,409.1 c0.5-0.2,1.3-0.4,1.9-0.8c3.8-2,5.9-5.5,7.7-9.2c1-2.1,0-2.2-1.6-2.1c-3.4,0.2-9.9,5.6-10.8,9C142.3,408.2,143.4,409,145.7,409.1z M353.9,408.8c3.4,0,4.4-1.2,3.3-3.3c-2.2-4.3-5.7-7-10.3-8.4c-0.8-0.2-1.9-0.7-2.5,0.3c-0.5,0.8,0.4,1.4,0.7,2.1 c0.4,0.8,0.7,1.7,1.2,2.4C348.4,405.1,350.8,407.9,353.9,408.8z M157.7,468.9c-0.5,0.1-2-1.3-2.8,0.4c-0.5,1.1-0.1,2.2,0.7,3 c2.9,3,6.5,4.9,10.8,5.2c2.3,0.1,2.7-0.8,1.8-3C166.3,470,162.8,468.7,157.7,468.9z M424.3,225.6c0.1,0,1,0,1.9-0.2 c1.4-0.5,3.5-0.3,3.4-2.6c-0.1-2-1.7-2.3-3.2-3c-3.4-1.5-6.8-0.6-10.2,0.1c-1.1,0.2-2.3,0.6-2.3,1.9c0,1.2,1,2,2.1,2.3 C418.4,224.7,420.9,225.6,424.3,225.6z M79,219.2c-2.3-0.2-4.4,0.2-6.4,1.2c-1,0.5-1.9,1.3-1.9,2.5c0,1.4,1.2,1.7,2.2,2 c4.2,1.5,8.2-0.2,12.2-1.1c0.8-0.2,1.5-1,1.5-2c-0.1-1.1-1-1.5-1.8-1.7C82.9,219.7,80.9,219.1,79,219.2z M77.9,208.1 c-0.4-0.6,0.7-2.5-1.4-1.9c-4,1.2-8.4,7.3-8.7,11.5c-0.1,2.1,0.4,2.6,2.6,1.8C75.6,217.4,77,213,77.9,208.1z M75.4,439.9 c-0.1-1.5,0-3-0.3-4.5c-0.2-1.3-1.1-2.1-2.4-2.3c-1.5-0.2-1.6,1.1-2.1,2c-2.2,4.2-1.5,8.3,0.2,12.3c0.3,0.6,0.3,1.5,1.2,1.5 c1,0.1,1.3-0.8,1.7-1.4C75.3,445.3,75.7,442.7,75.4,439.9z M424.9,439.2c0,3.7,0.1,6.7,2.3,9.1c0.7,0.8,1.7,1.5,2.3,0 c1.8-4.7,2.8-9.4-0.1-14c-1.1-1.7-2.7-1.5-3.7,0.3C424.8,436.2,425,438.1,424.9,439.2z M57.3,441.6c4.1-0.1,9.8-3.6,11.3-6.5 c0.5-1,1-2,0.2-3c-0.9-1.1-2.1-1.2-3.2-0.7c-3.9,1.6-6.8,4.3-9.1,7.8C55.4,440.7,56.2,441.6,57.3,441.6z M344.8,417.7 c2.4-0.3,4.9-0.3,7.1-1.5c1.2-0.7,3.1-1.3,2.5-3.2c-0.6-2-2.3-3.1-4.5-2.7c-2.3,0.4-4.7,0.9-6.7,2.4c-1.3,1-3.8,1.5-3.3,3.4 C340.5,418.1,343,417.5,344.8,417.7z M433.2,431.1c-2-0.1-2.8,1.3-1.9,3.5c1.3,3.2,7.7,7.2,11.2,7c1.3,0,1.8-0.6,1.4-1.9 C443,436.5,436.6,431.3,433.2,431.1z M432,216.6c-0.1-3.8-4-9-7.6-10.4c-1.7-0.6-1.6,0.5-1.6,1.5c0.1,4.6,1.7,8.3,5.9,10.7 c0.8,0.5,1.6,1.4,2.7,0.8C432.4,218.6,431.9,217.4,432,216.6z M59.6,237.5c-0.1,4.1,0.4,4.7,2.6,3.6c3.2-1.6,5.7-8.2,4.4-11.5 c-0.9-2.4-2.2-2.7-3.9-0.7C60.5,231.6,59.5,234.6,59.6,237.5z M442.7,422.1c-4,0.1-7.6,1.1-9.1,2.5c-0.8,0.8-1.6,1.6-1.3,2.8 c0.3,1.3,1.4,1.6,2.5,1.8c2.7,0.6,9.5-2.3,10.8-4.6c0.8-1.4,0.4-2.3-1.2-2.5C443.8,422,443.1,422.1,442.7,422.1z M428.6,227 c0.1,0-0.5,0-1.1,0.1c-2.3,0.6-6.8,7.5-6.6,9.8c0.1,1.5,1.2,1.5,2.1,1.1c3.7-1.9,7.1-4,8.4-8.3C432.2,227.4,431.3,226.9,428.6,227 z M63.9,429.4c1.5-0.5,3.7,0.1,4.1-2.1c0.4-2.1-1.3-3-2.8-3.7c-2.8-1.3-5.9-1.8-9-1.5c-1.6,0.2-2.7,1-1.4,2.5 C57.3,427.1,60.3,428.8,63.9,429.4z M66.1,415.4c-0.2,2.8,0.9,5.3,2.3,7.6c0.5,0.8,1.1,1.8,2.2,1.7c1.3-0.2,1.7-1.3,1.9-2.4 c0.7-2.7-0.1-5.3-1.2-7.8c-0.8-1.9-2-4.5-4-4.2C65.9,410.6,66.3,413.6,66.1,415.4z M71.3,227c-2.5-0.1-3.1,0.7-2.2,3.1 c1.6,3.9,4.7,6.3,8.3,8.1c1.6,0.8,2.5-0.2,1.9-1.6c-1-2.7-1.8-5.5-3.8-7.7C74.4,227.7,73,227,71.3,227z M473,259.5 c0,3.1,0.1,5.4,1.5,7.3c0.6,0.9,1.3,2,2.6,1.5c1.1-0.4,1.8-1.2,2-2.4c0.5-3.6-0.2-6.9-2.3-9.9c-0.6-0.8-1.2-1.8-2.3-1.7 c-1.4,0.1-1,1.5-1.2,2.4C473.1,257.9,473,259.1,473,259.5z M440.7,239.3c-0.6-4.2-0.3-8.2-3.9-11c-1.4-1.1-1.8-1.2-2.9,0.3 c-2.3,3.2,1.7,11.4,4.9,12.5C440.9,241.9,440.5,240.1,440.7,239.3z M40.8,147.7c2.8,0,5.3-0.5,7.6-1.8c1.2-0.7,1.9-1.7,1.6-3.2 c-0.4-1.6-1.5-1.8-2.9-1.9c-2.7-0.1-5,1-7.2,2.3c-1.3,0.8-3.2,1.6-2.8,3.4C37.6,148.4,39.7,147.4,40.8,147.7z M189.5,485.2 c1.7,0.2,1.9-0.6,1.1-1.9c-1.9-3.6-5.4-4.7-8.9-5.8c-1.8-0.6-3.2-0.3-3.9,1.5c-0.7,1.8,0.5,3.2,2,3.8 C182.9,484.1,186.1,484.9,189.5,485.2z M424.7,432.2c-0.4-2-1.8-1.7-3-1.1c-3.9,1.9-6.6,4.9-8.4,8.9c-0.3,0.6-0.7,1.3,0,1.9 c0.6,0.5,1.4,0.4,2,0c2.2-1.2,4.5-2.2,6.4-3.7C423.5,436.8,423.5,434.2,424.7,432.2z M21.2,263c0,3.6,0.3,4.8,1.6,4.9 c2,0.2,3.2-1.1,3.8-2.8c1-3.2,1.1-6.4,0.2-9.7c-0.4-1.5-1.3-1.7-2.3-0.5C22.4,257.4,20.9,260,21.2,263z M311.8,485.2 c3-0.4,5.9-0.9,8.6-2.3c1.5-0.8,2.4-2.2,1.9-4c-0.3-1.1-1.3-2.3-2.3-1.9c-3.6,1.2-7.3,2.3-9.8,5.4c-0.5,0.7-0.8,1.4-0.3,2.2 C310.3,485.3,311.1,485.2,311.8,485.2z M87.2,441.2c-0.1-3.4-6.9-10.3-9.9-10.5c-1.4-0.1-1.7,0.6-1.4,1.9c1.4,4.8,4.6,7.8,9.2,9.3 C86.3,442.3,87.2,442.2,87.2,441.2z M452.8,245.6c0.4-4.6-1.2-8.3-2.1-12.1c-1.2-4.8-1.2-4.8-5.9-4.2c-0.8,0.1-1.8-0.1-2,0.9 c-0.3,1,0.5,1.7,1.2,2.2c2,1.5,3.3,3.7,4.5,5.9C449.7,240.6,451.1,242.8,452.8,245.6z M488,274.7c2.8-0.2,5.3-0.7,7.5-2.4 c1.6-1.2,1.4-2.7-0.5-3.3c-2.8-0.9-5.7-1.4-8.4,0.2c-1.3,0.8-4.1,0.8-3.6,2.9C483.5,274.3,486.1,274.5,488,274.7z M52.3,136.9 c-0.1-2.4-3.9-6.8-8-8.8c-0.5-0.3-1-0.8-1.6-0.5c-0.8,0.4-0.5,1.2-0.4,1.9c0.5,3.1,2.2,5.7,4.1,8.1c0.9,1.2,2.5,1.6,4,1.7 C51.7,139.4,52.4,138.8,52.3,136.9z M29.8,286.1c0.4-4.3-1.6-7-3.7-9.5c-0.6-0.7-1.7-1.5-2.2-0.4c-0.7,1.3-3.3,0.9-2.5,3.4 c1.2,3.8,4.2,6.1,6.9,8.7c0.9,0.9,1.4,0.2,1.5-0.8C29.9,286.8,29.8,286.1,29.8,286.1z M12,274.7c0.7,0,1.4-0.1,2.1-0.1 c1.6-0.1,2.8-0.8,3.1-2.4c0.3-1.5-1.1-1.9-2.1-2.5c-3.2-2-6.6-1.3-9.8-0.6c-2,0.5-2.2,1.8-0.4,3.1C6.9,273.9,9.3,274.8,12,274.7z M458.8,147.7c1,0,1.8,0,2.5-0.2c1.8-0.4,2.5-1.8,1-2.9c-2.9-2.1-5.9-4.4-10-3.7c-2.5,0.4-3.1,1.6-1.6,3.6 C452.7,147.4,456,147.2,458.8,147.7z M118.1,100.1c-0.1,1.4,0.4,2.2,1.9,2.1c3.1-0.2,9-6,9.2-9c0.1-1.5-0.7-2.1-2-1.5 c-2.7,1.3-5.5,2.3-7.5,4.7C118.7,97.5,118.1,98.7,118.1,100.1z M449.8,139.2c0.3-0.1,0.8-0.2,1.3-0.3c3.3-0.9,7.4-7.2,7-10.5 c-0.2-1.2-0.7-0.9-1.5-0.6c-4.1,1.9-7.3,4.6-8.6,9.2C447.5,138.8,448.3,139.1,449.8,139.2z M372.3,91.7c-1.5-0.2-1.8,0.1-1.7,1.2 c0.4,3,6.5,8.8,9.5,9.2c1.9,0.2,2.3-0.6,2-2.3C381.5,96.7,376.2,92.2,372.3,91.7z M475.5,275.7c-0.3,0.1-0.7,0.3-1.1,0.6 c-2.7,1.8-4.9,8.3-3.9,11.3c0.3,1,0.8,1.1,1.5,0.5c2.6-2.3,5.2-4.6,6.6-8C479.1,279.1,476.9,275.8,475.5,275.7z M489.5,285.9 c-0.1-2.8-1-5.5-2.5-7.8c-1-1.6-3.1-3.3-4.9-2.3c-1.8,1-1.5,3.4-0.5,5.4c1.4,2.5,3.4,4.4,5.5,6.1c0.5,0.4,1.1,1,1.8,0.5 C489.7,287.4,489.4,286.6,489.5,285.9z M11.5,288.2c3,0.1,8.7-7.9,7.7-10.8c-0.6-1.9-1.5-2.6-3.4-1.2c-2.6,1.8-5.7,8-5.2,11.1 C10.7,287.8,10.9,288.2,11.5,288.2z M19.7,267.1c-0.1-4.9-3.4-8.1-7.4-10.8c-1.2-0.8-1.6,0-1.5,1.1c0.5,4.9,2.5,8.9,7,11.4 C19.4,269.9,19.9,269.1,19.7,267.1z M84.9,418.9c-0.1-1.2-0.9-1.7-2.4-1.2c-3,1.1-5.6,2.8-7.5,5.6c-0.8,1.1-1.1,2-0.2,3.2 c0.9,1.2,2,1.6,3.3,1.2C80.2,427,84.8,421.2,84.9,418.9z M440.5,129.8c-0.3,2.6,0.5,4.9,1.8,7.1c0.6,1.1,1.6,1.5,2.8,1.1 c1.1-0.3,1.1-1.3,1.1-2.2c0-2.3,0.3-4.6-0.7-6.8c-0.9-1.8-1.1-4.9-3.5-4.5C439.8,125,440.9,128,440.5,129.8z M54.2,133.9 c0,0.6-0.1,1.2,0,1.8c0.1,1.1-0.5,2.6,1.3,2.9c1.6,0.3,2.2-0.9,2.8-2.1c1.9-3.4,1.6-6.8,0.8-10.4c-0.2-0.7-0.4-1.4-1.1-1.6 c-0.9-0.3-1.2,0.4-1.6,1C54.5,128,54.1,130.9,54.2,133.9z M451.7,155.5c0.2-2.2-0.4-3.9-0.6-5.7c-0.3-1.9-1-3.4-3-3.3 c-1.7,0.1-3.2,2.9-2.8,4.8c0.4,1.8,0.9,3.5,1.9,5c0.9,1.3,1.5,3.6,3.4,3.1C452.5,158.8,451.4,156.5,451.7,155.5z M422.8,427.7 c2.5,0.2,3.7-1.6,2.7-3.8c-1.6-3.7-5-5.3-8.4-6.5c-1.6-0.6-1.6,0.9-1.3,1.8c0.7,1.8,1.6,3.6,2.7,5.3 C419.5,426,420.9,427.5,422.8,427.7z M47.8,244.5c3.1-4.3,5.3-9,9.1-12.6c0.6-0.5,1.1-1.3,0.3-2.1c-0.9-1-6.2-0.4-6.6,0.9 C49.2,235.1,48,239.7,47.8,244.5z M332.1,466.2c0-1.5,0-3.3-0.5-5c-0.2-0.6-0.3-1.4-1.2-1.5c-0.7-0.1-1,0.6-1.3,1 c-2.2,3.1-3.1,6.5-2.2,10.4c0.3,1.1,0.2,2.2,1.7,2.3c1.5,0.1,2.4-0.5,2.9-1.9C332,469.8,332.1,468.2,332.1,466.2z M173.6,468.7 c0.3-2.9-0.6-5.5-2.4-7.7c-0.9-1.1-1.8-1.5-2.2,0.3c-0.5,2.4-1.5,4.8-1.1,7.3c0.3,2.1,0.3,5.2,3.1,5.3 C174.3,473.8,173.2,470.7,173.6,468.7z M480.7,267.3c0,2,0,2,1.3,1.6c3.8-1.2,7.7-7.2,7.4-11.3c-0.1-1.3-0.6-1.6-1.7-1 C483.8,259.1,481,262.4,480.7,267.3z M104,433c-4.3-1-6.3,2.5-8.7,5.2c-0.8,0.9-0.3,2.1,1,2c4.1-0.4,8.1-1.1,10.8-4.8 c1.1-1.5,1.1-2.4-1-2.4C105.5,433,104.9,433,104,433z M183,463.4c0-1.1-0.8-1.5-2.2-0.5c-2.8,2.1-4.9,4.7-5.1,8.3 c-0.1,1.3-0.5,2.8,1.3,3.2c1.6,0.4,2.9-0.2,3.7-1.7C182.2,470,182.7,467.1,183,463.4z M397.5,432.9c-1.8,0.1-2.8,0.1-3.8,0.3 c-0.8,0.2-1.5,0.6-0.9,1.7c1.6,2.9,7.9,5.8,11.2,5.1c1.2-0.2,1.7-0.9,0.9-1.8C402.8,435.5,401.1,432,397.5,432.9z M466.8,312.7 c-8.7,4.8-12.7,13.1-16.4,21.5c0.2,0.1,0.4,0.3,0.6,0.4C456.3,327.4,461.5,320.1,466.8,312.7z M324.3,471.2 c0.4-3.8-2.2-5.9-4.7-8.1c-0.5-0.4-1-1.1-1.8-0.8c-0.8,0.3-0.5,1.2-0.6,1.8c-0.1,2.9,0.8,5.6,2.2,8.2c0.8,1.5,1.7,2.5,3.4,2 C324.6,474,324.3,472.5,324.3,471.2z M33.5,312.2c5.5,7.1,9.9,14.9,15.7,21.7C46,325.2,41.7,317.3,33.5,312.2z M129.8,423.6 c2.7-0.7,5.1-2.7,7.5-4.7c2.4-2,2.1-3.2-0.8-4.2c-0.8-0.3-1.3-0.1-2,0.3c-2.5,1.5-4.9,3.1-6.6,5.5c-0.5,0.6-1.3,1.2-0.8,2.1 C127.6,423.4,128.5,423.5,129.8,423.6z M359.5,420c0.1-2.2-0.5-3.2-1.9-3.7c-1.3-0.4-2.3-0.1-3.1,1.1c-1.9,2.9-2.1,6.1-1.5,9.5 c0.2,1.1,1,1.7,1.9,0.8C357.2,425.4,358.8,422.6,359.5,420z M363.7,415c-0.7,0-1.7,0.3-2.2,1.3c-0.4,0.6,0.1,1.1,0.5,1.6 c2.2,2.5,5.2,4,7.9,5.8c1.1,0.7,2.1-0.3,3-0.8c0.5-0.3,0.5-0.7,0.3-1.3C372.5,419,366.7,414.9,363.7,415z M147.8,424.6 c-0.3-1.7-0.4-3.7-1-5.6c-0.6-1.9-2-3.5-4.2-2.6c-2.1,0.8-2.1,2.8-1.3,4.6c0.8,1.8,1.8,3.5,2.9,5.2c0.6,0.9,1.2,2.2,2.4,1.8 C147.9,427.5,147.6,426,147.8,424.6z M432.7,133.5c0.1,3.9,2.3,7.1,5.6,8.3c0.9,0.3,1.9,0.9,2.8,0c0.8-0.8,0.6-1.9,0.2-2.8 c-1.5-3-3.2-5.9-7-6.7C432.9,132,432.5,132.1,432.7,133.5z M58.9,140c-0.1,1.8,0.5,2.4,2.2,2.1c3.7-0.6,6.7-4.5,6.7-8.3 c0-1.1-0.5-1.4-1.5-1.3C63.4,132.7,59.1,137,58.9,140z M393.4,431.2c5.2,0.5,8-3,10.8-6.4c0.2-0.3,0.4-0.8,0.3-1.1 c-0.3-0.7-1-0.6-1.6-0.4c-4.1,0.8-7.7,2.5-10.6,5.6c-0.5,0.5-0.9,1.2-0.4,1.9C392.3,431.5,392.9,431.4,393.4,431.2z M106.5,431.3 c1.1,0.1,1.5,0,1.8-0.6c0.4-0.7,0-1.4-0.4-1.9c-2.8-3.4-6.7-4.7-10.9-5.4c-0.9-0.2-1.6,0.3-0.9,1.4 C98.6,428.6,101.8,431.1,106.5,431.3z M390.5,380.5c0.8,2.6,1.5,5.6,3.6,7.8c0.6,0.7,1.4,1.4,2.2,0.3c1-1.5,2.1-3.1,0.9-4.9 c-1.1-1.7-2.4-3.4-3.7-5c-0.5-0.6-1.3-1-2.1-0.5C390.5,378.7,390.4,379.5,390.5,380.5z M433.8,213.7c1.3,1.5-1,4.8,1.5,5.4 c2.1,0.5,3-2.6,4.2-4.4c0.1-0.1,0.1-0.2,0.1-0.3c0.6-2.1-0.5-3.6-1.9-5c-0.6-0.5-1.3-1.2-2.1-0.7c-1.4,1-1.3,2.8-1.7,4.3 C433.8,213.1,433.8,213.2,433.8,213.7z M442.3,222.2c-1.3,0-1.8,0-2.3,0c-1.2,0-2.6-0.1-2.9,1.4c-0.3,1.5,0.9,2.3,2.1,2.9 c2.3,1.1,4.6,1,7,0.5c2.1-0.4,2-1.6,0.9-3C445.7,222,443.6,222.1,442.3,222.2z M89.7,103.5c0-2,0.1-3.9,0-5.9 c-0.1-0.9-0.6-1.8-1.6-1.9c-1.2-0.2-1.4,0.9-1.6,1.7c-1.1,4-0.6,7.8,1.7,11.4c0.3,0.5,0.7,1.1,1.4,0.8c0.5-0.2,0.5-0.8,0.5-1.3 C89.8,106.7,89.7,105.1,89.7,103.5z M57.9,227.3c1.1,0.2,2.6-0.5,4.1-1.4c0.7-0.4,1.1-1.1,1-2c-0.2-1-0.7-1.7-1.7-1.8 c-2.1-0.2-4.2-0.3-6.2,0.3c-1.4,0.4-2.6,1.5-2.6,3c0,1.8,1.8,1.4,3,1.7C56.1,227.3,56.7,227.3,57.9,227.3z M410.7,102 c0.1,2.7-0.3,4.9,0.5,6.9c0.3,0.7,0.7,1.7,1.6,0.6c1.7-2.1,2.2-10.3,0.9-12.8c-0.3-0.5-0.5-1.1-1.2-1.1c-0.9,0-1.2,0.7-1.3,1.4 C410.8,98.9,410.8,100.8,410.7,102z M29.3,273.9c1.8-0.5,4.2-1.1,6.6-1.9c1.3-0.4,0.8-1.3,0-1.7c-2.5-1.2-5.1-2.3-8-1.5 c-1.2,0.3-3.1,0.4-2.6,2.5C25.6,273,26.8,274,29.3,273.9z M66.3,214.4c-0.2-1.2-0.3-2.6-0.6-4c-0.4-2-1.7-2.3-3.2-1 c-2.1,1.9-2.4,4.7-0.6,7.3c0.8,1.1,1.6,2.8,3.1,2.4c1.4-0.3,0.6-2.1,1-3.2C66.1,215.5,66.2,215,66.3,214.4z M156.3,465.2 c0,0.3,0,0.5,0,0.8c2.8,0.6,5.5,1.3,8.3,1.8c1.4,0.3,1.7-0.8,1.6-1.9c-0.2-1.7,0.9-3.5-0.6-5c-0.1-0.1-0.6,0.1-0.8,0.2 C161.9,462.5,159.1,463.9,156.3,465.2z M109,380.8c-0.1-0.6,0.5-2-0.7-2.5c-1.5-0.7-1.9,1.1-2.6,1.9c-1,1.1-1.8,2.4-2.6,3.6 c-0.6,0.9,0.8,4.9,1.8,5.2c1.7,0.5,1.6-1.4,2.3-2.2C108.8,385.3,109,383.3,109,380.8z M60.4,317.7c0.2-3.2-1.4-5-3.9-6.3 c-1.6-0.8-2.4-0.4-2.4,1.5c0.1,2.3,1,4.2,2.3,6c0.8,1,1.7,1.8,3,1.4C60.8,319.9,60.3,318.5,60.4,317.7z M344.1,466.1 c0-0.3,0.1-0.5,0.1-0.8c-1.9-1-3.8-2-5.8-3c-1.2-0.6-2.5-2.1-3.7-1.3c-1.4,0.9-0.4,2.8-0.5,4.2c-0.1,1.2-0.1,2.6,1.8,2.3 C338.7,467.1,341.4,466.6,344.1,466.1z M439.1,144.7c-0.9,0.4-2.5-1-3.1,0.9c-0.5,1.6,0.3,6.3,1.3,6.4c2.3,0.3,3.2-1.6,4.3-3 c0.7-0.9,2.2-1.8,1.4-3.3C442.1,144.3,440.7,144.4,439.1,144.7z M64.5,147.8c0.5-4-2.8-2.8-4.5-3.4c-1.2-0.4-2.4,0.8-2.7,2.2 c-0.2,1.3,4.2,5.9,5.3,5.6C64.9,151.4,63.8,149,64.5,147.8z M59.6,301.3c1.9,0.3,2.3-0.6,1.9-2.2c-0.4-1.6-1.4-2.6-3.2-2.6 c-1.7,0-3.3-0.3-4.9-1.1c-0.6-0.3-1.3-0.9-1.9-0.1c-0.5,0.6,0.1,1.4,0.4,1.9C53.7,299.9,56.5,300.8,59.6,301.3z M440,317.4 c0.2,0.9-0.3,2.3,0.9,3c0.8,0.5,1.7,0,2.1-0.6c1.6-2.1,2.8-4.3,2.8-7c0-1.6-0.9-2.3-2.3-1.4C441.5,312.7,439.8,314.4,440,317.4z M449.1,295.9c0-0.6-0.6-1.2-0.9-0.9c-2.2,2-4.9,1-7.3,1.8c-1.5,0.5-2.3,2.1-1.8,3.6c0.5,1.7,1.9,0.8,3,0.7c2.3-0.3,4-1.6,5.7-3 C448.5,297.6,448.9,296.8,449.1,295.9z M420.8,310.3c4.2-1.1,7.9-3,11-6.2c0.2-0.2,0.3-0.8,0.1-1.1c-0.2-0.5-0.8-0.5-1.3-0.4 C426.2,303.5,423.2,306.5,420.8,310.3z M88.2,151.2c0,1.8-0.2,3.6,1.7,4c1.9,0.4,2.1-1.4,2.6-2.6c0.3-0.7,0.7-1.5,0.7-2.3 c0.1-1.7-0.3-3.5-2.1-3.9c-1.6-0.3-2.1,1.5-2.6,2.7C88.2,149.9,88.3,150.8,88.2,151.2z M79.4,310.3c-2.2-3.8-5.1-6.7-9.5-7.5 c-0.6-0.1-1.2-0.6-1.6,0c-0.4,0.6,0.1,1.2,0.5,1.6C71.7,307.5,75.6,308.9,79.4,310.3z M63.3,157.4c0-1,0.1-2.2-1.1-2.9 c-1-0.6-2.1-1.7-3.2-0.8c-1.1,0.8,0.2,1.8,0.4,2.6c0.3,1.3,0.6,2.5,0.7,3.8c0.1,1.2,0.2,2.4,0.8,3.5c0.3,0.5,0.6,1.1,1.3,1 c0.6-0.1,0.5-0.8,0.6-1.3C63,161.4,63.1,159.5,63.3,157.4z M398.7,388.5c-0.1,1.7,0.5,2.5,2.3,1.7c2.6-1.1,4.1-3.3,5.7-5.5 c0.6-0.8,0.2-1.2-0.7-1.4C403.1,382.7,398.8,385.7,398.7,388.5z M412.2,151.3c-0.1-0.5-0.3-1.5-0.7-2.4c-0.5-1.1-1.1-3.2-2.2-2.6 c-1.2,0.7-2.9,2.3-2.3,4.4c0.2,0.8,0.6,1.5,0.9,2.2c0.5,1,0.4,2.8,2.1,2.3C411.6,154.8,412.2,153.4,412.2,151.3z M397.5,144.9 c1.7,0.1,3.1-0.6,4.4-1.5c0.6-0.4,1.2-0.8,1-1.6c-0.2-0.8-0.9-1-1.6-1.1c-2.2-0.7-4.3-0.4-6.3,0.5c-0.7,0.3-1.5,0.7-1.4,1.7 c0.1,0.9,0.7,1.4,1.5,1.7C395.9,144.7,396.7,144.7,397.5,144.9z M409,107.8c-0.8-2.6-0.3-5.8-3.4-7.2c-1.3-0.6-2.5-0.6-2.3,1.3 c0.3,2.8,1.8,5,3.7,7c0.4,0.4,1,0.6,1.6,0.3C409.1,108.8,409.1,108.3,409,107.8z M94.2,383c-0.7,0-1.1,0.4-0.7,1.1 c1.4,2.1,2.6,4.5,5.2,5.5c0.9,0.4,2,1,2.7-0.1c0.6-0.9,0.5-2-0.2-2.8C99.5,384.5,97,383.6,94.2,383z M398.7,134 c0.1,3.3,3.1,3.8,5,5.4c0.5,0.4,1.1,0.6,1.7,0.2c0.7-0.5,0.6-1.2,0.4-1.9c-0.6-2.7-2.9-3.7-4.8-5 C399.2,131.4,398.8,132.3,398.7,134z M94.9,146.7c0.4,2.1,1.4,4.3,3.9,5.4c1.3,0.6,2.7,0.2,2.2-1.5c-0.6-2.2-1.6-4.5-3.9-5.6 C95.7,144.3,94.8,144.5,94.9,146.7z M94.8,138.7c0.1,0.4-0.3,1.5,1.1,1.3c2.2-0.3,5.7-4,5.8-6.2c0-0.6,0.3-1.5-0.9-1.4 C98.1,132.4,94.8,135.7,94.8,138.7z M121.8,104.2c-1.1,0.6-3.5-0.2-3.7,1.3c-0.3,1.8,2,2.1,3.4,2.6c1.8,0.6,3.6,1,5.4,0.1 c0.6-0.3,0.5-1.1,0.2-1.6C126,104.5,123.9,104.8,121.8,104.2z M415.5,396.7c3.8-1.5,7.2-3.4,8.3-7.7c0.1-0.6,0.5-1.2-0.2-1.6 c-0.2-0.1-0.8,0.1-1,0.3C419.6,390.2,417,393,415.5,396.7z M405.5,147.2c0-1,0.1-1.8-0.6-2.3c-0.8-0.6-1.5,0-2.2,0.4 c-1.8,1.1-2.4,3.1-3.2,4.9c-0.3,0.6-0.4,1.4,0.3,1.9c0.7,0.6,1.5,0.3,2.2-0.1C403.9,150.9,404.9,149.1,405.5,147.2z M101.4,140.7 c-1.1,0.5-3.5-0.8-3.7,1.2c-0.2,1.9,2.3,2.3,4,2.8c0.7,0.2,1.6,0.1,2.3,0c1.4-0.2,2.6-0.8,2.6-2.3c-0.1-1.4-1.4-1.4-2.5-1.5 C103.3,140.7,102.6,140.8,101.4,140.7z M376,108.8c1.4,0.1,3.2-1,5.1-1.8c0.5-0.2,0.9-0.5,0.9-1.1c0-0.7-0.7-0.8-1.2-1.1 c-2.2-1-4.3-0.2-6.3,0.4c-1,0.3-2.1,1.1-1.7,2.4C373.1,108.8,374.2,108.7,376,108.8z M76.9,387.1c-0.3,4.4,3.4,8.6,8.6,9.8 C83.3,392.8,80.6,389.7,76.9,387.1z"></path> <path class="st0" d="M251.1,140c36.8,0,73.6,0,110.4,0c6.4,0,6.6,0,6.6,6.5c0,14.1-0.2,28.1-0.3,42.2 c-0.3,44.1-0.1,88.2-0.1,132.3c0,15.2-5.4,28.2-15.4,39.5c-11.3,12.8-25.9,20-41.9,24.7c-8.4,2.5-17.1,3.9-25.6,5.9 c-12.1,3-23.2,8-31.7,17.5c-1.3,1.5-2.7,2.6-4.6,0.4c-9.9-11.1-22.9-16.1-37.1-19.1c-15-3.2-30-6.3-43.5-14.3 c-16.8-9.9-28.8-23.5-33-43c-0.6-2.9-0.9-5.9-0.9-8.9c-0.4-18.9-0.1-37.9-0.2-56.8c-0.1-16.9-0.4-33.7-0.2-50.6 c0.4-23.6-0.4-47.2-0.1-70.9c0.1-5.2,0.3-5.5,5.7-5.5C176.5,139.9,213.8,139.9,251.1,140C251.1,139.9,251.1,139.9,251.1,140z M210.2,205.3c-0.2-1.1-0.4-2.1-0.5-3.2c-0.1-0.5,0.1-1,0.7-1.2c0.5-0.1,1.1,0.1,1.3,0.5c1.2,3.5,2.6,1.6,4.1,0.3 c0.4-0.3,0.7-0.7,1.4-0.4c0.1,0.2,0.2,0.5,0.2,0.8c-0.7,2.6-0.1,4.1,2.9,3.9c0.9-0.1,1.8,0.3,1.8,1.6c-0.4,0.1-0.7,0.3-1.1,0.3 c-2.8-0.1-2.9,1.1-2,3.3c0.8,1.9,2.1,3.4,3.5,4.8c1.7,1.7,3.2,1.8,4.6-0.4c1.2-1.9,2.5-3.8,4.6-5c2.3-1.4,2.4-3.4,0.8-5.2 c-1.8-2.1-1.3-3.3,1.1-4.1c0.2,1.2-0.1,2.5,0.7,3.5c2.6,3.1,0.5,5-1.5,7.3c-4.3,5.1-10.5,7.8-15.2,12.4c-1.8,1.7-4,3-6.7,2.7 c-1.8-0.2-2.6,1.1-3.3,2.5c-2.7,5.8-4.8,11.8-5.2,18.3c-0.1,1-0.8,2.2,0.2,2.8c1.3,0.7,1.8-0.8,2.5-1.6 c13.9-14.4,27.8-28.9,41.7-43.3c3.4-3.6,3.5-3.5,0.2-7c-17-17.7-33.9-35.4-50.9-53.2c-2.7-2.8-3.2-2.8-5.9,0 c-17.1,17.8-34.2,35.7-51.5,53.4c-2.2,2.3-2.3,3.4-0.1,5.6c13.2,13.6,26.3,27.3,39.4,41c2.1,2.2,4,4.6,6.6,6.4 c0.2-0.3,0.4-0.5,0.4-0.6c-0.5-8.2-2.7-15.9-6.5-23.1c-0.5-1-1.3-1.6-2.4-1.4c-2.1,0.4-3.6-0.8-5.3-1.6c-4.4-2-7-6.6-11.7-8.1 c-0.6-0.2-1.2-1.1-1.4-1.9c-0.6-1.9-1.9-2.9-3.6-3.8c-1.8-0.9-3.7-2.5-2.8-4.4c1.3-2.8,0.6-5.7,1.3-8.3c0.7-2.9,2.5-5.6,4-8.3 c0.7-1.3,2.2-1.6,3.7-1.5c1.6,0.1,3.1-0.2,4.6-1c1.2-0.7,2.6-1,4-0.6c0.9,0.3,1.8,0.3,2.6-0.3c2.5-1.8,4.2-0.6,5.8,1.4 c1.1,1.4,2,3.1,3.8,3.7c5.1,1.6,6.5,5.8,7.2,10.4c0.2,1.3,0.2,2.6,0.7,3.8c2.9,6.8,2.8,7.4-2.5,12.2c-1.6,1.4-1.8,2.6-0.5,4.3 c1.4,1.7,2.6,3.5,3.9,5.3c0.5,0.7,0.8,1.9,1.9,1.5c0.9-0.3,0.4-1.4,0.4-2.2c0-10.5,0.2-20.9-0.3-31.4c-0.1-2.8-1.2-4.4-3.6-5.5 c-2.7-1.3-6-1.7-8.2-4.2c-1.9-2.2-4.4-3.7-7.2-4.7c-2.3-0.8-3.2-2.5-2.1-5c0.6-1.4,1-2.8,1.2-4.3c0.4-2.3,1.7-3.9,3.8-4.6 c1.7-0.6,2.8-1.5,3.5-3.3c1.2-3.4,3.1-4.2,6.7-3.3c0.9,0.2,1.5-0.1,2.1-0.7c4.5-4.3,6.2-4.4,11.2-0.4c0.8,0.6,1.4,1.5,2.6,1 c3.1-1.3,4.7,0.7,6,2.9c0.9,1.6,1.9,3.2,3.6,3.8c3.1,1.1,4.2,3.4,4.4,6.4c0.1,1,0.4,2,0.6,2.9c0.8,3.1-0.5,5.2-3.7,5.3 c-1.7,0.1-2.5,0.6-3.3,2c-1.1,2-2.7,3.3-5.2,2.9c2-1.4,3.2-3.4,4.4-5.4c0.7-1.1,1.9-0.9,3-0.8c1.1,0.1,2.5,0.1,2.6-1.3 c0.2-3-0.2-5.9-1.1-8.8c-0.3-0.8-1.2-1.6-2.1-1.5c-2.8,0.3-3.8-1.1-4.2-3.7c-0.2-1.5-1.7-2.6-3.1-3.5c-1.4-0.9-2.1,0.4-3,1 c-0.9,0.6-1.4-0.2-2-0.8c-4.6-4.6-5.6-4.6-10.5,0.2c-0.5,0.5-0.9,0.9-1.8,0.6c-4-1.4-4.4-1.2-5.9,2.8c-0.5,1.2-0.7,2.9-2.2,2.9 c-3.5,0.2-4.6,2.1-4.7,5.2c0,1-0.7,1.9-1.3,2.7c-1.1,1.6-0.4,3,1.2,3.2c4,0.3,6,3.3,8.4,5.6c1,1,1.9,2.3,3.7,1.7 c0.1-1.1-0.7-1.5-1.1-2.2c-0.6-1.1-2.3-1.9-1.4-3.3c0.9-1.4,2.5-1,3.8-0.5c2.3,0.8,3.4,0.4,3.6-2.4c0.2-2.3,1.1-5.1,3.4-5.4 c2.3-0.4,2.8,2.7,4,4.3c0.2,0.3,0.3,0.7,0.5,1.1c0.5,1.2,1.3,1.8,2.7,2c2.8,0.4,3.3,1.5,2.2,4c-0.6,1.6-2.3,2.7-1.8,4.8 c0.1,0.5-0.6,0.6-1.2,0.6c-4.2,0.2-4.9,0.9-4.9,5.1c0,10.6,0,21.2-0.1,31.7c0,0.6-0.2,1.2,0.7,1.7c1.4-1.8,3-3.6,4.3-5.5 c2.4-3.4,5.7-2.4,8.3-0.4c0.8,0.6,1.4,1.4,2.1,2.1c0.5,0.5,1.2,1,1.8,0.3c1.9-2,4.6-2.7,6.6-4.6c3-2.9,3-2.9,0-5.9 c-0.3-0.3-0.8-0.7-0.9-1.2C217.3,209.4,213.5,207.6,210.2,205.3z M314.5,336.8c0.2,0.1,0.3,0.3,0.5,0.4 c-0.5,9.4,0.3,18.7-0.6,28.1c-0.2,2.2,1.3,3.1,3.2,2.5c1.6-0.5,1.2-1.9,1.2-3c0-8-0.1-16,0-23.9c0-3.9,0.3-4.1,4.1-4.1 c3.7,0,7.4-0.1,11.1,0c2.5,0.1,3.4-1,3.3-3.4c-0.1-6.6,0-13.2,0-19.7c0-1,0-2,0-3c0-1-0.2-1.9-1.4-1.9c-1.1,0-1.5,0.9-1.6,1.8 c-0.1,1-0.2,2-0.1,3c0.1,2.3,0.5,4.6,0.4,6.9c-0.2,3.7-0.6,7.4-3.8,10.3c-0.6-1.1-0.3-1.8,0.1-2.5c1.6-3.5,1.4-7.2,0.7-10.8 c-0.4-2.4-0.9-4.7-1.2-7.1c-0.6-4.9,1.2-7.9,5.8-9.2c1.6-0.5,1.5-1.2,1.1-2.4c-3.9-10.4-1.3-20.9-1-31.4c0-0.7,0.3-1.4,1.1-1.6 c0.8-0.2,1.3,0.4,1.7,1c1.3,2,2.4,4.1,2.9,6.5c1.1,5,0.3,9.9,0.5,14.9c0.1,2.3,0.7,2.9,3.1,2.4c4.3-0.9,7.1,1.1,8.1,5.4 c0.7,3.2,0.3,6.4-0.9,9.4c-2,4.8-2.2,9.4,0,14.2c1.4,3.1,0.7,6.5,0.4,9.8c0,0.6-0.3,1.3-1,1.2c-0.7,0-0.8-0.6-0.7-1.1 c0.4-4.5-1.8-8-4.3-11.5c-2.4-3.3-2.4-6.8-0.9-10.5c0.6-1.6,1.3-3.2,1.3-4.9c0-1.3-0.5-2.6-2-2.9c-1.4-0.3-2.2,0.7-2.8,1.7 c-0.5,0.8-0.6,1.7-0.6,2.6c0,10.2,0,20.3-0.1,30.5c0,1.8,0.7,2.5,2.5,2.5c5-0.1,10-0.1,15,0c1.9,0,2.8-0.8,3.1-2.5 c0.6-4,1.5-8,1.5-12.1c0-18.7-0.1-37.3,0-56c0-2.6-0.8-3.5-3.5-3.5c-18.2,0.2-36.5,0.3-54.7-0.3c-10.5-0.4-21.1,0.8-31.7,0.5 c-6.3-0.2-12.6,0-18.8-0.1c-2.1,0-3.1,0.7-3,3c0.1,4,0,8,0,12c-0.1,18.7-0.2,37.5-0.3,56.2c0,2.2,1,2.7,2.9,2.8 c4.9,0.1,9.8-0.3,14.6,0.2c0.1,1.2,0.2,2.4,0.2,3.6c0,11.6,0,23.3,0,34.9c0,0.8,0,1.6,0,2.4c0,1.1,0.3,1.9,1.7,1.9 c1.3,0,2.1-0.5,2.2-1.9c0.1-1,0.1-2,0.1-3c0-11.1,0-22.3,0-33.4c0-4.1,0-4.1-4.1-4.6c-0.5-2.9-0.2-5.8-0.2-8.7 c-0.1-7.6,0-15.2-0.1-22.7c0-3.6-1.8-5.1-4.8-4.3c-2.9,0.7-3,3.3-2.8,5.5c0.4,3.6,1.2,7.1,1.8,10.6c0.8,4.5,0.7,8.8-1.9,13.5 c-0.9-2.6-0.8-4.8-1.3-6.9c-1.4-5.5-4.4-10.5-5.6-16.1c-2.1-10,3-13.8,11-10.9c1.9,0.7,2.4,0.1,1.8-1.8c-0.9-2.9-1.2-5.8-0.7-8.8 c1-6.3,3.6-12.3,2.7-18.8c-0.1-0.5,0.1-1.1,0.7-1.2c0.8-0.1,1.3,0.5,1.6,1.1c1.5,2.9,3,5.8,3.7,9.1c1.3,6.1,0.6,12.1-1,18 c-0.2,0.9-1.4,2.3,0.7,2.8c5.1,1.1,6.2,2.4,6.2,7.6c0,4.4-0.9,8.7-0.6,13.1c0,0.7,0.1,1.6-0.9,1.6c-0.8,0.1-1-0.8-1.3-1.4 c-1-2.6-1.2-5.2-1.1-7.9c0.1-2.1-0.1-4.2-1-6.1c-0.4-0.9-0.8-2.1-2-1.8c-1.1,0.2-0.8,1.5-0.8,2.3c0,9.6,0,19.1-0.1,28.7 c0,2.6,0.9,3.4,3.5,3.4c5.4,0,10.8-0.4,16.1,0.2c0.1,3.4,0.2,6.7,0.2,10.1c0,7.9,0,15.7,0,23.6c0,2.2,1.4,3.3,2.9,2.4 c1.2-0.7,1-1.9,1-2.9c0-9.5,0-19.1,0-28.6c0-4.1,0-4.1-4-4.6c-0.1-1.2-0.3-2.4-0.3-3.6c0-7.9,0-15.8,0-23.6c0-2.2-0.3-4.4-0.7-6.5 c-0.3-1.4-1.3-2.7-2.9-2.5c-1.7,0.3-1.5,1.9-1.4,3.1c0.1,0.9,0.2,1.8,0.5,2.6c3,8,2,16.2,0.7,24.4c-1.3-0.2-1.7-1.3-2.3-2.2 c-1.7-2.7-2.3-5.7-2.2-8.9c0.2-5.9,0.3-11.7-1.1-17.5c-1.3-5.3,0.6-7.9,5.6-10.1c1.4-0.6,2.1-1.2,1.5-2.9 c-2.5-7.9,0.7-14.9,3.5-21.9c0.2-0.5,0.5-1.2,1.2-1.2c0.9-0.1,1.1,0.7,1.4,1.3c1.1,2.2,1.5,4.5,0.9,7c-1.5,6.3-2.2,12.5-0.3,18.9 c0.6,1.9,0.6,3.9,0.6,5.9c0,1.9,0.3,3.1,2.3,3.9c1.8,0.7,2.8,2.5,3.2,4.5c0.5,2.4,0.6,4.7,0.6,7.1c0,5.2-0.9,10.4,1,15.4 c0.2,0.5,0.2,1.1-0.2,1.4c-0.6,0.5-1.1-0.1-1.5-0.5c-0.3-0.4-0.6-0.8-0.9-1.2c-2.6-3.1-2.9-6.9-2.9-10.7c0-3.3-0.1-6.5-1.6-9.6 c-0.4,8.3-0.4,16.5-0.4,24.8c0,1.8,1.1,2.3,2.8,2.3C305.2,336.8,309.8,336.8,314.5,336.8z M248.8,403.4c0.1-0.8,0.2-1.1,0.2-1.5 c0.1-24.8-0.2-49.7,0.4-74.5c0.2-6.9-0.2-13.8-0.3-20.6c-0.2-13.3,0-26.5,0-39.8c0-4.7,0-4.7-4.6-4.7c-34.3,0-68.6,0-102.9-0.1 c-2.9,0-3.8,0.8-3.8,3.7c0.1,18.3,0.4,36.7-0.2,55c-0.6,17.5,7.2,31.5,20.2,42.9c14.2,12.5,31.5,18,49.6,21.4 c11,2,21.5,5.2,31.2,10.7C242.1,398,245.3,400.7,248.8,403.4z M298.5,216c0.1-0.1,0.4-0.2,0.4-0.4c0.3-8.5,0.5-16.9-0.4-25.4 c-0.1-1.1-0.9-1.3-1.9-1.5c-8.2-2-14.6-6.8-19.4-13.6c-3.6-5.2-5.4-11.5-9.8-16.3c-1-1-0.5-1.9,1-1.8c1.6,0.1,3.2,0.2,4.8,0.5 c6.7,1.2,13.3,2.9,18.3,7.9c2.2,2.2,3.5,5.1,4.9,7.8c1,1.8,2.2,3.4,4.1,4.6c0.8-1.6,0.1-2.8-0.1-4c-1.1-5.1-0.5-9.5,4.3-12.6 c2.7-1.7,3.7-1.3,4.3,1.7c1.1,5.4,0.3,10.3-4,14.2c-1.9,1.8-2.7,4-1,6.8c0.4-0.5,0.7-0.7,0.9-1c3.3-6.6,7.5-12.7,11.5-18.8 c1.6-2.4,3.8-4,6.5-5c4.3-1.6,8.9-2.1,13-4.2c1.1-0.5,2.3-0.5,3.5-0.2c0.8,0.2,2-0.3,2.4,0.8c0.4,1.1-0.4,1.9-1.1,2.6 c-1.8,1.8-3.2,3.9-3.5,6.5c-0.9,6.5-5.7,9.9-11,11.8c-4.4,1.5-9.5,0.7-14.5,1.3c4-2.6,6.5-6.1,8.3-10.3c0.3-0.7,1.4-1.2,2-0.3 c1.9,3.3,3.1,0.6,4.1-0.6c1.1-1.6,2.1-3,4.1-3.6c2.5-0.8,4.8-1.9,7.2-3c0.9-0.4,1.5-1,1.2-2.1c-0.2-0.7-0.9-0.8-1.5-0.6 c-5.1,2-10.8,2.2-15.5,5.1c-5.3,3.2-7.5,9-10.4,14c-2,3.5-3,7.6-5.8,10.7c-0.7,0.8-1.5,1.8-0.5,3.6c1-0.8,1.7-1.8,2.5-2.9 c0.3-0.4,0.6-0.9,1.2-0.6c0.5,0.3,0.5,0.8,0.4,1.3c-0.2,1.4-0.4,2.8-0.5,4.2c-0.1,0.9-0.5,2,0.4,2.5c1.1,0.6,1.5-0.7,2-1.3 c2.8-2.8,5.7-5.2,10.1-4.9c1.7,0.1,3.5-0.5,5-1.6c4.9-3.7,10.5-4.6,16.4-3.5c1.3,0.2,3.6,0.4,3.3,1.7c-0.4,1.8-2.3,0.4-3.5,0.1 c-5.8-1.5-8.3,0-9.3,5.9c-0.2,1.4-1.1,2.9-0.3,4.4c0.3,0.6,0.7,1.1,1.4,0.9c0.9-0.3,0.4-1,0.2-1.4c-0.7-1.2-1-2.3,0.3-3.2 c1.6-1.1,3.2-2,4.4-3.6c0.6-0.8,1.3-0.4,2,0.3c2.2,2.2,3.7,2.3,5.5-0.5c1.5-2.4,2.7-1.7,4.2-0.4c1.8,1.5,1,2.6-0.2,4.2 c-2.7,3.7-7.5,3.9-10.6,6.9c-2.3,2.3-5.3,2.7-8.4,2.1c-1.4-0.3-2.9-0.6-4,0.4c-2.3,1.9-5,1.7-7.7,1.7c-2.3,0-4.6-0.1-6.9,0 c-3.2,0.2-5.8,2-6,4.4c-0.5,7.4-1,14.7-0.8,22.1c0,1.8,1,2.1,2.3,1.1c1.8-1.5,3.3-3.2,4.4-5.2c1.4-2.4,3.3-4.1,5.7-5.5 c3.7-2.1,7.8-4,10.7-7c5.4-5.7,12-5,18.6-4.6c2.9,0.2,3.5,1.6,2.6,4.4c-1.6,5.2-4.5,9.8-7,14.5c-1.5,2.8-4.1,4.5-7.4,5.1 c-1.9,0.3-3.6,1.1-5.2,2.2c-3.9,2.9-8.4,3.5-13.1,2.9c-1.7-0.2-3.3-0.2-5,0.5c-1.1,0.4-2.7,1.3-3.5-0.1c-0.8-1.3,1-1.9,1.8-2.7 c4.4-4.7,10.6-7.5,14.1-13.2c0.6-1,1.6-2.7,3-1.7c1.3,0.9-0.3,2.1-0.7,3.1c-0.1,0.3-0.3,0.5-0.4,0.8c-0.1,0.4-0.1,0.9,0.1,1.1 c0.4,0.5,0.9,0.2,1.3-0.1c2.5-2.2,5.6-3.9,6.5-7.6c0.5-1.9,1.5-3.5,3-4.7c0.5-0.4,1-0.7,1.6-0.4c0.7,0.4,0.4,1,0.2,1.6 c-0.3,0.9-1.4,1.9-0.3,2.7c1.1,0.8,2-0.5,2.8-1.1c0.5-0.3,1-0.7,1.4-1.1c1.1-1.3,4-1.8,3.4-3.6c-0.6-1.7-3.2-0.8-4.9-0.8 c-3.6,0-7.5-0.4-10.2,2.9c-1.6,2-3.9,3-6,4.4c-5,3.2-10.5,5.7-13.6,11.3c-0.9,1.7-2.5,3.2-4.1,4.3c-2.5,1.8-2.6,4.2-2.1,6.6 c0.5,2.4,3,1.9,4.6,2.5c1.6,0.5,2.8,0.6,2.2-1.8c-0.2-0.6,0-1.3,0.7-1.4c0.7-0.1,1,0.5,1.3,1c0.8,2-0.8,4.3-3,4.2 c-1.4-0.1-2.8-0.4-4.1-0.5c-1.4-0.1-1.9,0.9-1.9,2.1c0,1.2,0.5,2.1,1.8,1.6c2.5-0.9,3,1.3,4.1,2.6c0.5,0.6,0.4,1.4-0.3,1.8 c-0.9,0.5-1.2-0.3-1.5-0.9c-0.3-0.9-0.6-1.9-1.8-1.6c-1.4,0.4-1.9,1.8-2,3.1c-0.2,1.3,1,1.2,1.9,1.3c0.5,0,1.1,0,1.2,0.6 c0.2,0.6-0.4,0.9-0.8,1c-1.2,0.5-2.8,0.6-2.3,2.5c0.5,1.9,2.2,1.3,3.6,1.3c16.6,0,33.3,0,49.9,0.1c2.7,0,3.7-0.9,3.6-3.6 c-0.1-35.5-0.1-71-0.1-106.5c0-4.8,0-4.8-4.8-4.8c-34.1,0-68.2,0-102.3,0c-4.1,0-4.1,0-4.1,4.2c0,35,0,70,0,105c0,1.3,0,2.6,0,3.9 c0,1.4,0.6,2.2,2.2,2.1c13.6-0.4,27.3-0.7,40.9,0.1c2.4,0.1,3.4-0.7,3.4-3.2c0-4.7-0.3-5.1-4.9-5.5c-1.9-0.2-3.8,0.1-5.5,0.9 c-1.9,0.9-4,1.3-6.1,0.8c-10.7-2.5-17.5-9.6-21.9-19.3c-0.5-1.1-0.1-1.7,1.1-1.9c4.8-0.5,9.7-1.3,14.5-1.3 c8.3,0,14.5,4.3,19.6,10.5c0.8,0.9,1.1,2.9,2.7,2.2c1.3-0.6,0.5-2.3,0.4-3.6c0-0.3-0.1-0.6-0.2-0.9c-0.3-1.2,0-2,1.5-1.9 c0.9,0.1,1.9,0.4,2.2-0.8c0.3-1-0.3-1.9-1-2.4c-2.2-1.6-2.5-3.5-1.9-6c0.5-2-0.5-2.9-2.7-3.7c-3.2-1.2-6.4-1.8-9.7-1.9 c-3.2-0.1-5.7-2.4-8.7-3.1c-7.1-1.6-11.3-6.5-14.4-12.5c-1.9-3.5-3.1-7.3-5.4-10.6c-0.9-1.3-1-2.8-1-4.3c-0.1-2.4,1.3-3.5,3.3-3.2 c6.9,0.8,14.1-0.1,20.5,4.2c4,2.7,7.2,6,10.4,9.3c3.6,3.6,6.6,7.5,6.2,13.1C297.5,215.2,297.7,215.9,298.5,216z M176.6,200.1 c-0.1,0.6-0.1,1.1-0.1,1.5c-0.1,0.9-0.5,1.9,0.3,2.5c1,0.6,1.5-0.5,2.3-0.9c1.2-0.7,2.2-1.6,3.8-1.2c2.9,0.7,3.4,0,2.5-2.9 c-0.5-1.6-1.5-2.8-2.8-3.8c-1.4-1.1-3.6-1-4.5-2.3c-2.3-3.3-4.4-4.8-8.8-3.7c-2,0.5-4.3-0.5-5.9,1.8c-0.3,0.4-0.8,0.5-1.3,0.4 c-4.7-0.3-4.7-0.3-6.3,4.1c-0.2,0.7-0.4,1.4-0.9,1.9c-1.6,1.7-1.4,3.3-0.3,5.1c0.6,0.9,1,1.8-0.3,2.8c-2.6,2-2.5,3.2,0.6,4.8 c1.5,0.8,3,1.3,3.9,3.1c2.2,4.6,3.6,4.7,6.6,0.5c0.6-0.9,1.1-1.9,1.7-2.8c0.9-1.5,0.8-2.6-1.1-3.2c-0.6-0.2-1.6-0.4-1.4-1.2 c0.2-1,1.2-0.8,2-0.8c2,0,3-0.8,2.6-3c-0.2-0.8-0.4-1.7,0.7-2c1-0.2,1.3,0.7,1.5,1.5c0.5,2.1,1.3,1.6,2.2,0.3 C174.4,201.7,174.9,200.4,176.6,200.1z M188.4,211.6c0-2.9-1.5-5.5-3.5-6.9c-2.3-1.6-4.1-0.9-5.9,0.7c-0.3,0.2-0.8,0.6-1.1,0.5 c-3.4-1.1-5,2.3-7.7,2.9c-0.9,0.2-1.2,0.9-1.3,1.8c-0.4,2.2-1.6,4-3.2,5.6c-0.6,0.6-1.3,1.2-1,2.3c0.7,2,7.5,6.7,9.6,6.5 c0.5,0,1.2-0.1,1.4-0.4c1.4-2,3.4-2.9,5.8-3.2c0.7-0.1,1.2-0.7,1.5-1.4c0.6-1.3,1.6-2.3,2.8-3 C187.9,215.7,188.3,213.7,188.4,211.6z M285.1,208.9c0.4-1.3-0.2-1.9-0.5-2.7c-0.8-1.8-2.6-4.6-0.8-5.2c2.3-0.8,2.9,2.5,3.2,4.3 c1.2,6.1,5.7,10.3,8.2,15.6c0.4,0.8,1.4,1.6,2.2,0.9c1-0.8,0.4-2-0.5-2.4c-1.4-0.6-1.1-1.7-1.4-2.9c-0.6-2.6,0.9-5.5-0.8-7.9 c-7.3-10.1-15.6-18.7-29.5-18.1c-1.6,0.1-3.2-0.8-5.5,0c4.6,3.9,8.8,7.5,13.1,11c0.4,0.3,0.9,0.6,1.4,0.2c0.5-0.4,0.3-0.9,0-1.4 c-0.6-1.2-1.3-2.4-2-3.7c-0.6-1-2-2.1-0.8-3.1c1.2-0.9,2,0.8,2.8,1.6c2,2.1,3.2,4.7,4.4,7.4C279.9,205.5,281.8,207.8,285.1,208.9z M192,247.2C192,247.2,192,247.2,192,247.2c0-2.9,0.2-5.8-0.1-8.7c-0.6-6.6-5-11.1-9.5-15.3c-0.9-0.8-2.1-0.5-3,0.3 c-1,0.8-0.7,1.8-0.2,2.7c5.1,8.1,7,17.2,7.8,26.6c0.2,2.2,1.2,3.8,2.8,5c1.3,1,2.2,0.9,2.1-1.1C192,253.6,192,250.4,192,247.2z M194.7,246.5C194.7,246.5,194.7,246.5,194.7,246.5c0,3.1,0,6.2,0,9.3c0,0.7,0,1.5,0.7,1.8c0.9,0.4,1.5-0.2,2-0.8 c1.2-1.3,1.9-2.7,1.9-4.6c0.4-8.8,2.6-17.1,7-24.7c0.8-1.4,1.2-2.9-0.3-4.1c-1.6-1.2-2.9,0-3.8,1.1c-4.3,5.1-8.6,10.3-7.6,17.8 C194.8,243.6,194.7,245.1,194.7,246.5z M265.4,233.6c3.5,1.5,6.4,2.8,9.3,3.9c5.6,2.2,11.3,4.3,17,6.3c0.9,0.3,2.2,0.7,2.8-0.3 c0.7-1.1-0.5-1.7-1.1-2.5C286.1,232.2,276.8,230.4,265.4,233.6z M272.5,160.6c3.2,1.4,4.7,6.5,9.7,4.1c1-0.5,1.5,0.6,1.9,1.5 c0.8,1.8,1.5,3.7,2.4,5.5c0.5,1,1.2,2.2,2.5,1.3c2.2-1.5,2.4-0.4,3,1.5c1.1,3.4,2.9,6.6,6.3,9 C298.5,171.8,283.5,158.5,272.5,160.6z M337.2,347c0,2.7,0,5.4,0,8.1c0,1.1,0.4,2,1.7,2c1.1,0.1,2.1-0.3,2.1-1.5 c0.1-5.5,0.7-10.9,0.3-16.4c-0.1-1.4-0.9-2.1-2.4-2c-1.5,0.2-1.7,1.2-1.7,2.3C337.2,342.1,337.2,344.6,337.2,347z M321.2,190.9 c-4.8-0.6-13.5,6.2-13.9,10.2c-0.1,0.5-0.1,1.1,0.4,1.3c0.8,0.4,1.3-0.1,1.8-0.6C313.3,198.4,317.1,194.8,321.2,190.9z M307.6,166.8c-0.4-1.2,0.9-3.9-1.3-4c-1.9-0.2-2.6,2.3-3.1,4.1c-0.1,0.2,0,0.4,0,0.6c0.4,1.6,0.9,3.7,2.8,3.7 c2.1,0,1.3-2.2,1.5-3.5C307.6,167.5,307.6,167.3,307.6,166.8z M331.9,185.9c-3.5,1.8-6.4,3.2-9.2,4.8c-0.9,0.5-0.6,1.6-0.3,2.4 c0.2,0.7,0.8,0.9,1.4,0.7C327.2,192.4,330.1,190.3,331.9,185.9z"></path> <path class="st0" d="M196.8,60.7c3.9,6,8,11.4,13.8,15.7c15.2,11.5,39.8,11.8,55.5-0.6c23-18.2,23.6-53.8,0.9-71.9 c-0.6-0.5-1.3-0.9-1.9-1.4c-0.7-0.7-2.6-0.6-2-2c0.4-0.9,1.8,0,2.7,0.3c20.1,6.8,32.6,20.5,37.2,41.2 c6.8,30.7-15.6,59.5-44.6,64.2c-22.4,3.6-50.4-9.1-59.2-35.4C198.2,67.4,196.8,64.3,196.8,60.7z"></path> <path class="st0" d="M238.5,55.8c-2.5-3.5-3.4-7-4.8-10.2c-2-4.5-1.9-4.6-6.8-4.1c-2.9,0.3-5.7,0.7-8.6,1 c-0.8,0.1-1.7,0.4-2.1-0.4c-0.4-0.9,0.5-1.5,1-2c2.4-2,4.7-4,7.2-5.8c2.5-1.8,3.1-3.7,1.5-6.6c-1.7-2.9-2.8-6.2-4.2-9.2 c-0.3-0.7-0.5-1.3-0.1-2.2c3.7,2.3,7.4,4.4,11,6.7c1.9,1.3,3.2,1.2,4.9-0.5c2.6-2.6,5.4-5,8.1-7.5c0.5-0.5,1-1.3,1.7-0.9 c0.9,0.4,0.3,1.2,0.1,1.8c-1.3,3.8-1.1,7.9-2.7,11.6c-0.6,1.4,0.3,2.3,1.4,3c2.4,1.5,4.8,2.9,7.2,4.3c1.6,1,3.2,1.9,4.8,2.9 c-1.2,1.4-2.4,1.1-3.6,1.1c-3.2-0.1-6.3,0.6-9.5,0.9c-2.2,0.2-3.2,1.2-3.6,3.5C240.7,47.3,239.6,51.2,238.5,55.8z"></path> <path class="st0" d="M476.2,361.6c-3-0.3-7,0-10.6-1.6c-1.8-0.8-2.4,0.1-2.1,1.8c0.5,2.6,1.1,5.3,1.5,7.9c0.3,2.5-0.7,3.2-2.9,2 c-5.5-2.9-8.2-7.9-10.1-13.5c-0.9-2.5-1.4-5.2-2-7.8c-0.2-0.8-0.1-1.6,0.5-2.2c4-4.5,8.5-8.4,14.2-10.6c2.2-0.9,4.6-1.2,7-0.8 c1.6,0.3,2,1.1,1.5,2.5c-0.8,1.9-1.6,3.9-3,5.5c-1.5,1.7-1.1,2.7,0.9,3.5c4.6,1.9,7.9,5.2,10.2,9.6c1.8,3.3,1.6,3.6-2.1,3.7 C478.4,361.6,477.7,361.6,476.2,361.6z M475.3,359c0.4,0,0.8,0.1,1.2,0.1c0.9-0.1,2.2,0.9,2.8-0.1c0.6-1.1-0.4-2.1-1.1-2.9 c-3.3-3.8-7-7.1-12.5-7.1c-0.7,0-1.6,0.2-1.7-0.7c-0.1-0.8,0.6-1.2,1.2-1.6c1.8-1.1,3.3-2.6,4.5-4.3c0.6-0.8,1-1.8,0.5-2.8 c-0.6-1.1-1.7-0.7-2.7-0.6c-4,0.6-7.2,2.8-10,5.6c-7.1,6.9-5.9,4.3-3.4,12.8c1.2,4.1,3.4,7.9,6.9,10.6c0.5,0.4,1.1,1.1,1.8,0.5 c0.5-0.4,0.3-1.1,0.1-1.7c-0.6-3.1-1.1-6.3-2.4-9.2c-0.3-0.7-1-1.5-0.2-2.2c0.6-0.5,1.3,0.1,1.9,0.4 C466.2,358.4,470.8,358.6,475.3,359z"></path> <path class="st0" d="M137.8,525.5c4.1-0.3,7.4,0.3,10,2.8c0.7,0.7,1.4,1.5,1.8,2.3c0.5,1.1,0.9,2.4,0.1,3.4 c-0.8,1.2-2.1,0.4-3,0.1c-6.1-1.8-12.3-3.3-18.6-4.3c-0.6-0.1-1.3-0.2-1.4-0.9c-0.2-0.6,0.4-0.9,0.8-1 C131.1,526.9,134.3,524.4,137.8,525.5z"></path> <path class="st0" d="M407.7,520.4c-0.3-0.1-0.9,0-1.3-0.2c-1.5-0.7-3.9-0.4-4-2.5c-0.1-2,1.9-3.1,3.3-4.3c0.7-0.6,1.5-0.3,2.2,0.2 c0.7,0.4,1.3,0.9,1.9,1.4c1.2,0.9,3.4,1.6,2.6,3.4C411.8,520,409.7,520.4,407.7,520.4z"></path> <path class="st0" d="M179,323.2c-0.6-2.1-0.8-4.3-2.2-6.1c-0.8-1-0.7-2.1,0.2-3c1.5-1.5,0.7-2.5-0.5-3.7c-4-4-7.8-8.2-12.2-11.8 c-1.8-1.5-3.3-3.5-4.5-5.6c-0.4-0.8-1-1.7-0.2-2.5c0.8-0.8,1.8-0.2,2.4,0.3c2.8,2.1,5.4,4.3,7.1,7.5c2.5,4.5,6,8.1,9.7,11.6 c0.5,0.4,1,0.7,1.9,0.1c-3.8-3.7-5.9-8.7-9.7-12.4c-2.7-2.6-4.7-5.9-6.5-9.2c-0.5-0.9-1-2-0.1-2.8c1-0.8,1.9,0.2,2.6,0.8 c2.6,2.5,5.1,5.1,6.2,8.7c1.2,3.9,4.1,6.8,6.2,10.1c0.4,0.6,1,1,1.8,0.6c2.1,2.8,2.9-0.5,4.3-1c3.1-1.4,4.1-4.2,4.6-7.2 c0.4-2.1,0.8-4.1,1.6-6.1c1.7-4,0.1-8.1,0.9-12.1c0.3-1.3,0.2-2.6,0.5-3.8c0.1-0.8,0.4-1.7,1.4-1.7c1,0,1.3,0.8,1.6,1.5 c0.7,1.5,0.5,3.1,0.5,4.7c0,2,0,4,1.6,6.4c0.4-3,0.7-5.3,1-7.6c0.1-0.8,0.1-1.6,0.2-2.4c0.2-1.1,0.5-2.3,2-2.2 c1.4,0.1,1.3,1.4,1.4,2.3c0.2,3,0.3,5.9,0.6,8.9c0.8-2.5,1.1-5.2,2.2-7.6c0.5-1,0.8-2.3,2.2-2c1.5,0.3,1.5,1.8,1.3,3 c-0.5,3.2-1.1,6.5-1.7,9.7c-0.1,0.7-0.4,1.2-1.1,1.2c-3.1,0-2.3,2-1.9,3.7c1.2,5,3.1,9.4,7.5,12.4l0,0c0.6,1.7-0.9,2.7-1.7,4.1 c1.4,0.4,1.7-0.7,2.2-1.3c3.6-3.7,7.4-7.2,9.9-11.9c1.3-2.5,3.6-4.3,5.6-6.2c0.6-0.6,1.4-1.1,2.1-0.5c1,0.7,0.4,1.6,0,2.4 c-1.9,3.4-4.1,6.5-7.4,8.9c-3.9,2.8-6.5,6.9-10,10.3c-0.7,0.7-0.5,1.5,0,2.2c1.4,1.9,0.9,3.8-0.3,5.6c-1.1,1.7-0.7,3.2,0.1,4.8 c4.2,8,8.3,16.1,12.6,24.1c1,1.9,1,3.1-1.1,4c-5.7,2.5-11.2,5.4-17.2,7.4c-6,2-11.9,2.5-17.9,1.4c-8.6-1.6-16.4-5.3-24-9.6 c-1.4-0.8-1-1.9-0.4-3.1c4.1-7.5,8.3-15,11.7-22.9C176.9,324.2,178,323.8,179,323.2c-0.1,1.6-0.6,3.2,0.1,5 c3.6,8.9,6.5,17.9,6.2,27.6c0,0.4-0.1,0.8,0,1.2c0.1,0.8,0.7,1.2,1.5,1.2c0.7,0,1.2-0.4,1.3-1c0.3-3.1,1.7-6.4,0.3-9.4 c-1.5-3.2-2.1-6.6-2.9-10C184.1,332.6,182.3,327.6,179,323.2z M181,340.2c0.4-4-2.7-6.9-2.9-10.7c0-0.4-0.3-0.8-0.8-0.7 c-0.3,0.1-0.6,0.5-0.8,0.8c-2.6,5.9-5.7,11.6-8.8,17.3c-0.8,1.5-0.8,3,0.9,3.8c1.9,1,2.7-0.4,3.4-1.8c1.7-3.3,2.8-6.8,3.9-10.3 c0.2-0.8,0.5-1.5,0.8-2.2c0.3-0.5,0.8-1,1.4-0.7c0.5,0.2,0.5,0.8,0.4,1.3c-0.2,0.8-0.4,1.5-0.7,2.3c-1.4,3.8-2.9,7.6-4.3,11.4 c-0.4,1.1-0.6,2.3,0.8,2.8c1.1,0.4,2.4,0.3,2.9-0.9C178.8,348.5,179.3,344.2,181,340.2z M223.2,349.1c0-0.9-0.5-1.7-0.9-2.5 c-3.5-6.7-6.9-13.4-10.3-20.2c-0.4-0.8-0.5-2.4-1.7-1.8c-1,0.4-0.8,1.7-0.4,2.9c1.6,3.8,3.1,7.8,4.7,11.6 c1.5,3.6,2.5,7.4,4.5,10.7c0.6,1.1,1.5,1.5,2.8,1.3C222.9,350.9,223.2,350.1,223.2,349.1z M204,325.5c-1.3,2.5-2.7,4.8-3.2,7.5 c-1.7,8,0.8,15.8,1.6,23.6c0.1,0.9,0.5,1.9,1.7,1.6c1.1-0.3,1.2-1.2,1.1-2.2c-0.5-5-0.8-10.1-2.2-15c-0.9-3.3-0.7-6.5,0.9-9.6 C204.8,329.5,205.1,327.7,204,325.5z M207,330.9c0.1,0.3,0.1,0.8,0.2,1.1c2.3,6.2,3.5,12.7,5.4,19c0.2,0.6,0.4,1.1,0.7,1.6 c0.8,1.2,1.9,1.4,3.1,0.8c1.3-0.6,0.9-1.5,0.5-2.5c-0.6-1.6-1.1-3.2-1.7-4.8c-1.9-5.2-3.9-10.4-5.8-15.6c-0.3-0.8-0.2-2.1-1.4-1.9 C206.9,328.7,207.3,330,207,330.9z M187.6,313.9C187.6,313.9,187.6,313.9,187.6,313.9c-2.3,0-4.6,0-6.9,0c-1.1,0-1.9,0.7-2.1,1.8 c-0.2,1,0,1.9,1,2.2c5,1.6,10,1,14.9-0.5c0.9-0.3,1.4-1.2,1.3-2.2c-0.2-1.1-1.1-1.4-2-1.4C191.8,313.8,189.7,313.9,187.6,313.9z M205.4,333.5c-0.7,3.3-0.9,6.6-0.1,9.9c0.9,3.3,1.6,6.6,1.6,10c0,1-0.4,2.1,0.9,2.5c1.1,0.3,2.2,0.2,3.1-0.5 c1-0.8,0.6-1.9,0.3-2.7c-1.4-3.2-1.6-6.8-2.8-10C207.2,339.7,207.3,336.3,205.4,333.5z M193.9,341.2c-1.6,4.8-3.6,9.4-3.4,14.5 c0.1,1.4,0.1,2.6,2,2.6c1.9,0,1.9-1.2,2-2.6c0.1-4.2-0.4-8.3,0.5-12.5C195.1,342.6,195.1,341.7,193.9,341.2z M197.8,339.8 c-1.2,0.8-1,1.7-1,2.6c-0.1,4.6-0.1,9.1-0.2,13.7c0,1.3,0.2,2.5,1.9,2.3c1.6-0.2,1.7-1.3,1.6-2.6c-0.4-3.4-0.7-6.9-1.3-10.3 C198.5,343.6,199.2,341.7,197.8,339.8z M189.6,346.4c1.9-2.7,1.5-12.1-0.6-14.4c-0.5-0.5-1.1-1-1.8-0.6c-0.7,0.3-0.6,1-0.5,1.6 c0.7,4,1.3,8.1,2,12.1C188.8,345.6,188.9,346.2,189.6,346.4z M199.4,290.5c0.2,3.9,0.9,7.6,2.5,11.1c0.4,1,0.8,2.7,2.3,2 c1.2-0.5,0.7-1.9,0.2-2.9c-1.6-3.3-2.3-6.7-2.5-10.4c-0.1-1.1,0.1-2.6-1.3-2.6C198.8,287.8,199.6,289.6,199.4,290.5z M183.1,350.2 c0-1.5,0-3.2,0-5c0-0.5-0.3-1-0.9-1c-0.3,0-0.8,0.4-0.8,0.7c-0.8,3-1.5,5.9-2.1,8.9c-0.3,1.7,0.9,2.3,2.4,2.3 c1.6,0.1,2-0.9,1.8-2.3C183.2,352.7,183.2,351.6,183.1,350.2z M206.2,318.4c1.1-0.1,2.1-0.1,3.1-0.2c1.3-0.2,2.7-0.6,2.4-2.4 c-0.3-1.7-1.5-2.2-3.1-2c-1.1,0.1-2.1,0.6-3,1.2c-1.1,0.8-3.3,0.9-2.9,2.5C203,319.2,205,318.1,206.2,318.4z"></path> <path class="st0" d="M185.5,304.8c-1.4,0.4-2.2,3.8-4.3,1c-1.7-4.5-4-8.7-6.8-12.5c-2-2.8-3.6-5.7-4.7-8.9c-0.3-1-0.7-2,0.5-2.6 c1-0.5,1.6,0.4,2.2,1.1c2.2,2.6,4.1,5.4,4.8,8.9c0.7,4,3.4,7,4.8,10.6c0.2,0.5,0.6,0.9,1.1,0.8c0.8-0.2,0.7-1,0.6-1.5 c-0.8-3.4-1.8-6.8-3.9-9.6c-2.6-3.5-3.2-7.6-4.4-11.5c-0.3-0.8,0-2,1-2.2c1-0.3,1.6,0.6,2,1.5c1.4,3.2,2.9,6.2,3.3,9.8 c0.4,3,1.7,6,2.8,9.5c2.2-4.7,2-6.4-0.6-9.2c-0.6-0.7-1.2-1.4-1.2-2.3c-0.3-3-0.8-5.9-1.6-8.8c-0.3-0.9-0.4-1.9,0.6-2.4 c1.2-0.5,1.9,0.5,2.2,1.4c1.4,3.4,3.2,6.7,2.6,10.6c-0.1,0.7-0.2,1.6,0.4,2.3c0.3,0.3,0.8,0.2,1.1-0.2c0.6-0.7,0.4-1.5,0.1-2.3 c-1.2-3.5-0.6-7.1-1.1-10.7c-0.1-1,0-2.4,1.3-2.7c1.6-0.3,2,1.1,2.2,2.3c1.1,5.2,1.1,10.2-1.4,15.4 C187.2,296.1,186,300.4,185.5,304.8z"></path> <path class="st0" d="M212,305.9c-0.1-1.2-0.1-2.4-0.9-3.4c-4-5.1-4-10.7-1.8-16.5c0.8-2.1,1.7-4.3,2.5-6.4 c0.3-0.9,0.9-1.7,1.9-1.6c1.1,0.2,1.4,1.3,1.2,2.1c-0.9,4.1-1.1,8.5-4.7,11.6c-0.8,0.7-1.1,1.3-0.9,2.3c0.3,1.5,0.4,3.1,1.6,4.1 c1.2,1.1,0.9,3.9,1.9,3.6c1.9-0.6,2.9-3.1,3.4-4.9c1.1-4.2,4.2-6.9,6.4-10.3c0.5-0.8,1.4-1.6,2.5-0.8c0.9,0.7,0.5,1.7,0.1,2.5 c-1.8,3.6-3.3,7.2-6.9,9.5c-2.1,1.3-2.6,3.9-3.9,5.9C213.8,304.7,213.2,305.7,212,305.9C211.9,305.9,212,305.9,212,305.9z"></path> <path class="st0" d="M220.4,283.7c-1.3,3-2.2,6.6-4.5,9.6c-0.5,0.7-1.1,1.4-1.6,2.1c-0.5,0.7-0.5,2.4-1.8,1.9 c-0.9-0.4-0.2-1.6-0.1-2.4c0.7-4.5,2.5-8.5,5.1-12.2c0.5-0.7,1.2-1.5,2.2-1.1C220.6,281.9,220.4,282.7,220.4,283.7z"></path> <path class="st0" d="M314.5,336.8c-0.6-3.1-0.4-6.2-0.4-9.2c0-7.9-0.1-15.8,0-23.6c0.1-3.8-2.1-5.9-4.9-7.6 c-1.7-1-3.6-1.1-3.8,1.8c-0.1,1-0.3,2.2-1.5,2.2c-1.2,0-1.4-1.3-1.7-2.2c-0.3-1.2-0.6-2.3-0.6-3.5c-0.2-4.2,3.6-7.1,7.6-6.1 c3.1,0.8,3.7,0.4,3.5-2.9c-0.2-2.9-0.7-5.7-1.4-8.5c-1.1-4.2-0.1-7.9,2.7-11.1c0.5-0.6,1-1.5,1.9-1c0.8,0.4,0.4,1.3,0.2,1.9 c-1,3.1-0.5,6.1,0.3,9.1c1.1,3.9,2,7.7,1.1,11.8c-0.4,2,0.3,3.1,2.7,3.1c6,0.1,10.2,5.7,9,11.7c-0.2,1-0.4,2-0.9,2.9 c-2.1,4.4-2.4,8.9-1,13.7c0.7,2.6,0.4,5.3-0.3,8c-0.5,1.8-1.5,3.2-3,4.2c-0.8-0.7-0.3-1.2-0.1-1.7c1.6-3.9,1.3-7.8,0-11.7 c-1.3-3.5-1.7-6.9-0.4-10.5c0.5-1.5,0.5-3.1,0.3-4.7c-0.2-1.7-1-3-2.8-2.9c-1.7,0.1-1.8,1.7-1.8,3c-0.1,10.2-0.1,20.3-0.1,30.5 c0,3.9,0.1,3.9-4,4.1C314.9,337.1,314.7,337,314.5,336.8z"></path> <path class="st0" d="M233.5,201.1c-1.1-3.3-3.4-6.1-4.9-9.2c-0.5-0.9-1.8-1.4-2.9-0.7c-1.7,1.1-3,0.5-4.1-1c-1.1-1.4-2.4-2-4.1-1 c-0.5,0.3-1.1,0.7-1.7,0.3c-3.3-1.9-5.1-0.2-6.6,2.5c-0.7,1.2-2.1,1.5-3.2,2.1c-3.6,1.8-5.7,4.8-6.6,8.7c-1-0.6-1.3-1.4-0.8-2.5 c1.4-3.2,3-6.3,6.5-7.8c2.1-0.9,3.9-2.4,5.1-4.4c0.9-1.5,2.2-2.3,4-1.3c1.2,0.6,2.5,0.6,3.8,0.4c1.7-0.3,3.1,0.1,4.5,1 c1.4,0.9,2.6,1.8,4.6,1.1c1.7-0.6,3.4,0.9,4,2.4c0.7,2.2,1.9,4.1,3.1,6C235,198.8,235.3,200.3,233.5,201.1z"></path> </g> <g> <path class="st0" d="M167.1,660.2v30.2h-17.5v-84.3H200v17.1h-32.9v21.9h26.8v15.2H167.1z"></path> <path class="st0" d="M219.5,690.4h-18.4l24.8-84.3h25.3l24.7,84.3h-18.3l-4.1-14h-30.1L219.5,690.4z M226.9,662.2h23.3l-11.6-39.1 L226.9,662.2z"></path> <path class="st0" d="M286.2,690.4v-84.3h35.8c15.4,0,26.2,9.7,26.2,22.9c0,8.6-4.4,15.6-10.7,17.6c7.6,2.1,12.8,10.3,12.8,20.4 c0,14.1-11.1,23.5-27,23.5H286.2z M303.7,621.1V640H319c6.6,0,11.4-3.8,11.4-9.4s-4.8-9.5-11.4-9.5H303.7z M319.8,653.5h-16.1 v21.9h16.1c7.4,0,12.7-4.5,12.7-10.8C332.5,658.1,327.2,653.5,319.8,653.5z"></path> </g> </g> </svg> 