<?xml version="1.0" encoding="UTF-8"?> <svg xmlns="http://www.w3.org/2000/svg" xmlns:xlink="http://www.w3.org/1999/xlink" xmlns:v="https://vecta.io/nano" width="136" height="42" fill="none"><path d="M48.162 25.171c0 1.688-.585 3.018-1.756 3.99s-2.8 1.457-4.887 1.457c-1.923 0-3.624-.375-5.103-1.125V25.81c1.216.563 2.245.96 3.088 1.19s1.613.345 2.311.345c.838 0 1.481-.167 1.928-.499s.672-.826.672-1.483a1.68 1.68 0 0 0-.296-.979c-.198-.286-.487-.561-.869-.825s-1.16-.685-2.336-1.266c-1.102-.537-1.927-1.052-2.477-1.547a5.77 5.77 0 0 1-1.319-1.726c-.329-.656-.493-1.423-.493-2.302 0-1.654.54-2.955 1.621-3.9s2.574-1.42 4.48-1.42c.937 0 1.831.115 2.681.345s1.74.555 2.669.972l-1.233 3.082c-.962-.409-1.756-.694-2.385-.857a7.37 7.37 0 0 0-1.855-.243c-.723 0-1.278.175-1.664.525s-.579.806-.579 1.368a1.74 1.74 0 0 0 .234.914c.156.26.405.511.746.754s1.148.68 2.422 1.311c1.684.836 2.839 1.673 3.464 2.512s.936 1.87.936 3.089zm6.471-4.182c0 2.089.382 3.663 1.147 4.719s1.906 1.586 3.426 1.586c3.048 0 4.573-2.102 4.573-6.305 0-4.211-1.516-6.317-4.548-6.317-1.52 0-2.666.531-3.439 1.592s-1.159 2.637-1.159 4.726zm13.151 0c0 3.095-.739 5.474-2.219 7.136s-3.599 2.494-6.359 2.494-4.881-.831-6.36-2.494-2.219-4.049-2.219-7.161.741-5.489 2.224-7.13 3.61-2.462 6.379-2.462 4.887.827 6.354 2.481 2.2 4.033 2.2 7.136zm7.494 9.374h-3.759V11.665h10.329v3.249h-6.57v4.821h6.114v3.236h-6.114v7.391zm17.046 0h-3.821V14.965H83.61v-3.3h13.607v3.3h-4.893v15.397zm9.158-9.374c0 2.533.52 4.454 1.559 5.762s2.55 1.963 4.53 1.963c1.997 0 3.504-.652 4.523-1.957s1.529-3.227 1.529-5.768c0-2.515-.508-4.422-1.522-5.723s-2.517-1.95-4.505-1.95c-1.997 0-3.515.655-4.555 1.963s-1.559 3.212-1.559 5.71zm14.359 0c0 2.993-.729 5.346-2.187 7.06s-3.486 2.571-6.083 2.571c-2.654 0-4.702-.842-6.144-2.526s-2.164-4.06-2.164-7.129c0-3.044.723-5.403 2.17-7.078s3.5-2.513 6.163-2.513c2.588 0 4.609.852 6.064 2.557s2.181 4.059 2.181 7.059zm5.301 0c0 2.533.519 4.454 1.558 5.762s2.55 1.963 4.53 1.963c1.996 0 3.505-.652 4.523-1.957s1.529-3.227 1.529-5.768c0-2.515-.507-4.422-1.523-5.723s-2.516-1.95-4.505-1.95c-1.996 0-3.514.655-4.554 1.963s-1.558 3.212-1.558 5.71zm14.358 0c0 2.993-.729 5.346-2.187 7.06s-3.486 2.571-6.083 2.571c-2.654 0-4.702-.842-6.144-2.526s-2.163-4.06-2.163-7.129c0-3.044.723-5.403 2.169-7.078s3.5-2.513 6.162-2.513c2.589 0 4.61.852 6.065 2.557s2.181 4.059 2.181 7.059zM26.59 11.075c-.525-.097-1.035-.084-1.514.017.019-.004.037-.013.056-.017l-.219.014c-3.013.096-5.626-2.317-5.853-5.436-.026-.356-.024-.685.005-1.015-.046.354.014.038.014-.495 0-2.235-1.706-4.057-3.841-4.14-1.959-.076-3.709 1.409-4.078 3.406-.116.627-.028 1.19.073 1.81l-.069-.241c.191.667-.097 1.692-.313 2.32-.261.76-.672 1.461-1.197 2.055-1.178 1.335-2.898 2.06-4.642 1.907l.255.054C2.826 10.798.547 13 .606 15.503c.048 2.023 1.561 3.759 3.497 4.007 1.066.136 2.144-.259 3.195.041.987.28 1.883.861 2.587 1.629s1.266 1.686 1.412 2.745c.209 1.507-.219 3.187.638 4.538.73 1.15 1.999 1.886 3.33 1.89 2.393.007 4.298-2.169 3.967-4.718-.259-1.997-1.973-3.504-3.903-3.518-1.03-.008-1.883.29-2.919-.046-1.077-.349-2.022-1.094-2.722-2.003-1.079-1.402-1.406-3.274-1.384-5.027.022-1.78.348-3.59 1.53-4.953 1.714-1.977 4.653-2.332 7.059-1.949a6.43 6.43 0 0 1 4.208 2.63 5.12 5.12 0 0 1 .888 2.406c.079.744-.11 1.48-.095 2.223.016.736.277 1.475.676 2.08.665 1.005 1.747 1.684 2.92 1.797 2.484.239 4.553-1.886 4.361-4.456-.139-1.851-1.502-3.421-3.263-3.746zM22.9 24.298l-.015.02.015-.02zm.769-.789l.043-.033-.043.033zm.987-.563l.061-.023-.061.023zm3.648.415c-1.661-1.042-3.554-.289-5.285-.899a5.73 5.73 0 0 1-2.488-1.744c-.647-.782-.998-1.753-1.161-2.76-.157-.972-.002-2.008-.221-2.959-.167-.723-.508-1.377-.962-1.949-.412-.519-.952-.925-1.566-1.139-3.277-1.142-6.273 1.995-5.118 5.399.219.646.631 1.211 1.151 1.633 1.864 1.508 4.384.375 6.398 1.483 1.214.667 2.172 1.804 2.695 3.117.858 2.157.919 4.975-.076 7.099-.646 1.379-1.853 2.52-3.245 3.041-2.013.753-5.004.596-6.905-.464-1.133-.631-2.036-1.668-2.545-2.891-.98-2.356.268-5.49-2.41-6.924-3.645-1.951-7.279 1.673-5.677 5.451.469 1.106 1.453 1.907 2.602 2.095 1.46.239 2.918-.172 4.343.385a5.71 5.71 0 0 1 1.891 1.222c.809.786 1.369 1.854 1.617 3.002.276 1.275-.029 2.599.456 3.819a4.29 4.29 0 0 0 1.2 1.678c1.133.962 2.678 1.191 4.04.652.599-.238 1.118-.664 1.506-1.195.946-1.293.746-2.989.938-4.505.192-1.51.87-2.874 2.021-3.841a5.21 5.21 0 0 1 2.538-1.135c.911-.143 1.839.041 2.746-.143.792-.161 1.51-.531 2.087-1.125 1.243-1.278 1.483-3.214.773-4.843a3.5 3.5 0 0 0-1.343-1.559z" fill="#fff"></path><mask id="A" maskUnits="userSpaceOnUse" x="0" y="11" width="31" height="31"><path d="M22.9 24.297l-.015.02.015-.02zm.769-.789l.043-.033-.043.033zm.987-.563l.061-.023-.061.023zm3.648.415c-1.661-1.042-3.554-.289-5.285-.899a5.73 5.73 0 0 1-2.488-1.744c-.647-.782-.998-1.753-1.161-2.76-.157-.972-.002-2.008-.221-2.959-.167-.723-.508-1.377-.962-1.949-.412-.519-.952-.925-1.566-1.139-3.277-1.142-6.273 1.995-5.118 5.399.219.646.631 1.211 1.151 1.633 1.864 1.508 4.384.376 6.398 1.483 1.214.667 2.172 1.804 2.695 3.117.858 2.157.919 4.975-.076 7.099-.646 1.38-1.853 2.52-3.245 3.041-2.013.753-5.004.596-6.905-.464-1.133-.631-2.036-1.668-2.545-2.891-.98-2.356.268-5.49-2.41-6.924-3.645-1.951-7.279 1.673-5.677 5.451.469 1.106 1.453 1.907 2.602 2.095 1.46.239 2.918-.172 4.343.385a5.71 5.71 0 0 1 1.891 1.222c.809.786 1.369 1.854 1.617 3.002.276 1.275-.029 2.599.456 3.819.259.651.674 1.232 1.2 1.678 1.133.962 2.678 1.191 4.04.651.599-.238 1.118-.664 1.506-1.194.946-1.293.746-2.989.938-4.505.192-1.51.87-2.874 2.021-3.841a5.21 5.21 0 0 1 2.538-1.135c.911-.143 1.839.041 2.746-.143a3.97 3.97 0 0 0 2.087-1.125c1.243-1.278 1.483-3.214.773-4.843a3.5 3.5 0 0 0-1.343-1.559z" fill="#fff"></path></mask><g mask="url(#A)"><path d="M30.357 10.767H-.713v31.478h31.07V10.767z" fill="#fff"></path></g><g fill="#fff"><path d="M135.244 35.68l-2.533 6.298h-.884l.839-2.084-1.626-4.214h.952l1.161 3.266 1.207-3.266h.884zm-6.5-.071c.325 0 .614.07.869.21a1.46 1.46 0 0 1 .607.622c.145.275.217.607.217.995v2.527h-.846v-2.395c0-.384-.093-.677-.278-.879-.184-.207-.437-.311-.756-.311s-.575.104-.765.311c-.185.202-.277.495-.277.879v2.395h-.854v-4.284h.854v.49c.14-.176.317-.314.532-.412s.452-.148.697-.148zm-7.447 2.193c0-.43.085-.811.255-1.143a1.95 1.95 0 0 1 .704-.77c.3-.187.63-.28.989-.28.325 0 .607.067.847.202a1.7 1.7 0 0 1 .585.49v-.622h.862v4.284h-.862v-.638a1.71 1.71 0 0 1-.592.505 1.77 1.77 0 0 1-.854.202c-.355 0-.68-.093-.975-.28s-.529-.456-.704-.793c-.17-.342-.255-.728-.255-1.159zm3.38.016a1.57 1.57 0 0 0-.18-.77c-.115-.218-.267-.384-.457-.498s-.395-.171-.615-.171a1.17 1.17 0 0 0-.614.171 1.23 1.23 0 0 0-.465.49 1.58 1.58 0 0 0-.172.762c0 .295.057.555.172.778s.275.394.465.513a1.2 1.2 0 0 0 .614.171c.22 0 .425-.057.615-.171s.342-.28.457-.498c.12-.223.18-.482.18-.778zm-7.32-1.509a1.76 1.76 0 0 1 1.439-.7 1.8 1.8 0 0 1 .982.28 1.87 1.87 0 0 1 .704.77c.17.332.255.713.255 1.143s-.085.816-.255 1.159a1.97 1.97 0 0 1-.704.793c-.295.187-.622.28-.982.28-.314 0-.594-.065-.839-.194-.245-.135-.445-.301-.6-.498v2.659h-.854V35.68h.854v.63zm2.511 1.493c0-.295-.06-.549-.18-.762-.115-.218-.27-.381-.465-.49a1.17 1.17 0 0 0-.614-.171 1.2 1.2 0 0 0-.615.171c-.189.114-.344.28-.464.498-.115.218-.173.474-.173.77s.058.555.173.778c.12.218.275.384.464.498a1.2 1.2 0 0 0 .615.171 1.17 1.17 0 0 0 .614-.171 1.26 1.26 0 0 0 .465-.513c.115-.223.18-.482.18-.778zm-6.153-2.193a1.77 1.77 0 0 1 .869.21 1.46 1.46 0 0 1 .607.622c.15.275.225.607.225.995v2.527h-.847v-2.395c0-.384-.092-.677-.277-.879-.185-.207-.437-.311-.757-.311s-.574.104-.764.311c-.185.202-.277.495-.277.879v2.395h-.847v-2.395c0-.384-.093-.677-.277-.879-.185-.207-.438-.311-.757-.311s-.575.104-.765.311c-.184.202-.277.495-.277.879v2.395h-.854v-4.284h.854v.49c.14-.176.317-.314.532-.412s.445-.148.69-.148c.329 0 .624.072.884.218a1.46 1.46 0 0 1 .599.63 1.39 1.39 0 0 1 .585-.614 1.66 1.66 0 0 1 .854-.233zm-7.986 4.425a2.08 2.08 0 0 1-1.057-.272 1.99 1.99 0 0 1-.742-.778c-.179-.337-.269-.726-.269-1.166a2.37 2.37 0 0 1 .277-1.159 1.95 1.95 0 0 1 .757-.777c.32-.181.677-.272 1.071-.272a2.14 2.14 0 0 1 1.072.272 1.95 1.95 0 0 1 .757.777c.185.337.277.723.277 1.159s-.095.822-.285 1.159a2.02 2.02 0 0 1-.779.785c-.325.181-.684.272-1.079.272zm0-.77a1.21 1.21 0 0 0 .614-.163c.195-.109.353-.272.472-.49s.18-.482.18-.793-.057-.573-.172-.785a1.18 1.18 0 0 0-.457-.49c-.19-.109-.395-.163-.615-.163a1.21 1.21 0 0 0-.614.163 1.12 1.12 0 0 0-.442.49c-.11.212-.165.474-.165.785 0 .461.112.819.337 1.073s.517.373.862.373zm-7.872-2.014c0-.529.117-1.003.352-1.423a2.59 2.59 0 0 1 .967-.98 2.62 2.62 0 0 1 1.342-.358 2.61 2.61 0 0 1 1.476.428c.435.28.749.679.944 1.197h-1.026c-.135-.285-.323-.498-.563-.638s-.517-.21-.831-.21c-.345 0-.652.08-.922.241s-.482.391-.637.692-.225.651-.225 1.05.075.749.225 1.05.367.534.637.7c.27.161.577.241.922.241.314 0 .592-.07.831-.21s.428-.352.563-.638h1.026c-.195.518-.509.918-.944 1.197s-.922.42-1.476.42c-.49 0-.937-.117-1.342-.35-.405-.239-.727-.568-.967-.987s-.352-.894-.352-1.423zm-5.886-.941a1.75 1.75 0 0 1 .592-.498c.25-.135.532-.202.847-.202.36 0 .687.093.982.28.3.181.535.438.704.77s.255.713.255 1.143a2.57 2.57 0 0 1-.255 1.159 1.98 1.98 0 0 1-.704.793c-.299.192-.622.28-.982.28-.315 0-.594-.065-.839-.194a1.94 1.94 0 0 1-.6-.498v2.659h-.854V35.68h.854v.63zm2.51 1.493c0-.295-.06-.549-.18-.762-.115-.218-.27-.381-.465-.49-.19-.114-.395-.171-.614-.171a1.2 1.2 0 0 0-.615.171 1.29 1.29 0 0 0-.465.498c-.115.218-.172.474-.172.77s.058.555.172.778a1.29 1.29 0 0 0 .465.498 1.2 1.2 0 0 0 .615.171 1.17 1.17 0 0 0 .614-.171 1.26 1.26 0 0 0 .465-.513c.115-.223.18-.482.18-.778zM89.99 35.68v4.284h-.854v-.505c-.135.176-.312.316-.532.42a1.63 1.63 0 0 1-.689.148 1.82 1.82 0 0 1-.877-.21 1.52 1.52 0 0 1-.607-.622c-.145-.275-.217-.607-.217-.995v-2.52h.847v2.387c0 .384.093.679.277.886.185.202.437.303.757.303s.572-.101.757-.303c.19-.207.285-.503.285-.886V35.68h.854zm-6.727 4.354c-.39 0-.742-.091-1.057-.272-.315-.187-.562-.446-.742-.778-.18-.337-.27-.726-.27-1.166a2.37 2.37 0 0 1 .277-1.159 1.95 1.95 0 0 1 .757-.777c.32-.181.677-.272 1.072-.272s.752.091 1.072.272a1.95 1.95 0 0 1 .757.777c.185.337.277.723.277 1.159s-.095.822-.285 1.159-.45.599-.779.785c-.325.181-.684.272-1.079.272zm0-.77a1.21 1.21 0 0 0 .614-.163c.189-.109.352-.272.472-.49s.18-.482.18-.793-.057-.573-.172-.785a1.18 1.18 0 0 0-.457-.49c-.19-.109-.395-.163-.615-.163s-.425.054-.615.163a1.15 1.15 0 0 0-.442.49c-.11.212-.165.474-.165.785 0 .461.112.819.337 1.073s.517.373.862.373z"></path><use xlink:href="#C"></use><path d="M76.569 36.114c-.135-.27-.322-.472-.562-.606a1.62 1.62 0 0 0-.832-.21c-.345 0-.652.08-.922.241s-.482.389-.637.684-.225.638-.225 1.026.075.733.225 1.034c.155.295.367.524.637.684s.577.241.922.241c.465 0 .842-.135 1.132-.404s.467-.635.532-1.096h-1.956V37h2.87v.692c-.055.42-.2.806-.435 1.158a2.59 2.59 0 0 1-.907.848c-.37.207-.782.311-1.236.311-.49 0-.937-.117-1.341-.35-.405-.239-.727-.568-.967-.987s-.352-.894-.352-1.423.117-1.003.352-1.423a2.59 2.59 0 0 1 .967-.98 2.62 2.62 0 0 1 1.341-.358 2.6 2.6 0 0 1 1.476.428c.435.28.749.679.944 1.197h-1.027zm-8.487 3.127h1.873v.723h-2.863v-.723l1.881-2.838h-1.881v-.723h2.863v.723l-1.873 2.838zm-3.539-3.632c.325 0 .614.07.869.21a1.46 1.46 0 0 1 .607.622c.145.275.217.607.217.995v2.527h-.847v-2.395c0-.384-.093-.677-.277-.879-.185-.207-.437-.311-.757-.311s-.574.104-.764.311c-.185.202-.277.495-.277.879v2.395h-.854v-4.284h.854v.49c.14-.176.317-.314.532-.412s.452-.148.697-.148zm-7.447 2.193c0-.43.085-.811.255-1.143s.41-.588.704-.77a1.83 1.83 0 0 1 .989-.28c.325 0 .607.067.847.202s.44.293.584.49v-.622h.862v4.284h-.862v-.638c-.145.202-.342.371-.592.505a1.77 1.77 0 0 1-.854.202 1.78 1.78 0 0 1-.974-.28c-.295-.187-.53-.456-.704-.793a2.57 2.57 0 0 1-.255-1.159zm3.38.016c0-.295-.06-.552-.18-.77s-.267-.384-.457-.498-.395-.171-.614-.171a1.17 1.17 0 0 0-.614.171 1.23 1.23 0 0 0-.465.49c-.115.213-.172.467-.172.762s.057.555.172.778c.12.223.275.394.465.513a1.2 1.2 0 0 0 .614.171 1.17 1.17 0 0 0 .614-.171c.19-.114.342-.28.457-.498.12-.223.18-.482.18-.778zm-4.217-3.608v5.754h-.854V34.21h.854zm-1.976 0v5.754h-.854V34.21h.854zm-2.395.902a.52.52 0 0 1-.39-.163.56.56 0 0 1-.157-.404.56.56 0 0 1 .157-.404.52.52 0 0 1 .39-.163.51.51 0 0 1 .382.163.56.56 0 0 1 .157.404.56.56 0 0 1-.157.404.51.51 0 0 1-.382.163zm.42.568v4.284h-.854V35.68h.854z"></path><use xlink:href="#C" x="-30.019"></use><path d="M46.644 37.188c.28.052.517.205.712.459a1.38 1.38 0 0 1 .292.863c0 .275-.07.523-.21.746a1.42 1.42 0 0 1-.592.521c-.26.124-.562.187-.907.187h-2.083V34.56h1.986c.355 0 .66.062.914.187s.447.293.577.505a1.29 1.29 0 0 1 .195.7c0 .311-.08.57-.24.778a1.4 1.4 0 0 1-.644.459zm-1.933-.358h1.057c.28 0 .497-.065.652-.194.16-.135.24-.327.24-.575s-.08-.433-.24-.568c-.155-.14-.372-.21-.652-.21h-1.057v1.547zm1.154 2.41c.29 0 .517-.072.682-.218s.247-.347.247-.606a.8.8 0 0 0-.262-.63c-.175-.155-.407-.233-.697-.233h-1.124v1.687h1.154zm-6.04-.381h-2.181l-.375 1.104h-.892l1.866-5.412h.989l1.866 5.412H40.2l-.375-1.104zm-.24-.723l-.847-2.511-.854 2.511h1.701z"></path></g><defs><path id="C" d="M79.45 36.301c.125-.218.29-.386.495-.505.21-.124.457-.187.742-.187v.917h-.217c-.335 0-.59.088-.764.264s-.255.482-.255.917v2.255h-.854v-4.284h.854v.622z"></path></defs></svg> 