<?xml version="1.0" encoding="UTF-8"?> <svg xmlns="http://www.w3.org/2000/svg" xmlns:xlink="http://www.w3.org/1999/xlink" width="184" height="27" xml:space="preserve" overflow="hidden"><defs><clipPath id="clip0"><rect x="558" y="298" width="184" height="27"></rect></clipPath></defs><g clip-path="url(#clip0)" transform="translate(-558 -298)"><path d="M13.2848 0C20.1296-0.1472 26.6432 5.6304 26.6432 13.2112 26.6432 20.8288 20.3872 26.3856 13.3952 26.4592 6.44 26.496-0.1472 20.9024 0 12.9904 0.1472 5.3728 6.624-0.1104 13.2848 0ZM13.432 1.288C6.2928 1.0672 1.104 7.3968 1.1776 13.3584 1.2144 19.136 6.1088 25.4288 13.6896 25.2448 20.0192 25.0976 25.392 19.7984 25.392 13.2112 25.4288 7.0288 19.8352 1.1776 13.432 1.288Z" fill="#FFFFFF" transform="matrix(1 0 0 1.01902 558 298.038)"></path><path d="M2.1712 13.1376C2.1712 7.1392 7.2128 2.1712 13.1744 2.1344 19.32 2.0976 24.5088 6.808 24.472 13.3216 24.4352 19.6144 19.136 24.472 12.9536 24.3248 7.3968 24.1776 2.0976 19.5408 2.1712 13.1376ZM13.3584 23.1472C13.4688 23.0736 13.5792 22.9632 13.7264 22.8528 16.8176 19.7984 19.9088 16.744 23 13.6896 23.3312 13.3584 23.3312 13.1376 22.9632 12.8432 22.1904 12.1072 21.4176 11.3344 20.6816 10.5984 18.3632 8.3168 16.0448 5.9984 13.7632 3.7168 13.4688 3.4224 13.2848 3.3488 12.9536 3.7168 9.8992 6.7712 6.8816 9.8256 3.7904 12.8432 3.312 13.2848 3.3856 13.5056 3.8272 13.9104 4.5632 14.536 5.2256 15.1984 5.888 15.8608 8.2432 18.216 10.672 20.5344 12.9536 22.9632 13.0272 22.9632 13.1008 23.1472 13.3584 23.1472Z" fill="#FFFFFF" transform="matrix(1 0 0 1.01902 558 298.038)"></path><path d="M12.3648 7.5808 12.3648 16.7072C14.6464 16.56 16.6704 15.272 17.1488 13.616 17.4432 12.5856 17.1856 11.2976 16.4496 10.1936 15.5296 8.832 14.0576 7.912 12.3648 7.5808Z" fill="#FFFFFF" transform="matrix(1 0 0 1.01902 558 298.038)"></path><path d="M22.08 13.3216C22.1168 13.1744 22.0432 12.9904 21.8592 12.8064 19.3568 10.3776 16.8912 7.912 14.4256 5.4464 13.8736 4.9312 13.6528 4.6736 13.3584 4.7104 13.2112 4.6736 13.064 4.7472 12.88 4.9312 10.2304 7.5808 7.544 10.2304 4.8576 12.88 4.7472 12.9904 4.6 13.064 4.5632 13.248 4.5632 13.248 4.5632 13.2848 4.5632 13.2848 4.5264 13.432 4.6 13.616 4.784 13.8 7.2864 16.2288 9.752 18.6944 12.2176 21.16 12.7696 21.6752 12.9904 21.9328 13.2848 21.896 13.432 21.9328 13.5792 21.8592 13.7632 21.6752 16.4128 19.0256 19.0992 16.376 21.7856 13.7264 21.9328 13.5792 22.0432 13.5056 22.08 13.3216 22.08 13.3216 22.08 13.3216 22.08 13.3216ZM17.8848 13.8368C17.3328 15.7872 14.9776 17.3328 12.3648 17.48L12.3648 19.8352 11.592 19.8352 11.592 6.7344 12.0336 6.7712C14.1312 7.0288 15.9712 8.1328 17.0752 9.7888 17.9584 11.0768 18.2528 12.5488 17.8848 13.8368Z" fill="#FFFFFF" transform="matrix(1 0 0 1.01902 558 298.038)"></path><path d="M34.6656 19.5776 33.8928 19.5776 33.8928 6.44 34.3344 6.4768C36.432 6.7344 38.272 7.8384 39.376 9.4944 40.2592 10.8192 40.5536 12.2912 40.1856 13.5424 39.6336 15.4928 37.2784 17.0384 34.6656 17.1856L34.6656 19.5776ZM34.6656 7.3232 34.6656 16.4496C36.9472 16.3024 38.9712 15.0144 39.4496 13.3584 39.744 12.328 39.4864 11.04 38.7504 9.936 37.8304 8.5744 36.3584 7.6176 34.6656 7.3232Z" fill="#FFFFFF" transform="matrix(1 0 0 1.01902 558 298.038)"></path><path d="M147.899 19.5776 147.126 19.5776 147.126 6.44 147.568 6.4768C149.666 6.7344 151.506 7.8384 152.61 9.4944 153.493 10.8192 153.787 12.2912 153.419 13.5424 152.867 15.4928 150.512 17.0384 147.899 17.1856L147.899 19.5776ZM147.899 7.3232 147.899 16.4496C150.181 16.3024 152.205 15.0144 152.683 13.3584 152.978 12.328 152.72 11.04 151.984 9.936 151.064 8.5744 149.592 7.6176 147.899 7.3232Z" fill="#FFFFFF" transform="matrix(1 0 0 1.01902 558 298.038)"></path><path d="M54.1328 19.9456 47.2144 19.9456 47.2144 6.4768 54.1328 6.4768 54.1328 7.2496 47.9872 7.2496 47.9872 19.1728 54.1328 19.1728Z" fill="#FFFFFF" transform="matrix(1 0 0 1.01902 558 298.038)"></path><path d="M47.5824 10.7824 52.1088 10.7824 52.1088 11.5552 47.5824 11.5552Z" fill="#FFFFFF" transform="matrix(1 0 0 1.01902 558 298.038)"></path><path d="M62.4128 19.5776 61.64 19.5776 61.64 7.2864 69.7728 11.0032 69.4416 11.7024 62.4128 8.5008Z" fill="#FFFFFF" transform="matrix(1 0 0 1.01902 558 298.038)"></path><path d="M69.2208 6.8816 69.9936 6.8816 69.9936 19.5776 69.2208 19.5776Z" fill="#FFFFFF" transform="matrix(1 0 0 1.01902 558 298.038)"></path><path d="" stroke="#000000" stroke-width="0.552" stroke-miterlimit="10" fill="none" transform="matrix(1 0 0 1.01902 558 298.038)"></path><path d="M78.384 19.5776 77.6112 19.5776 77.6112 7.2864 85.7072 11.0032 85.4128 11.7024 78.384 8.5008Z" fill="#FFFFFF" transform="matrix(1 0 0 1.01902 558 298.038)"></path><path d="M85.192 6.8816 85.9648 6.8816 85.9648 19.5776 85.192 19.5776Z" fill="#FFFFFF" transform="matrix(1 0 0 1.01902 558 298.038)"></path><path d="" stroke="#000000" stroke-width="0.552" stroke-miterlimit="10" fill="none" transform="matrix(1 0 0 1.01902 558 298.038)"></path><path d="M98.072 19.5776 97.2992 19.5776 97.2992 10.672 101.715 6.5872 102.23 7.1392 98.072 11.04Z" fill="#FFFFFF" transform="matrix(1 0 0 1.01902 558 298.038)"></path><path d="M95.9379 5.97524 96.7172 5.97524 96.7172 11.9134 95.9379 11.9134Z" fill="#FFFFFF" transform="matrix(0.6695 -0.745286 0.731374 0.682235 582.476 372.752)"></path><path d="M109.554 20.424 109.554 6.8816 110.326 6.8816 110.326 18.6944 114.448 14.9776 118.827 18.7312 118.827 6.8816 119.563 6.8816 119.563 20.3872 114.448 15.9712Z" fill="#FFFFFF" transform="matrix(1 0 0 1.01902 558 298.038)"></path><path d="M133.584 19.9456C131.854 19.9456 130.198 19.2832 128.91 18.0688 127.549 16.7808 126.776 15.0144 126.776 13.2112 126.776 11.3712 127.549 9.6048 128.874 8.3168 130.235 7.0288 132.075 6.3664 133.915 6.44 137.595 6.9184 140.245 10.0832 139.987 13.6528 139.766 16.8544 137.227 19.4672 133.952 19.9088L133.915 19.9088C133.842 19.9456 133.694 19.9456 133.584 19.9456ZM133.547 7.2496C132.038 7.2496 130.566 7.8384 129.426 8.9056 128.248 10.0464 127.549 11.6288 127.549 13.2112 127.549 14.8304 128.248 16.376 129.426 17.5168 130.64 18.6576 132.222 19.2464 133.878 19.1728 136.786 18.8048 139.067 16.4496 139.251 13.616 139.472 10.4512 137.117 7.6544 133.878 7.2128 133.768 7.2496 133.658 7.2496 133.547 7.2496Z" fill="#FFFFFF" transform="matrix(1 0 0 1.01902 558 298.038)"></path><path d="M152.606 15.8393 153.385 15.8393 153.385 20.2535 152.606 20.2535Z" fill="#FFFFFF" transform="matrix(0.758434 -0.65175 0.639584 0.77286 582.21 402.032)"></path><path d="M164.901 19.5776 164.165 19.5776 164.165 6.4768 167.992 6.4768 167.992 7.2496 164.901 7.2496Z" fill="#FFFFFF" transform="matrix(1 0 0 1.01902 558 298.038)"></path><path d="M160.963 6.4768 164.533 6.4768 164.533 7.2496 160.963 7.2496Z" fill="#FFFFFF" transform="matrix(1 0 0 1.01902 558 298.038)"></path><path d="M175.757 6.8816 176.53 6.8816 176.53 19.5776 175.757 19.5776Z" fill="#FFFFFF" transform="matrix(1 0 0 1.01902 558 298.038)"></path><path d="M183.227 6.8816 184 6.8816 184 19.5776 183.227 19.5776Z" fill="#FFFFFF" transform="matrix(1 0 0 1.01902 558 298.038)"></path><path d="M176.162 10.7456 183.632 10.7456 183.632 11.5184 176.162 11.5184Z" fill="#FFFFFF" transform="matrix(1 0 0 1.01902 558 298.038)"></path></g></svg> 