<svg xmlns="http://www.w3.org/2000/svg" xmlns:xlink="http://www.w3.org/1999/xlink" id="Layer_1" x="0px" y="0px" viewBox="0 0 214 150" style="enable-background:new 0 0 214 150;" xml:space="preserve"> <style type="text/css"> .st0{fill:none;stroke:#80D0F0;stroke-width:2;} .st1{fill:#00A1E0;} .st2{fill:#FFFFFF;} </style> <g> <path class="st0" d="M120.8,60.3c0-3.2,2-5.1,5.3-4.2c0.3,0.1,0.7-0.1,0.8-0.4l0.7-2.1 c0.1-0.3,0-0.5-0.3-0.7c-5.8-2.3-9.8,1.8-10.4,7.4c0,0.3-0.3,0.5-0.6,0.5l-2.2,0c-0.4,0-0.6,0.2-0.7,0.6l-0.3,2.2 c-0.1,0.4,0.1,0.5,0.4,0.5l2,0c0.4,0,0.5,0.2,0.5,0.6c-0.8,5-1.7,10-2.7,14.9c-0.6,2.8-1.2,7.7-5.5,5.5c-0.2-0.1-0.5,0-0.7,0.2 c0,0,0,0,0,0l-0.9,2.3c-0.1,0.3,0,0.7,0.4,0.8c0,0,0,0,0,0c6.3,2.5,9.8-2.7,10.7-8.2c0.9-5.3,1.8-10.5,2.7-15.8 c0.1-0.3,0.2-0.5,0.6-0.5h3.5c0.3,0,0.6-0.2,0.7-0.6l0.4-2.1c0.1-0.4-0.1-0.5-0.5-0.5l-3.3,0C121,60.7,120.8,60.6,120.8,60.3"></path> <path class="st0" d="M72.1,53.2c0-0.2-0.2-0.4-0.4-0.4l0,0h-3.2c-0.2,0-0.4,0.2-0.4,0.4v0v26.4 c0,0.2,0.2,0.4,0.4,0.4l0,0h3.2c0.2,0,0.4-0.2,0.4-0.4l0,0V53.2"></path> <path class="st0" d="M36.6,63.8c2.6-0.5,5-0.1,7.2,1.2c0.2,0.1,0.4,0.1,0.6-0.1c0,0,0,0,0-0.1 l0.8-2c0.1-0.3,0-0.7-0.3-0.9c-2.7-1.5-5.5-2-8.3-1.5c-3.7,0.7-6,4.1-4.8,7.8c1,2.9,5.9,3.9,8.5,4.6c1,0.3,1.7,1.3,1.5,2.4 c-0.7,3.9-7.5,1.2-9.3,0.1c-0.3-0.2-0.6-0.1-0.7,0.2L31,77.5c-0.2,0.4-0.1,0.7,0.3,0.9c3.8,2.4,11,3.7,13.7-1 c3.8-6.6-4.7-8.6-8.7-10.1c-1-0.4-1.5-1.4-1.1-2.4C35.5,64.4,36,63.9,36.6,63.8"></path> <path class="st0" d="M80.5,71.5H92c0.3,0,0.5-0.1,0.5-0.4c1.7-8.7-7.5-14.7-14-8.3 c-3.3,3.2-3.7,8.7-1.8,12.8c2.5,5.5,9.2,5.5,14.3,4c0.7-0.2,1-0.7,0.7-1.4l-0.6-1.7c-0.1-0.3-0.4-0.4-0.7-0.3c0,0,0,0,0,0 C86.7,77.7,79.7,77.4,80,72C80,71.7,80.1,71.5,80.5,71.5"></path> <path class="st0" d="M100.9,63.8c2.6-0.5,5-0.1,7.2,1.2c0.2,0.1,0.5,0.1,0.7-0.2 c0,0,0-0.1,0-0.1l0.7-1.9c0.1-0.4,0-0.7-0.3-0.9c-4.4-2.5-12.5-2.7-13.2,3.8c-0.9,7.8,11.9,5.2,10.2,10c-1.1,3.1-7.2,0.9-9.2-0.5 c-0.2-0.1-0.5-0.1-0.6,0.1c0,0,0,0.1-0.1,0.1l-0.8,2.2c-0.1,0.4,0,0.6,0.3,0.8c3.2,2,6.4,2.7,9.7,2c3.7-0.8,5.9-4.8,4.2-8.3 c-1.3-2.5-6.4-3.8-8.8-4.7c-1-0.3-1.5-1.4-1.2-2.4C99.7,64.4,100.3,63.9,100.9,63.8"></path> <path class="st0" d="M172.2,76.3c-12.9,5.1-12.1-16.9-0.4-11.8c0.3,0.1,0.7,0,0.8-0.3 c0,0,0,0,0,0l0.9-2.3c0.1-0.3,0-0.6-0.3-0.7c-6.7-2.1-11.2-0.4-13.5,5c-1.5,3.4-1.2,7.6,0.9,10.6c2.8,3.9,8.2,4.2,12.6,3.2 c0.5-0.1,0.6-0.4,0.5-0.9l-0.8-2.4C172.8,76.3,172.5,76.2,172.2,76.3C172.2,76.3,172.2,76.3,172.2,76.3"></path> <path class="st0" d="M179.8,71.5h11.5c0.3,0,0.5-0.2,0.6-0.5c2.3-11.4-12.2-14.7-16-5.2 c-1.6,4-1.2,11.5,3.6,13.6c3.6,1.5,7.4,1.5,11.4-0.1c0.4-0.1,0.5-0.4,0.4-0.8l-0.7-2c-0.1-0.2-0.3-0.4-0.6-0.3c0,0,0,0,0,0 c-3.7,1.3-10.8,1.3-10.6-4.3C179.3,71.7,179.5,71.5,179.8,71.5"></path> <path class="st0" d="M59.6,68.1c-4-0.9-9.4-0.4-11.1,3.9c-0.7,1.8-0.6,3.5,0.3,5.1 c2.7,4.7,10.6,3.7,14.8,2.1c0.3-0.1,0.5-0.3,0.5-0.7c0.2-5.5,0.9-15-2.2-16.7c-3.7-2.1-7.8-2-12.3,0.1c-0.3,0.1-0.4,0.5-0.3,0.8 l0.7,2c0.1,0.2,0.3,0.3,0.6,0.3c0,0,0,0,0,0c3.2-1.4,9.1-2.7,9.7,2.5c0,0.3-0.2,0.5-0.5,0.6C59.7,68.1,59.7,68.1,59.6,68.1"></path> <path class="st0" d="M134.3,80.6c5,0,9.1-4.5,9.1-10.1v0c0-5.6-4.1-10.1-9.1-10.1c0,0,0,0,0,0 c-5,0-9.1,4.5-9.1,10.1S129.3,80.6,134.3,80.6"></path> <path class="st0" d="M150.5,62l0-0.7c0-0.3-0.2-0.5-0.5-0.5l-2.8,0c-0.3,0-0.5,0.2-0.5,0.5 v18.1c0,0.4,0.2,0.6,0.6,0.6l2.8,0c0.4,0,0.6-0.2,0.6-0.6c-0.1-4.4-1.9-16.2,5.3-15.1c1,0.2,2-0.5,2.1-1.5c0.2-0.9-0.3-1.7-1.2-2 c-1.9-0.8-3.9-0.3-5.9,1.4C150.7,62.5,150.5,62.4,150.5,62"></path> <path class="st0" d="M80.4,68.3l8,0c0.1,0,0.2-0.1,0.2-0.2l0,0v-0.2c0-2.3-1.9-4.1-4.2-4.1 c0,0,0,0,0,0h-0.2c-2.3,0-4.1,1.9-4.1,4.1V68C80.2,68.2,80.3,68.3,80.4,68.3"></path> <path class="st0" d="M179.7,68.3l8,0c0.1,0,0.2-0.1,0.2-0.2v-0.1c0-2.3-1.9-4.1-4.1-4.1 c0,0,0,0,0,0h-0.3c-2.3,0-4.1,1.9-4.1,4.1V68C179.5,68.2,179.6,68.3,179.7,68.3"></path> <path class="st0" d="M60.3,75.6l-0.2-3.7c0-0.7-0.7-1.3-1.4-1.2l-3.4,0.2 c-1.9,0.1-3.4,1.6-3.3,3.3c0,0,0,0,0,0l0,0.3c0.1,1.7,1.7,2.9,3.6,2.8l3.4-0.2C59.8,77,60.3,76.4,60.3,75.6"></path> <path class="st0" d="M134.4,77.4c2.7,0,4.8-3.1,4.8-6.9s-2.2-7-4.8-7l0,0c-2.7,0-4.8,3.1-4.8,7 l0,0C129.6,74.3,131.8,77.4,134.4,77.4"></path> </g> <path class="st1" d="M53.8,0h4.7c12.4,1.2,22.5,6.5,30.3,15.9c0.2,0.3,0.5,0.3,0.8,0c15.2-14.7,38-14.9,53.1-0.1 c2.3,2.3,4.3,5.2,6.3,8c0.2,0.3,0.5,0.4,0.8,0.2c15.7-6.5,32.3-4.4,45.8,5.7c11.2,8.4,17.4,20.3,18.5,35.6v4.1 c-2.4,20.8-12.8,34.7-31.3,41.5c-7.6,2.8-15.6,2.9-23.4,1.6c-0.3-0.1-0.6,0.1-0.8,0.3c-9.2,14.8-27.2,21.3-43.4,13.7 c-0.3-0.2-0.6-0.1-0.7,0.3c-6.8,14.1-18.1,21.8-33.8,23.1h-3.2c-16.4-1.6-27.8-9.8-34.4-24.8c-0.1-0.3-0.4-0.4-0.7-0.4 c-21.9,4-40.2-10.9-42.4-32.7v-4.8c1.1-12.6,6.9-22.2,17.4-29c0.3-0.2,0.4-0.5,0.2-0.8c-5.1-13-4.1-26.5,3.4-38.3 C28.2,7.8,39.1,1.4,53.8,0z M120.8,60.3c0-3.2,2-5.1,5.3-4.2c0.3,0.1,0.7-0.1,0.8-0.4l0.7-2.1c0.1-0.3,0-0.5-0.3-0.7 c-5.8-2.3-9.8,1.8-10.4,7.4c0,0.3-0.3,0.5-0.6,0.5l-2.2,0c-0.4,0-0.6,0.2-0.7,0.6l-0.3,2.2c-0.1,0.4,0.1,0.5,0.4,0.5l2,0 c0.4,0,0.5,0.2,0.5,0.6c-0.8,5-1.7,10-2.7,14.9c-0.6,2.8-1.2,7.7-5.5,5.5c-0.2-0.1-0.5,0-0.7,0.2c0,0,0,0,0,0l-0.9,2.3 c-0.1,0.3,0,0.7,0.4,0.8c0,0,0,0,0,0c6.3,2.5,9.8-2.7,10.7-8.2c0.9-5.3,1.8-10.5,2.7-15.8c0.1-0.3,0.2-0.5,0.6-0.5h3.5 c0.3,0,0.6-0.2,0.7-0.6l0.4-2.1c0.1-0.4-0.1-0.5-0.5-0.5l-3.3,0C121,60.7,120.8,60.6,120.8,60.3z M72.1,53.2c0-0.2-0.2-0.4-0.4-0.4 l0,0h-3.2c-0.2,0-0.4,0.2-0.4,0.4v0v26.4c0,0.2,0.2,0.4,0.4,0.4l0,0h3.2c0.2,0,0.4-0.2,0.4-0.4l0,0V53.2z M36.6,63.8 c2.6-0.5,5-0.1,7.2,1.2c0.2,0.1,0.4,0.1,0.6-0.1c0,0,0,0,0-0.1l0.8-2c0.1-0.3,0-0.7-0.3-0.9c-2.7-1.5-5.5-2-8.3-1.5 c-3.7,0.7-6,4.1-4.8,7.8c1,2.9,5.9,3.9,8.5,4.6c1,0.3,1.7,1.3,1.5,2.4c-0.7,3.9-7.5,1.2-9.3,0.1c-0.3-0.2-0.6-0.1-0.7,0.2L31,77.5 c-0.2,0.4-0.1,0.7,0.3,0.9c3.8,2.4,11,3.7,13.7-1c3.8-6.6-4.7-8.6-8.7-10.1c-1-0.4-1.5-1.4-1.1-2.4C35.5,64.4,36,63.9,36.6,63.8z M80.5,71.5H92c0.3,0,0.5-0.1,0.5-0.4c1.7-8.7-7.5-14.7-14-8.3c-3.3,3.2-3.7,8.7-1.8,12.8c2.5,5.5,9.2,5.5,14.3,4 c0.7-0.2,1-0.7,0.7-1.4l-0.6-1.7c-0.1-0.3-0.4-0.4-0.7-0.3c0,0,0,0,0,0C86.7,77.7,79.7,77.4,80,72C80,71.7,80.1,71.5,80.5,71.5z M100.9,63.8c2.6-0.5,5-0.1,7.2,1.2c0.2,0.1,0.5,0.1,0.7-0.2c0,0,0-0.1,0-0.1l0.7-1.9c0.1-0.4,0-0.7-0.3-0.9 c-4.4-2.5-12.5-2.7-13.2,3.8c-0.9,7.8,11.9,5.2,10.2,10c-1.1,3.1-7.2,0.9-9.2-0.5c-0.2-0.1-0.5-0.1-0.6,0.1c0,0,0,0.1-0.1,0.1 l-0.8,2.2c-0.1,0.4,0,0.6,0.3,0.8c3.2,2,6.4,2.7,9.7,2c3.7-0.8,5.9-4.8,4.2-8.3c-1.3-2.5-6.4-3.8-8.8-4.7c-1-0.3-1.5-1.4-1.2-2.4 C99.7,64.4,100.3,63.9,100.9,63.8z M172.2,76.3c-12.9,5.1-12.1-16.9-0.4-11.8c0.3,0.1,0.7,0,0.8-0.3c0,0,0,0,0,0l0.9-2.3 c0.1-0.3,0-0.6-0.3-0.7c-6.7-2.1-11.2-0.4-13.5,5c-1.5,3.4-1.2,7.6,0.9,10.6c2.8,3.9,8.2,4.2,12.6,3.2c0.5-0.1,0.6-0.4,0.5-0.9 l-0.8-2.4C172.8,76.3,172.5,76.2,172.2,76.3C172.2,76.3,172.2,76.3,172.2,76.3z M179.8,71.5h11.5c0.3,0,0.5-0.2,0.6-0.5 c2.3-11.4-12.2-14.7-16-5.2c-1.6,4-1.2,11.5,3.6,13.6c3.6,1.5,7.4,1.5,11.4-0.1c0.4-0.1,0.5-0.4,0.4-0.8l-0.7-2 c-0.1-0.2-0.3-0.4-0.6-0.3c0,0,0,0,0,0c-3.7,1.3-10.8,1.3-10.6-4.3C179.3,71.7,179.5,71.5,179.8,71.5z M59.6,68.1 c-4-0.9-9.4-0.4-11.1,3.9c-0.7,1.8-0.6,3.5,0.3,5.1c2.7,4.7,10.6,3.7,14.8,2.1c0.3-0.1,0.5-0.3,0.5-0.7c0.2-5.5,0.9-15-2.2-16.7 c-3.7-2.1-7.8-2-12.3,0.1c-0.3,0.1-0.4,0.5-0.3,0.8l0.7,2c0.1,0.2,0.3,0.3,0.6,0.3c0,0,0,0,0,0c3.2-1.4,9.1-2.7,9.7,2.5 c0,0.3-0.2,0.5-0.5,0.6C59.7,68.1,59.7,68.1,59.6,68.1z M134.3,80.6c5,0,9.1-4.5,9.1-10.1v0c0-5.6-4.1-10.1-9.1-10.1c0,0,0,0,0,0 c-5,0-9.1,4.5-9.1,10.1S129.3,80.6,134.3,80.6z M150.5,62l0-0.7c0-0.3-0.2-0.5-0.5-0.5l-2.8,0c-0.3,0-0.5,0.2-0.5,0.5v18.1 c0,0.4,0.2,0.6,0.6,0.6l2.8,0c0.4,0,0.6-0.2,0.6-0.6c-0.1-4.4-1.9-16.2,5.3-15.1c1,0.2,2-0.5,2.1-1.5c0.2-0.9-0.3-1.7-1.2-2 c-1.9-0.8-3.9-0.3-5.9,1.4C150.7,62.5,150.5,62.4,150.5,62z"></path> <path class="st2" d="M121.3,60.7l3.3,0c0.4,0,0.5,0.2,0.5,0.5l-0.4,2.1c-0.1,0.3-0.3,0.6-0.7,0.6h-3.5c-0.3,0-0.5,0.2-0.6,0.5 c-0.9,5.3-1.8,10.5-2.7,15.8c-0.9,5.4-4.4,10.6-10.7,8.2c-0.3-0.1-0.5-0.5-0.4-0.8c0,0,0,0,0,0l0.9-2.3c0.1-0.3,0.4-0.4,0.6-0.3 c0,0,0,0,0,0c4.3,2.2,5-2.7,5.5-5.5c1-5,1.9-9.9,2.7-14.9c0.1-0.4-0.1-0.6-0.5-0.6l-2,0c-0.4,0-0.5-0.2-0.4-0.5l0.3-2.2 c0.1-0.4,0.3-0.6,0.7-0.6l2.2,0c0.3,0,0.6-0.2,0.6-0.5c0.6-5.5,4.6-9.7,10.4-7.4c0.3,0.1,0.4,0.3,0.3,0.7l-0.7,2.1 c-0.1,0.3-0.5,0.5-0.8,0.4c-3.2-0.9-5.3,1-5.3,4.2C120.8,60.6,121,60.7,121.3,60.7z"></path> <path class="st2" d="M68.6,52.8h3.2c0.2,0,0.4,0.2,0.4,0.4v26.4c0,0.2-0.2,0.4-0.4,0.4h-3.2c-0.2,0-0.4-0.2-0.4-0.4V53.2 C68.2,52.9,68.3,52.8,68.6,52.8z"></path> <path class="st2" d="M36.6,63.8C35.6,64,35,65,35.2,66c0.1,0.6,0.6,1.1,1.2,1.4c4,1.5,12.5,3.5,8.7,10.1c-2.7,4.7-9.9,3.4-13.7,1 c-0.4-0.2-0.5-0.5-0.3-0.9l0.8-2.1c0.2-0.4,0.4-0.5,0.7-0.2c1.8,1.2,8.6,3.8,9.3-0.1c0.2-1.1-0.5-2.1-1.5-2.4 c-2.6-0.7-7.6-1.7-8.5-4.6c-1.2-3.7,1.1-7,4.8-7.8c2.8-0.5,5.5,0,8.3,1.5c0.3,0.2,0.4,0.6,0.3,0.9l-0.8,2c-0.1,0.2-0.3,0.3-0.5,0.2 c0,0,0,0-0.1,0C41.6,63.7,39.2,63.3,36.6,63.8z"></path> <path class="st2" d="M80,72c-0.3,5.5,6.7,5.7,10.5,4.2c0.3-0.1,0.6,0,0.7,0.3c0,0,0,0,0,0l0.6,1.7c0.3,0.7,0,1.2-0.7,1.4 c-5.1,1.5-11.8,1.6-14.3-4c-1.9-4.1-1.5-9.6,1.8-12.8c6.6-6.4,15.7-0.5,14,8.3c-0.1,0.3-0.2,0.4-0.5,0.4H80.5 C80.1,71.5,80,71.7,80,72z M80.4,68.3l8,0c0.1,0,0.2-0.1,0.2-0.2l0,0v-0.2c0-2.3-1.9-4.1-4.2-4.1c0,0,0,0,0,0h-0.2 c-2.3,0-4.1,1.9-4.1,4.1V68C80.2,68.2,80.3,68.3,80.4,68.3z"></path> <path class="st2" d="M100.9,63.8c-1,0.2-1.7,1.2-1.5,2.2c0.1,0.7,0.6,1.2,1.2,1.4c2.5,0.9,7.6,2.2,8.8,4.7c1.8,3.5-0.5,7.5-4.2,8.3 c-3.3,0.7-6.5,0-9.7-2c-0.3-0.2-0.4-0.5-0.3-0.8l0.8-2.2c0.1-0.2,0.3-0.4,0.6-0.3c0,0,0.1,0,0.1,0.1c2,1.4,8.1,3.6,9.2,0.5 c1.7-4.8-11.1-2.2-10.2-10c0.8-6.5,8.8-6.2,13.2-3.8c0.4,0.2,0.5,0.5,0.3,0.9l-0.7,1.9c-0.1,0.3-0.4,0.4-0.6,0.3c0,0-0.1,0-0.1,0 C105.9,63.7,103.5,63.3,100.9,63.8z"></path> <path class="st2" d="M171.8,64.4c-11.6-5-12.4,16.9,0.4,11.8c0.3-0.1,0.6,0,0.7,0.3c0,0,0,0,0,0l0.8,2.4c0.1,0.5,0,0.8-0.5,0.9 c-4.4,1-9.8,0.7-12.6-3.2c-2.1-3-2.4-7.2-0.9-10.6c2.3-5.4,6.8-7,13.5-5c0.4,0.1,0.5,0.3,0.3,0.7l-0.9,2.3 C172.5,64.4,172.1,64.6,171.8,64.4C171.8,64.4,171.8,64.4,171.8,64.4z"></path> <path class="st2" d="M179.3,72c-0.2,5.6,6.9,5.6,10.6,4.3c0.2-0.1,0.5,0,0.6,0.3c0,0,0,0,0,0l0.7,2c0.1,0.4,0,0.7-0.4,0.8 c-4,1.6-7.8,1.6-11.4,0.1c-4.8-2.1-5.2-9.6-3.6-13.6c3.8-9.5,18.3-6.2,16,5.2c-0.1,0.3-0.3,0.5-0.6,0.5h-11.5 C179.5,71.5,179.3,71.7,179.3,72z M179.7,68.3l8,0c0.1,0,0.2-0.1,0.2-0.2v-0.1c0-2.3-1.9-4.1-4.1-4.1c0,0,0,0,0,0h-0.3 c-2.3,0-4.1,1.9-4.1,4.1V68C179.5,68.2,179.6,68.3,179.7,68.3z"></path> <path class="st2" d="M60.2,67.5c-0.6-5.2-6.4-3.9-9.7-2.5c-0.2,0.1-0.5,0-0.6-0.2c0,0,0,0,0,0l-0.7-2c-0.1-0.3,0-0.6,0.3-0.8 c4.5-2.1,8.6-2.2,12.3-0.1C65,63.5,64.2,73,64,78.5c0,0.3-0.2,0.5-0.5,0.7c-4.2,1.6-12.1,2.6-14.8-2.1c-0.9-1.6-1-3.3-0.3-5.1 c1.7-4.3,7.2-4.8,11.1-3.9c0.3,0.1,0.6-0.1,0.6-0.4C60.3,67.6,60.3,67.5,60.2,67.5z M60.3,75.6l-0.2-3.7c0-0.7-0.7-1.3-1.4-1.2 l-3.4,0.2c-1.9,0.1-3.4,1.6-3.3,3.3c0,0,0,0,0,0l0,0.3c0.1,1.7,1.7,2.9,3.6,2.8l3.4-0.2C59.8,77,60.3,76.4,60.3,75.6z"></path> <path class="st2" d="M134.3,80.6c-5,0-9.1-4.5-9.1-10.1s4.1-10.1,9.1-10.1c5,0,9.1,4.5,9.1,10.1c0,0,0,0,0,0 C143.5,76.1,139.4,80.6,134.3,80.6C134.3,80.6,134.3,80.6,134.3,80.6z M134.4,77.4c2.7,0,4.8-3.1,4.8-6.9s-2.2-7-4.8-7l0,0 c-2.7,0-4.8,3.1-4.8,7l0,0C129.6,74.3,131.8,77.4,134.4,77.4z"></path> <path class="st2" d="M151.1,62.2c2-1.7,4-2.2,5.9-1.4c1,0.4,1.5,1.4,1.1,2.4c-0.3,0.8-1.2,1.3-2,1.2c-7.2-1.1-5.3,10.7-5.3,15.1 c0,0.4-0.2,0.6-0.6,0.6l-2.8,0c-0.4,0-0.6-0.2-0.6-0.6V61.3c0-0.3,0.2-0.5,0.5-0.5l2.8,0c0.3,0,0.5,0.2,0.5,0.5l0,0.7 C150.5,62.4,150.7,62.5,151.1,62.2z"></path> <path class="st1" d="M80.4,68.3c-0.1,0-0.2-0.1-0.2-0.2v-0.2c0-2.3,1.8-4.1,4.1-4.1h0.2c2.3,0,4.1,1.8,4.2,4.1c0,0,0,0,0,0V68 c0,0.1-0.1,0.2-0.2,0.2l0,0L80.4,68.3z"></path> <ellipse class="st1" cx="134.4" cy="70.5" rx="4.8" ry="6.9"></ellipse> <path class="st1" d="M179.7,68.3c-0.1,0-0.2-0.1-0.2-0.2v-0.1c0-2.3,1.8-4.1,4.1-4.1h0.3c2.3,0,4.1,1.8,4.1,4.1c0,0,0,0,0,0V68 c0,0.1-0.1,0.2-0.2,0.2L179.7,68.3z"></path> <path class="st1" d="M60.3,75.6c0,0.7-0.5,1.3-1.2,1.4l-3.4,0.2c-1.9,0.1-3.5-1.1-3.6-2.8l0-0.3c-0.1-1.7,1.4-3.1,3.3-3.3 c0,0,0,0,0,0l3.4-0.2c0.7,0,1.3,0.5,1.4,1.2L60.3,75.6z"></path> </svg>